<?xml version="1.0" encoding="utf-8"?>
<!-- Generator: Adobe Illustrator 27.8.1, SVG Export Plug-In . SVG Version: 6.00 Build 0)  -->
<svg width='40' height='20' xmlns="http://www.w3.org/2000/svg" xmlns:xlink="http://www.w3.org/1999/xlink" x="0px" y="0px"
	 viewBox="0 0 21.6 21.6" xml:space="preserve">
<style type="text/css">
	.st0{fill:#0E7D67;}
</style>
<path class="st0" d="M18.7,0.7c-4.7,5.4-7.9,11.7-10.9,18c-0.9-1.2-1.8-2.5-2.7-3.7c-0.7-1-1.4-2.3-2.4-3.2
	c-0.4-0.3-1.6,0.2-1.4,0.7l0,0c0.4,1.2,1.4,2.3,2.1,3.4c1.2,1.7,2.3,3.5,3.5,5.2c0.5,0.6,1.6,0.1,1.9-0.4
	c3.3-6.7,6.7-13.3,11.3-19.4C20.8,0.2,19.3,0,18.7,0.7z"/>
</svg>
