<svg width="28" height="28" viewBox="0 0 28 28" fill="none" xmlns="http://www.w3.org/2000/svg">
<path d="M21.2908 8.37843C22.2377 8.37843 23.0054 7.61078 23.0054 6.66383C23.0054 5.71687 22.2377 4.94922 21.2908 4.94922C20.3438 4.94922 19.5762 5.71687 19.5762 6.66383C19.5762 7.61078 20.3438 8.37843 21.2908 8.37843Z" fill="white"/>
<path d="M13.9992 20.8578C17.7865 20.8578 20.8558 17.7884 20.8558 14.0012C20.8558 10.2139 17.7865 7.14453 13.9992 7.14453C10.212 7.14453 7.14258 10.2139 7.14258 14.0012C7.14258 17.7884 10.212 20.8578 13.9992 20.8578ZM13.9992 9.54282C16.4605 9.54642 18.4539 11.5399 18.4557 13.9994C18.4557 16.4606 16.4605 18.4559 13.9992 18.4559C11.5379 18.4559 9.54267 16.4606 9.54267 13.9994C9.54267 11.5381 11.5379 9.54282 13.9992 9.54282Z" fill="white"/>
<path d="M7.14179 27.7156H20.8568C24.6441 27.7156 27.7135 24.6462 27.7135 20.8589V7.14569C27.7135 3.35844 24.6441 0.289062 20.8568 0.289062H7.14179C3.35454 0.289062 0.285156 3.35844 0.285156 7.14569V20.8589C0.285156 24.6462 3.35454 27.7156 7.14179 27.7156ZM2.68525 7.14389C2.68885 4.68263 4.68232 2.68915 7.14179 2.68735H20.8568C23.3181 2.69095 25.3116 4.68443 25.3134 7.14389V20.8571C25.3098 23.3184 23.3163 25.3119 20.8568 25.3137H7.14179C4.68052 25.3101 2.68705 23.3166 2.68525 20.8571V7.14389Z" fill="white"/>
</svg>
