<?xml version="1.0" encoding="UTF-8"?><svg id="Capa_1" xmlns="http://www.w3.org/2000/svg" viewBox="0 0 60 60"><defs><style>.cls-1{fill:#f9c16d;}.cls-2{fill:#0f715c;}</style></defs><path class="cls-1" d="m45.41,52.62l-.52-9.55,2.35-3.22,4.43-1.81,3.76-3.89.4-5.64-2.22-4.56-2.28-2.21-.2-4.3-2.48-5.03-5.23-2.89-4.9,1.01-4.7-3.82-6.11-.07-4.63,2.42-5.84.2-5.57,3.69-2.82,4.97-4.36,4.43-.47,6.64,2.35,5.44,4.7,2.82,6.38.07,4.3,4.97,6.78,1.14,3.22.4,5.84,4.16,3.49,4.43,4.35.22Z"/><path class="cls-2" d="m46.68,54.02c-.75.14-1.43.3-2.11.38-1.09.12-2.19.17-3.28.28-.5.05-.82-.16-1.03-.59-.11-.22-.23-.43-.32-.66-1.16-3.04-3.37-5.2-6.03-6.93-1.25-.81-2.63-1.41-3.95-2.1-.3-.16-.6-.19-.96-.07-4.12,1.39-10.23-.84-11.99-5.85-.03-.08-.08-.16-.14-.3-.55.07-1.12.16-1.69.21-3.79.29-7.06-.76-9.52-3.8-1.89-2.35-2.9-5.02-2.63-8.07.31-3.56,1.6-6.69,4.21-9.2.5-.48,1.09-.89,1.7-1.22.41-.23.63-.51.81-.92,1.75-4.03,4.87-6.38,9.11-7.31,1.25-.27,2.49-.16,3.72.14.38.09.68.12,1-.19,3.59-3.55,11.64-3.51,15.3,1.4.05.07.11.14.2.26.5-.15.98-.36,1.47-.45,3.25-.6,6.06.36,8.37,2.64,2.4,2.38,3.43,5.36,3.28,8.73-.02.45-.06.91-.08,1.37,1.7,1.08,2.93,2.53,3.8,4.29,1.33,2.68,1.46,5.35.11,8.08-1.48,2.98-3.73,5.01-6.93,5.97-.3.09-.61.27-.82.49-.84.88-1.65,1.81-2.48,2.7-.29.31-.43.63-.37,1.07.32,2.39.64,4.78.95,7.17.1.78.18,1.56.29,2.47h0Zm-1.47-13.2s-.07-.09-.12-.11c-.14-.05-.29-.1-.44-.14-1.55-.37-2.9-1.12-4.11-2.12-.49-.4-.88-.92-1.27-1.43-.09-.12-.08-.46.02-.56.11-.1.4-.09.57-.02.19.07.34.25.5.39,2.41,1.93,5.08,2.75,8.12,1.85,3.08-.92,5.42-2.74,6.25-5.97.68-2.63.16-5.14-1.37-7.42-2.6-3.9-7.67-3.87-10.4-1.66-.92.75-1.75,1.61-2.54,2.5-.77.87-1.35,1.88-1.72,3-.3.93-.62,1.85-.98,2.75-.57,1.41-1.48,2.57-2.95,3.08-.94.32-1.96.53-2.95.58-2.51.14-4.84-.43-6.86-2.03-.87-.69-1.83-1.02-2.99-.71-2.54.68-3.73,3.28-2.67,5.45.41.84.96,1.55,1.68,2.14.94.76,1.98,1.32,3.14,1.65,2.24.65,4.35.47,6.21-1.05.63-.52,1.21-1.11,1.8-1.68.45-.43.84-.55,1.21-.32.4.24.59.79.27,1.29-.38.61-.91,1.13-1.39,1.67-.19.21-.45.36-.73.58.68.34,1.3.6,1.86.95,2.69,1.65,5,3.7,6.74,6.36.18.27.34.48.72.45,1.21-.08,2.42-.14,3.7-.21-.05-.41-.08-.74-.14-1.07-.26-1.6-.53-3.19-.8-4.79-.1-.59-.09-1.14.31-1.64.45-.57.87-1.16,1.3-1.75h0Zm-28.19-6.31c.38-.52.69-1.01,1.07-1.45.93-1.09,2.22-1.58,3.53-2.02.78-.26,1.55-.24,2.34,0,1.05.31,1.9.97,2.75,1.61.86.65,1.83,1,2.87,1.09.97.08,1.96.1,2.92,0,1.98-.2,3.27-1.35,3.66-3.17.31-1.44.87-2.8,1.63-4.06.2-.33.3-.61.11-1.01-.35-.73-.38-1.52-.23-2.33.19-.99.34-1.99.49-2.98.23-1.48.52-2.95.66-4.43.23-2.54-.76-4.57-2.75-6.15-1.56-1.24-3.34-1.85-5.3-2.06-2.02-.22-3.8.45-5.62,1.41.38.3.67.52.95.75.69.53,1.28,1.16,1.6,1.97,1.01,2.52,1.53,5.08.52,7.75-.02.04.03.1.06.19.51.12,1.04.28,1.58.35,1.04.12,2.07.12,3.06-.33,1.26-.57,1.86-1.66,1.73-3.02-.07-.73-.35-1.34-.73-1.95-.3-.48-.24-.89.09-1.15.35-.27.83-.19,1.21.24.22.25.43.52.58.82.88,1.7.91,3.43-.09,5.06-1.06,1.74-2.69,2.63-4.74,2.62-.82,0-1.64-.16-2.46-.22-.97-.07-1.95-.22-2.91-.16-2.29.14-4.34.99-6.12,2.42-1.84,1.49-3.07,3.38-3.38,5.78-.2,1.56.11,3.02.92,4.43h0Zm9.44-14.9c.1-.87.12-1.64.29-2.38.76-3.23-2.31-6.58-4.66-7.23-1.37-.38-2.73-.32-4.07.02-2.44.61-4.23,2.14-5.57,4.2-1.34,2.05-2.03,4.28-1.57,6.78.39,2.16,2.51,4.52,4.75,4.65,2.55-3.79,6.13-5.85,10.82-6.03h0Zm-10.99,16.84c-.98-1.69-1.52-3.44-1.47-5.35-2.27.19-4.07-.62-5.58-2.16-.5-.51-.86-1.13-.94-1.84-.05-.38.01-.79.09-1.17.07-.32.32-.57.66-.52.35.05.48.36.45.7-.06.82.4,1.39.93,1.91,1.28,1.25,2.82,1.58,4.6,1.25.15-.54.29-1.06.45-1.64-3.98-1.61-5.65-4.69-5.75-8.76-.13.01-.2,0-.24.02-.1.06-.21.13-.3.21-1.8,1.69-3.06,3.7-3.54,6.16-.25,1.28-.17,2.56.02,3.83.52,3.46,2.64,6.06,6.3,7.23,1.4.45,2.81.45,4.32.1h0Zm34.55-15.65c.06-.1.11-.15.12-.21.03-.09.04-.18.05-.27.21-2.14-.22-4.14-1.37-5.95-1.85-2.91-5.1-4.31-8.46-3.67-.13.03-.25.13-.38.2.25.7.48,1.35.67,1.89.78.09,1.46.09,2.09.27,1.31.38,2.33,1.18,3.02,2.37.32.56.31.94-.02,1.15-.43.28-.73.02-1.04-.27-.31-.29-.63-.58-.99-.81-.89-.57-1.84-.91-2.98-.79-.05.38-.11.71-.14,1.04-.1.85-.18,1.7-.29,2.55-.18,1.42-.38,2.85-.55,4.27-.05.37-.17.78.2,1.15,2.89-2.65,6.2-3.84,10.07-2.92h0Z"/><path class="cls-2" d="m45.21,35.43c-1.64,0-2.93-.6-4-1.71-.49-.51-.56-.99-.22-1.37.33-.38.82-.36,1.37.08.98.78,2.04,1.12,3.32.85,1.44-.29,2.69-1.93,2.84-3.66.08-.97-.15-1.87-.56-2.74-.14-.3-.32-.6-.39-.92-.05-.24-.04-.56.08-.75.2-.31.56-.25.82-.06.46.34.99.66,1.3,1.12,1.27,1.93,1.38,3.99.39,6.08-.97,2.03-3.37,3.21-4.94,3.09h0Z"/><path class="cls-2" d="m29.72,29.89c-2.21-.05-3.92-.76-5.08-2.52-.12-.18-.24-.36-.3-.56-.11-.34-.09-.69.27-.88.33-.18.65-.09.9.21.06.07.1.15.15.23,1.8,2.55,5.39,2.59,7.33.08.19-.24.32-.54.55-.72.19-.15.49-.25.72-.22.36.05.47.41.41.72-.08.41-.2.84-.41,1.19-1.05,1.8-2.76,2.37-4.54,2.47h0Z"/><path class="cls-2" d="m24.98,15.17c-.17.23-.31.6-.57.71-.26.12-.63.01-.94-.05-.12-.03-.23-.19-.32-.31-1.43-1.68-3.36-2.19-5.52-1.43-.52.18-1.01.43-1.51.65-.26.12-.57.25-.73-.05-.11-.2-.12-.57-.01-.76.23-.38.52-.77.87-1.03,2.05-1.53,5.58-1.51,7.56.34.33.31.6.69.85,1.07.14.22.19.5.32.87Z"/></svg>