<?xml version="1.0" encoding="UTF-8"?><svg id="Capa_1" xmlns="http://www.w3.org/2000/svg" xmlns:xlink="http://www.w3.org/1999/xlink" viewBox="0 0 250 40"><defs><style>.cls-1{fill:none;}.cls-2{clip-path:url(#clippath);}.cls-3{fill:#fac16d;}</style><clipPath id="clippath"><rect class="cls-1" x="15.93" y="1.14" width="218.14" height="37.72"/></clipPath></defs><g class="cls-2"><path class="cls-3" d="m30.34,12.42c1.64-3.5,3.24-6.91,4.84-10.31.2-.42.33-.94.89-.97.61-.04.83.48,1.05.93,1.5,3.19,3.03,6.38,4.47,9.59.31.68.74.91,1.41,1.01,4.05.66,8.09,1.35,12.14,2.04.2.03.39.09.58.17.67.28.8.79.33,1.34-.15.18-.35.31-.52.47-3.02,2.68-6.03,5.37-9.05,8.06-.07.06-.14.14-.25.26.04.22.07.48.13.73.95,3.84,1.91,7.68,2.86,11.52.04.16.09.32.09.49,0,.61-.49.98-1.07.78-.28-.1-.55-.25-.81-.39-3.4-1.85-6.8-3.71-10.19-5.57-.26-.14-.53-.29-.76-.42-2.81,1.53-5.59,3.05-8.37,4.56-1.08.59-2.16,1.19-3.25,1.77-.23.13-.47.27-.72.34-.53.14-.95-.15-.96-.7,0-.36.08-.72.16-1.08.94-4.15,1.88-8.3,2.84-12.51-1.36-1.1-2.77-2.22-4.16-3.36-1.83-1.51-3.64-3.03-5.47-4.54-.34-.28-.72-.54-.59-1.06.13-.5.56-.6,1.01-.68,3.21-.59,6.43-1.19,9.64-1.79,1.25-.23,2.49-.45,3.73-.68h0Z"/><path class="cls-3" d="m74.84,12.42c1.64-3.5,3.24-6.91,4.84-10.31.2-.42.33-.94.89-.97.61-.04.83.48,1.05.93,1.5,3.19,3.03,6.38,4.47,9.59.31.68.74.91,1.41,1.01,4.05.66,8.09,1.35,12.14,2.04.2.03.39.09.58.17.67.28.8.79.33,1.34-.15.18-.35.31-.52.47-3.02,2.68-6.03,5.37-9.05,8.06-.07.06-.14.14-.25.26.04.22.07.48.13.73.95,3.84,1.91,7.68,2.86,11.52.04.16.09.32.09.49,0,.61-.49.98-1.07.78-.28-.1-.55-.25-.81-.39-3.4-1.85-6.8-3.71-10.19-5.57-.26-.14-.53-.29-.76-.42-2.81,1.53-5.59,3.05-8.37,4.56-1.08.59-2.16,1.19-3.25,1.77-.23.13-.47.27-.72.34-.53.14-.95-.15-.96-.7,0-.36.08-.72.16-1.08.94-4.15,1.88-8.3,2.84-12.51-1.36-1.1-2.77-2.22-4.16-3.36-1.83-1.51-3.64-3.03-5.47-4.54-.34-.28-.72-.54-.59-1.06.13-.5.56-.6,1.01-.68,3.22-.59,6.43-1.19,9.65-1.79,1.25-.23,2.49-.45,3.73-.68h0Z"/><path class="cls-3" d="m119.59,12.42c1.64-3.5,3.24-6.91,4.84-10.31.2-.42.33-.94.89-.97.61-.04.83.48,1.05.93,1.5,3.19,3.03,6.38,4.47,9.59.31.68.74.91,1.41,1.01,4.05.66,8.09,1.35,12.14,2.04.2.03.39.09.58.17.67.28.8.79.33,1.34-.15.18-.35.31-.52.47-3.02,2.68-6.03,5.37-9.05,8.06-.07.06-.14.14-.25.26.04.22.07.48.13.73.95,3.84,1.91,7.68,2.86,11.52.04.16.09.32.09.49,0,.61-.49.98-1.07.78-.28-.1-.55-.25-.81-.39-3.4-1.85-6.8-3.71-10.19-5.57-.26-.14-.53-.29-.76-.42-2.81,1.53-5.59,3.05-8.37,4.56-1.08.59-2.16,1.19-3.25,1.77-.23.13-.47.27-.72.34-.53.14-.95-.15-.96-.7,0-.36.08-.72.16-1.08.94-4.15,1.88-8.3,2.84-12.51-1.36-1.1-2.77-2.22-4.16-3.36-1.83-1.51-3.64-3.03-5.47-4.54-.34-.28-.72-.54-.59-1.06.13-.5.56-.6,1.01-.68,3.21-.59,6.43-1.19,9.65-1.79,1.25-.23,2.49-.45,3.73-.68h0Z"/><path class="cls-3" d="m163.84,12.42c1.64-3.5,3.24-6.91,4.84-10.31.2-.42.33-.94.89-.97.61-.04.83.48,1.05.93,1.5,3.19,3.03,6.38,4.47,9.59.31.68.74.91,1.41,1.01,4.05.66,8.09,1.35,12.14,2.04.2.03.39.09.57.17.67.28.8.79.33,1.34-.15.18-.35.31-.52.47-3.02,2.68-6.03,5.37-9.05,8.06-.07.06-.14.14-.25.26.04.22.07.48.13.73.95,3.84,1.91,7.68,2.86,11.52.04.16.09.32.09.49,0,.61-.49.98-1.07.78-.28-.1-.55-.25-.81-.39-3.4-1.85-6.8-3.71-10.19-5.57-.26-.14-.53-.29-.76-.42-2.81,1.53-5.59,3.05-8.36,4.56-1.08.59-2.17,1.19-3.25,1.77-.23.13-.47.27-.72.34-.53.14-.95-.15-.96-.7,0-.36.08-.72.17-1.08.94-4.15,1.88-8.3,2.84-12.51-1.36-1.1-2.77-2.22-4.16-3.36-1.83-1.51-3.64-3.03-5.47-4.54-.34-.28-.72-.54-.59-1.06.13-.5.56-.6,1.01-.68,3.21-.59,6.43-1.19,9.64-1.79,1.25-.23,2.5-.45,3.73-.68h0Z"/><path class="cls-3" d="m208.09,12.42c1.64-3.5,3.24-6.91,4.84-10.31.2-.42.33-.94.89-.97.61-.04.83.48,1.05.93,1.5,3.19,3.03,6.38,4.47,9.59.31.68.74.91,1.41,1.01,4.05.66,8.09,1.35,12.14,2.04.2.03.39.09.58.17.67.28.8.79.33,1.34-.15.18-.35.31-.52.47-3.02,2.68-6.03,5.37-9.05,8.06-.07.06-.14.14-.25.26.04.22.07.48.13.73.95,3.84,1.91,7.68,2.86,11.52.04.16.09.32.09.49,0,.61-.49.98-1.07.78-.28-.1-.55-.25-.81-.39-3.4-1.85-6.8-3.71-10.19-5.57-.26-.14-.53-.29-.76-.42-2.81,1.53-5.59,3.05-8.37,4.56-1.08.59-2.16,1.19-3.25,1.77-.23.13-.47.27-.72.34-.53.14-.95-.15-.96-.7,0-.36.08-.72.17-1.08.94-4.15,1.88-8.3,2.84-12.51-1.36-1.1-2.77-2.22-4.16-3.36-1.83-1.51-3.64-3.03-5.47-4.54-.34-.28-.72-.54-.59-1.06.13-.5.56-.6,1.01-.68,3.21-.59,6.43-1.19,9.64-1.79,1.25-.23,2.5-.45,3.73-.68h0Z"/></g></svg>