<?xml version="1.0" encoding="UTF-8"?><svg id="Capa_1" xmlns="http://www.w3.org/2000/svg" viewBox="0 0 60 60"><defs><style>.cls-1{fill:#feecb3;}.cls-2{fill:#0f715c;}</style></defs><path class="cls-1" d="m30.01,51.27c11.89,0,21.53-9.9,21.53-22.12S41.9,7.03,30.01,7.03,8.48,16.93,8.48,29.15s9.64,22.12,21.53,22.12Z"/><path class="cls-2" d="m20.1,50.3c-.24.29-.49.56-.71.85-1.39,1.8-3.27,2.74-5.47,3.08-.87.14-1.77.2-2.65.22-2.31.06-4.18-.96-5.65-2.62-1.13-1.28-2.1-2.72-2.43-4.48-.77-4.08.9-7.68,4.55-9.69.42-.24.87-.44,1.24-.63-.29-1.44-.61-2.81-.83-4.2-.65-4.25-.07-8.39,1.35-12.41,1.57-4.42,4.21-8.1,8.05-10.85,2.82-2.01,5.98-3.24,9.39-3.78,4.44-.7,8.66.05,12.68,2.06,5.56,2.79,9.37,7.13,11.45,12.98.54,1.51.72,3.1.89,4.69.32,3.01.3,6-.29,8.98-.85,4.32-2.63,8.19-5.73,11.34-3.49,3.55-7.68,5.83-12.67,6.6-4.52.7-8.8.06-12.86-2.04-.05-.03-.12-.04-.31-.1h0Zm-8.99-13.77c5.76-.14,9.39,2.39,10.7,7.99,1.23.11,2.44.08,3.74-.05,2.98-.31,5.88-1.12,8.6-2.36,2.31-1.06,4.39-2.52,6.3-4.17,1.92-1.66,3.83-3.44,5.4-5.45.69-.89,1.32-1.83,1.86-2.81.56-1.03,1.02-2.14,1.36-3.26.3-1.02.65-2.31.43-3.38-.08-.42-.14-.67-.23-.98-1.09-3.54-3.07-6.54-5.61-9.19-.76-.8-1.63-1.45-2.68-2.05-.02.29-.04.49-.04.69.04,3.2-.8,6.2-2.23,9.03-1.75,3.45-4.27,6.29-7.25,8.71-1.21.98-2.49,1.94-3.86,2.65-1.76.92-3.62,1.68-5.5,2.34-2.84,1.01-5.8,1.3-8.8.93-.9-.11-1.79-.28-2.82-.45.23.67.42,1.23.62,1.82h0Zm-1.12-4.05c.39.12.76.28,1.15.33.85.11,1.71.21,2.56.24,2.94.11,5.79-.45,8.61-1.23,2.14-.59,3.98-1.76,5.81-2.93,4.1-2.6,7.13-6.15,9.04-10.64,1.14-2.67,1.65-5.44,1.45-8.35-.04-.55-.26-.81-.75-1-1.78-.69-3.6-1.23-5.5-1.42-1.15-.12-2.31-.22-3.45-.03-.02.09-.04.12-.03.15,0,.15.02.31.02.46.11,2.73-.4,5.36-1.83,7.68-3.67,5.94-9.01,8.93-16.06,8.7-.36-.01-.72,0-1.06,0-.51,1.94-.51,5.8.02,8.03h0Zm40.41-3.66c-.35.71-.65,1.46-1.06,2.13-4.05,6.68-9.65,11.53-17,14.27-1.84.69-3.72,1.24-5.67,1.54-1.64.26-3.28.36-4.97.16-.07.34-.13.63-.2.95.25.12.47.23.69.32,1.82.75,3.71,1.26,5.67,1.5,4.82.6,9.23-.5,13.16-3.28,4.74-3.36,7.78-7.94,9.12-13.61.31-1.3.45-2.64.27-4h0ZM26.8,7.68c-7.26.73-14.74,8.08-16.14,14.44,8.63.67,16.37-6.07,16.14-14.44Z"/><path class="cls-2" d="m56.9,24.18c.15,1.31.13,2.63-.05,3.94-.07.54-.15,1.1-.23,1.65-.04.3-.16.6-.31.86-.25.45-.74.62-1.18.47-.47-.16-.73-.53-.72-1.05,0-.15.02-.31.07-.45.56-1.61.43-3.27.27-4.92-.3-2.95-1.28-5.68-2.82-8.19-.47-.77-1.17-1.4-1.76-2.1-.06-.07-.15-.11-.21-.18-.58-.54-.7-1.15-.32-1.61.39-.47,1.01-.52,1.65-.05,1.18.86,2.05,2.02,2.83,3.24,1.52,2.37,2.21,5.04,2.69,7.77.04.21.06.41.09.62h0Z"/></svg>