<?xml version="1.0" encoding="UTF-8"?><svg id="Capa_1" xmlns="http://www.w3.org/2000/svg" viewBox="0 0 60 60"><defs><style>.cls-1{fill:#0f715c;}.cls-2{fill:#a2cdef;}</style></defs><path class="cls-2" d="m28.56,35.94l9.15.32,5.68-2.21,5.87-5,3.17-6.73.1-7.12-1.92-5.39-4.33-2.41-5.2-1.06-7.12,2.79-5.1,5.29-2.69,5.96-.48,5.68,1.25,7.79,1.62,2.09Z"/><path class="cls-1" d="m20.21,45.13c.8-1.09,1.6-2.13,2.34-3.21.71-1.04,1.3-2.15,2.03-3.18,1.19-1.68,1.35-3.56,1.27-5.53-.08-1.88-.6-3.69-.92-5.52-.92-5.27.51-9.98,3.63-14.2,1.82-2.47,4.05-4.52,6.74-6.04,2.34-1.33,4.83-2.07,7.55-1.98,4.47.16,8.38,2.52,10.13,7.22,1.53,4.09,1.35,8.18-.48,12.09-2.72,5.83-7.16,9.84-13.34,11.86-1.77.58-3.59.73-5.41.92-1.24.13-2.48.35-3.7.63-1.52.35-2.73,1.25-3.66,2.48-1.45,1.9-2.84,3.85-4.28,5.82.62.57.44,1.07.03,1.62-1.48,1.96-2.91,3.95-4.37,5.92-.42.57-.67.65-1.23.29-.8-.52-1.55-1.09-2.31-1.66-.39-.29-.41-.65-.13-1.04,1.51-2.09,3.03-4.17,4.53-6.26.44-.61.98-.47,1.6-.22h0ZM48.34,9.35c-1.06,1.53-2.04,2.95-3.04,4.4.88.67,1.65,1.26,2.45,1.87.93-1.16,1.84-2.27,2.74-3.39-.51-1.09-1.21-1.96-2.15-2.88Zm-4.83-2.04c-.77,1.15-1.49,2.24-2.26,3.4.85.64,1.65,1.24,2.5,1.88,1.07-1.46,2.19-2.77,3.11-4.31-1.08-.59-2.14-.94-3.35-.98Zm-11.85,22.24c-.88-.69-1.69-1.32-2.53-1.98-.49.69-.92,1.32-1.38,1.93-.29.37-.29.7-.04,1.08.52.79,1.02,1.58,1.57,2.44.82-1.19,1.57-2.29,2.38-3.47h0Zm6.19-8.68c.72-1.02,1.39-1.96,2.08-2.92-.83-.65-1.58-1.25-2.39-1.89-.74,1.03-1.43,1.98-2.13,2.96.84.64,1.6,1.21,2.45,1.85Zm3.57-1.74c-.72,1-1.38,1.93-2.07,2.89.86.65,1.62,1.24,2.43,1.86.72-.98,1.38-1.88,2.08-2.83-.82-.65-1.59-1.24-2.44-1.91Zm-7.85,15.92c.64-.89,1.22-1.69,1.84-2.54-.81-.65-1.54-1.23-2.31-1.85-.82,1.09-1.58,2.1-2.39,3.19.99.41,1.9.8,2.87,1.2h0Zm7.34-18.49c.61-.86,1.2-1.67,1.83-2.55-.81-.66-1.59-1.28-2.42-1.95-.64.92-1.22,1.76-1.85,2.67.84.63,1.61,1.21,2.43,1.83h0Zm3.99,3.04c.62-.88,1.16-1.65,1.75-2.5-.82-.64-1.6-1.24-2.41-1.87-.63.88-1.2,1.67-1.79,2.5.83.63,1.6,1.22,2.46,1.87h0Zm-13.23,4.49c-.6.82-1.17,1.6-1.77,2.42.9.66,1.73,1.27,2.6,1.91.57-.82,1.07-1.54,1.62-2.34-.83-.68-1.61-1.31-2.45-1.99h0Zm4.72-8.98c-.64-.52-1.23-.98-1.85-1.48-.79,1.07-1.5,2.05-2.26,3.08.68.49,1.28.93,1.92,1.39.75-1.02,1.43-1.95,2.19-2.99h0Zm1.9,8.38c-.56.8-1.08,1.53-1.62,2.3.85.66,1.61,1.25,2.43,1.89.58-.81,1.1-1.54,1.65-2.31-.86-.66-1.63-1.24-2.46-1.88Zm-3.92-3.08c-.59.82-1.11,1.54-1.65,2.29.86.66,1.62,1.25,2.43,1.88.58-.79,1.09-1.5,1.65-2.26-.81-.64-1.57-1.24-2.43-1.91h0Zm3.62,8.76c-.84-.68-1.6-1.29-2.41-1.94-.57.77-1.09,1.48-1.67,2.26.84.61,1.62,1.17,2.46,1.78.54-.7,1.04-1.35,1.62-2.1Zm-5.73-17.44c-1,.99-1.87,1.99-2.54,3.2.56.39,1.06.73,1.62,1.13.79-1.04,1.56-2.05,2.37-3.1-.49-.41-.93-.78-1.45-1.23Zm12.79,10.27c-.72,1-1.37,1.9-2.05,2.85.64.48,1.21.92,1.82,1.38.72-.96,1.38-1.84,2.07-2.77-.62-.49-1.18-.94-1.85-1.46h0Zm-7.74-8.14c.68-.89,1.32-1.73,2-2.62-.64-.54-1.22-1.02-1.86-1.55-.7.95-1.36,1.85-2.05,2.77.67.49,1.25.92,1.9,1.39Zm-6.77,9.28c-.61-.51-1.15-.94-1.75-1.44-.66.91-1.27,1.75-1.91,2.63.67.47,1.24.87,1.86,1.3.61-.84,1.18-1.63,1.81-2.5h0Zm17.42-5.01c-.64.86-1.21,1.61-1.81,2.41.66.49,1.26.94,1.91,1.42.63-.81,1.21-1.55,1.82-2.35-.65-.5-1.25-.96-1.92-1.48h0Zm-7.77,10.43c.68.53,1.29,1,1.94,1.5.58-.84,1.1-1.59,1.66-2.39-.64-.48-1.24-.93-1.9-1.42-.59.8-1.13,1.53-1.7,2.31Zm-8.83-10.55c-.58.84-1.1,1.58-1.66,2.39.62.47,1.19.9,1.81,1.38.58-.81,1.11-1.54,1.66-2.32-.62-.49-1.16-.93-1.81-1.45h0Zm6.23,14.18c.69.47,1.31.89,1.97,1.34.5-.7.95-1.32,1.43-1.98-.63-.5-1.23-.96-1.89-1.48-.5.71-.96,1.35-1.51,2.12Zm11.83-6.73c-.4-.32-.77-.61-1.21-.95-.7.97-1.35,1.87-2.04,2.83.54.39,1.02.74,1.52,1.1.2-.28.36-.47.48-.68.41-.74.81-1.49,1.25-2.3h0Zm1.62-7.27c.69-.72.43-1.49.38-2.18-.05-.72-.07-1.48-.48-2.27-.67,1.01-1.27,1.91-1.91,2.88.67.52,1.31,1.02,2.01,1.57h0Zm-10.76-8.2c.42-.54.77-.96,1.09-1.41.3-.42.74-.76.95-1.45-1.13.21-2.11.39-3.1.57-.48.08-.76.36-.91.89.62.45,1.26.9,1.97,1.41Zm4.15,22.03c.73-.78,1.39-1.48,2.1-2.24-.47-.36-.92-.71-1.41-1.08-.63.82-1.21,1.59-1.82,2.38.39.32.69.57,1.14.94Zm-15.47-16.06c-.5,1.07-.92,1.99-1.37,2.94.37.25.64.43.93.63.64-.8,1.22-1.53,1.86-2.32-.45-.39-.85-.75-1.42-1.25h0Zm4.34-5.03c.41.3.81.59,1.24.9.42-.56.79-1.01,1.11-1.49.3-.45.81-.79.89-1.42-.9.12-2.43,1.08-3.24,2.02h0Zm2.14,24.29c1.03.12,1.87-.03,2.91-.27-.63-.53-1.12-.95-1.67-1.41-.43.58-.8,1.08-1.25,1.68h0Zm-9.01-9.83c.03,1.02.09,1.83.44,2.73.41-.57.74-1.02,1.09-1.49-.53-.43-.96-.78-1.53-1.24Zm24.36-4.57c-.48.68-.96,1.37-1.49,2.11.31.22.56.4.88.62.34-.95.67-1.78.61-2.74h0Zm-8.54,11.71c-.27.38-.5.72-.74,1.06.05.05.1.1.16.15.38-.23.77-.45,1.23-.72-.26-.2-.42-.32-.64-.48h0Zm-15.31-11.28c.33-.21.85-.37.22-.9-.09.36-.15.63-.22.9Z"/><path class="cls-1" d="m20.98,20.58c-.04,3.13-2.47,5.81-5.64,6.32-2.48.4-5.53-.98-6.44-3.87-.32-1.02-.38-2.04-.14-3.08.48-2.1,2.35-4.29,4.26-4.94,3.48-1.19,7.05.77,7.82,4.3.09.42.1.85.15,1.28h0Z"/><path class="cls-1" d="m6,16.44c.07-.25.17-.7.34-1.12.89-2.16,3.76-4,6.09-3.9.33.01.66.11.97.22.1.04.21.25.19.37-.01.11-.16.25-.28.3-.19.08-.41.1-.63.14-1.46.24-2.74.87-3.84,1.84-.74.66-1.34,1.41-1.4,2.49-.03.54-.41.82-.84.76-.4-.06-.61-.37-.62-1.1Z"/></svg>