<?xml version="1.0" encoding="UTF-8"?><svg id="Capa_1" xmlns="http://www.w3.org/2000/svg" xmlns:xlink="http://www.w3.org/1999/xlink" viewBox="0 0 90 90"><defs><style>.cls-1{fill:none;}.cls-2{clip-path:url(#clippath);}.cls-3{fill:#fff;}.cls-4{fill:#0f715c;}</style><clipPath id="clippath"><rect class="cls-1" x="22.3" y="16.25" width="45.4" height="57.51"/></clipPath></defs><path class="cls-4" d="m3.61,64.08c3.67,8.06,10.57,14.59,19.22,17.75,1.4.51,2.83.95,4.28,1.31,4.1,1.02,8.28,1.85,12.47,2.39,7.46.97,15.47.91,22.64-1.6,6.86-2.4,12.64-7.49,17.03-13.16,7.39-9.53,10.75-21.51,9.92-33.49-.14-2.04-.54-4.04-.83-6.05-.35-2.52-1.28-4.9-2.33-7.22-1.83-4.02-4.45-7.43-8-10.09-2.67-2.01-5.62-3.53-8.7-4.83-2.18-.92-4.39-1.76-6.62-2.53-1.67-.57-3.38-1.04-5.12-1.42-2.41-.53-4.82-1.08-7.29-1.19-3.43-.15-6.85-.03-10.25.38-3.23.39-6.39,1.19-9.5,2.17-1.91.61-3.76,1.4-5.56,2.28-3.46,1.71-6.67,3.77-9.51,6.39C8.02,22.08,3.58,31.56,1.78,41.37c-.35,1.9-.64,3.82-.86,5.74-.69,5.96.33,11.78,2.69,16.96h0Z"/><g class="cls-2"><path class="cls-3" d="m38.01,42.08c-.6-1.11-1.14-2.12-1.7-3.15-.54.05-1.11.15-1.67.16-1.31.03-2.26-.59-2.93-1.69-.7-1.15-.82-2.41-.78-3.71.06-1.88.54-3.67,1.19-5.42,1.21-3.29,2.97-6.24,5.39-8.8,1-1.06,2.11-1.97,3.42-2.62.79-.39,1.62-.66,2.5-.6,1.16.07,2.07.62,2.7,1.66.14-.08.26-.12.35-.2,1.42-1.31,3.24-1.59,4.98-.76,1.61.77,2.87,1.9,3.77,3.45,1.86,3.2,3.45,6.51,4.19,10.17.33,1.64.48,3.3.11,4.96-.44,1.99-1.86,3.43-4.41,2.81-.09-.02-.19-.01-.4-.03-.35.62-.69,1.3-1.1,1.93-.39.61-.84,1.19-1.29,1.8,2.45.57,4.74,1.4,6.83,2.68,3.63,2.22,6.25,5.33,7.6,9.37.98,2.95,1.11,6.03.79,9.13-.16,1.5-.39,2.98-.89,4.42-.74,2.15-2.03,3.93-3.83,5.3-1.05.8-2.34.94-3.58.7-2.61-.5-5.21-1.07-7.8-1.68-.93-.22-1.81-.65-2.7-.99-.64-.24-1.03-.75-1.31-1.34-.78-1.68-.37-3.99.96-5.26.48-.46,1.09-.7,1.75-.68,1.95.07,3.91.19,5.86.29.25.01.51.06.76.09.49.07.78-.18.99-.59.49-.96.54-1.97.31-3-.15-.65-.38-1.29-.57-1.93-.11-.37-.24-.78.21-1.01.41-.22.8-.03,1.02.29.32.47.61.98.79,1.52.43,1.3.5,2.65.34,3.99-.06.49-.27.99-.5,1.44-.4.77-1.01,1.18-1.95,1.09-1.76-.16-3.52-.25-5.28-.37-.51-.03-1.03-.05-1.54-.06-.96-.02-1.57.39-1.64,1.35-.06.75.08,1.53.25,2.26.07.28.41.61.71.71,1.08.39,2.17.77,3.28,1.02,1.94.43,3.9.77,5.85,1.14,1.32.25,2.44,0,3.39-1.06,1.56-1.74,2.63-3.66,2.96-6.01.34-2.42.77-4.82.31-7.26-1.14-6.06-4.41-10.41-10.32-12.6-1.44-.53-2.88-1.06-4.45-1.11-.49-.01-.89.1-1.34.36-2.76,1.61-5.63,1.72-8.43.18-1.05-.58-2.06-.58-3.14-.46-1.52.17-2.91.78-4.28,1.38-4.07,1.78-6.95,4.68-8.53,8.9-1.24,3.3-1.32,6.62-.7,10.03.21,1.16.35,2.32.88,3.42.6,1.23,1.38,2.29,2.29,3.3.82.91,1.82,1.2,2.95.99,2.68-.5,5.34-1.05,8-1.61.43-.09.83-.32,1.25-.47.69-.24,1-.78,1.1-1.45.11-.73.26-1.46-.12-2.17-.29-.55-.67-.9-1.36-.84-1.21.11-2.43.18-3.65.26-1.18.07-2.37.13-3.55.19-.59.03-1.09-.19-1.4-.69-.28-.46-.59-.94-.7-1.45-.37-1.74-.17-3.45.5-5.09.14-.34.39-.67.65-.93.25-.26.61-.38.97-.15.34.22.27.56.18.87-.2.71-.44,1.41-.62,2.12-.21.83-.17,1.65.12,2.46.36.98.63,1.11,1.65,1.03,1.82-.15,3.65-.3,5.47-.35,2.25-.07,3.77,1.48,3.79,3.76,0,.44-.06.89-.13,1.33-.19,1.17-.85,1.94-1.96,2.4-1.97.8-4.02,1.31-6.09,1.74-1.32.28-2.64.54-3.97.73-1.59.22-3.04-.06-4.27-1.22-2.01-1.89-3.25-4.19-3.74-6.89-.59-3.25-.62-6.5.02-9.75.62-3.19,2.24-5.85,4.44-8.16,2.84-2.98,6.37-4.68,10.38-5.47.12-.02.25-.05.42-.08h0Zm-.85-9.18c0,2.66.46,5.15,1.98,7.34,1.32,1.89,3.03,3.2,5.46,3.31,3.04.13,5.31-1.24,7.02-3.63,1.2-1.67,1.83-3.58,2.07-5.62.08-.64-.06-1.03-.65-1.42-3.13-2.05-5.52-4.76-7.16-8.12-.06-.13-.15-.25-.27-.43-2.12,3.59-4.76,6.53-8.46,8.58h0Z"/></g></svg>