<?xml version="1.0" encoding="UTF-8"?><svg id="Capa_1" xmlns="http://www.w3.org/2000/svg" xmlns:xlink="http://www.w3.org/1999/xlink" viewBox="0 0 90 90"><defs><style>.cls-1{fill:none;}.cls-2{clip-path:url(#clippath);}.cls-3{fill:#fff;}.cls-4{fill:#0f715c;}</style><clipPath id="clippath"><rect class="cls-1" x="16.53" y="27.27" width="56.94" height="35.45"/></clipPath></defs><path class="cls-4" d="m3.61,64.08c3.67,8.06,10.57,14.59,19.22,17.75,1.4.51,2.83.95,4.28,1.31,4.1,1.02,8.28,1.85,12.47,2.39,7.46.97,15.47.91,22.64-1.6,6.86-2.4,12.64-7.49,17.03-13.16,7.39-9.53,10.75-21.51,9.92-33.49-.14-2.04-.54-4.04-.83-6.05-.35-2.52-1.28-4.9-2.33-7.22-1.83-4.02-4.45-7.43-8-10.09-2.67-2.01-5.62-3.53-8.7-4.83-2.18-.92-4.39-1.76-6.62-2.53-1.67-.57-3.38-1.04-5.12-1.42-2.41-.53-4.82-1.08-7.29-1.19-3.43-.15-6.85-.03-10.25.38-3.23.39-6.39,1.19-9.5,2.17-1.91.61-3.76,1.4-5.56,2.28-3.46,1.71-6.67,3.77-9.51,6.39C8.02,22.08,3.58,31.56,1.78,41.37c-.35,1.9-.64,3.82-.86,5.74-.69,5.96.33,11.78,2.69,16.96h0Z"/><g class="cls-2"><path class="cls-3" d="m55.64,60.41c-.37.13-.7.25-1.03.37-4.55,1.66-9.24,2.26-14.05,1.79-4.94-.48-9.4-2.28-13.58-4.91-2.7-1.7-4.77-4.01-6.75-6.44-1.34-1.64-2.48-3.39-3.42-5.3-.38-.79-.41-1.45.08-2.21,5.08-7.86,11.87-13.45,21.1-15.59,8.5-1.97,16.48-.49,23.87,4.2,2.98,1.89,5.52,4.25,7.75,6.96,1.06,1.3,2.04,2.66,3.08,3.98.94,1.2,1.02,2.4.22,3.74-.92,1.55-2.16,2.82-3.39,4.1-3.09,3.2-6.65,5.76-10.62,7.77-.29.15-.57.3-.97.51m-1.48-1.79c5.7-2.98,10.84-6.48,14.23-12.11.24-.41.2-.93-.11-1.28-1.12-1.27-2.21-2.55-3.38-3.75-1.79-1.85-3.71-3.55-5.89-4.93-4.19-2.64-8.66-4.5-13.6-5.19-3.32-.46-6.6-.41-9.88.37-6.45,1.55-11.52,5.27-15.84,10.15-.9,1.02-1.74,2.09-2.63,3.19-.22.27-.26.65-.09.95,7.53,13.92,22.85,18.39,34.63,13.46m-1.22-1.57c-.28.16-.5.29-.73.42-2.96,1.64-6.14,2.23-9.42,1.46-5.2-1.23-8.56-4.57-10.07-9.68-1.03-3.48-.79-6.92.91-10.17,1.24-2.38,3.17-4.11,5.53-5.33,2.22-1.15,4.53-1.8,7.1-1.38,1.6.26,3.17.56,4.6,1.33,5.55,3,7.71,8.26,7.28,14.02-.19,2.6-1.2,4.98-2.88,7.03-.23.28-.45.56-.78.97m-8.22-21.24c-5.58.11-8.53,1.91-10.39,5.46-.29.55-.55,1.13-.77,1.71-2,5.35.52,11.58,5.69,14.01,2.1.98,4.33,1.48,6.6.89,7.73-2.01,10.84-10.38,6.91-16.59-2.23-3.53-5.39-5.44-8.04-5.48h0Z"/><path class="cls-3" d="m45.72,37.32c.39.08.5.61.16.82,0,0,0,0,0,0-1.21.77-1.49,2.82-1.08,3.84.25.63.63,1.26,1.11,1.72,1.63,1.59,4.31.73,4.88-1.52.03-.13.06-.25.09-.37.1-.44.72-.47.86-.04,0,0,0,0,0,0,.56,1.78.92,3.55.3,5.41-.97,2.9-2.97,4.57-5.92,5.13-3.05.58-5.23-.91-6.92-3.19-2.32-3.15-1.52-7.12.34-9.47,1.24-1.56,3.94-2.81,6.18-2.36h0Z"/></g></svg>