<?xml version="1.0" encoding="UTF-8"?><svg id="Capa_1" xmlns="http://www.w3.org/2000/svg" xmlns:xlink="http://www.w3.org/1999/xlink" viewBox="0 0 90 90"><defs><style>.cls-1{fill:none;}.cls-2{clip-path:url(#clippath);}.cls-3{fill:#fff;}.cls-4{fill:#0f715c;}</style><clipPath id="clippath"><rect class="cls-1" x="18.45" y="21.16" width="53.11" height="47.69"/></clipPath></defs><path class="cls-4" d="m3.61,64.08c3.67,8.06,10.57,14.59,19.22,17.75,1.4.51,2.83.95,4.28,1.31,4.1,1.02,8.28,1.85,12.47,2.39,7.46.97,15.47.91,22.64-1.6,6.86-2.4,12.64-7.49,17.03-13.16,7.39-9.53,10.75-21.51,9.92-33.49-.14-2.04-.54-4.04-.83-6.05-.35-2.52-1.28-4.9-2.33-7.22-1.83-4.02-4.45-7.43-8-10.09-2.67-2.01-5.62-3.53-8.7-4.83-2.18-.92-4.39-1.76-6.62-2.53-1.67-.57-3.38-1.04-5.12-1.42-2.41-.53-4.82-1.08-7.29-1.19-3.43-.15-6.85-.03-10.25.38-3.23.39-6.39,1.19-9.5,2.17-1.91.61-3.76,1.4-5.56,2.28-3.46,1.71-6.67,3.77-9.51,6.39C8.02,22.08,3.58,31.56,1.78,41.37c-.35,1.9-.64,3.82-.86,5.74-.69,5.96.33,11.78,2.69,16.96h0Z"/><g class="cls-2"><path class="cls-3" d="m61.4,68.2c-.74.13-1.4.29-2.07.37-1.07.12-2.15.17-3.23.27-.49.04-.8-.15-1.01-.57-.1-.21-.23-.42-.31-.64-1.15-2.94-3.32-5.02-5.93-6.69-1.23-.78-2.58-1.36-3.89-2.03-.3-.15-.59-.19-.94-.07-4.05,1.35-10.06-.81-11.79-5.65-.03-.08-.07-.16-.14-.29-.54.07-1.1.16-1.66.2-3.73.28-6.95-.74-9.36-3.67-1.86-2.27-2.85-4.85-2.59-7.79.3-3.43,1.58-6.46,4.14-8.89.49-.46,1.08-.86,1.67-1.18.4-.22.62-.49.8-.89,1.72-3.89,4.79-6.16,8.96-7.06,1.22-.26,2.45-.15,3.66.13.37.09.67.12.98-.18,3.53-3.43,11.45-3.39,15.05,1.36.05.07.11.14.2.25.49-.15.96-.34,1.45-.43,3.2-.58,5.96.34,8.23,2.55,2.36,2.3,3.37,5.17,3.23,8.44-.02.44-.05.88-.08,1.33,1.67,1.05,2.88,2.44,3.74,4.15,1.31,2.59,1.43,5.17.1,7.81-1.45,2.88-3.67,4.84-6.81,5.77-.29.09-.6.26-.81.48-.83.85-1.62,1.75-2.44,2.6-.29.3-.43.61-.37,1.03.32,2.31.63,4.62.93,6.93.1.75.18,1.51.28,2.39h0Zm-1.44-12.75s-.07-.09-.12-.1c-.14-.05-.28-.1-.43-.13-1.52-.36-2.85-1.08-4.05-2.05-.48-.39-.87-.89-1.25-1.38-.09-.12-.08-.45.02-.54.11-.1.39-.08.56-.02.19.07.33.24.49.37,2.37,1.86,5,2.66,7.99,1.78,3.03-.89,5.33-2.65,6.15-5.76.67-2.54.16-4.96-1.34-7.17-2.56-3.76-7.54-3.74-10.23-1.6-.9.72-1.72,1.56-2.49,2.42-.75.84-1.33,1.82-1.69,2.9-.3.89-.61,1.79-.97,2.66-.56,1.37-1.45,2.48-2.9,2.97-.93.31-1.92.51-2.9.56-2.47.13-4.76-.42-6.74-1.96-.85-.66-1.8-.99-2.94-.69-2.49.66-3.67,3.17-2.62,5.26.41.81.94,1.5,1.65,2.07.92.73,1.95,1.27,3.08,1.6,2.2.63,4.28.46,6.11-1.02.62-.5,1.19-1.08,1.77-1.63.44-.42.83-.53,1.19-.31.39.23.58.76.27,1.25-.37.59-.89,1.09-1.37,1.61-.19.2-.44.35-.72.56.67.33,1.28.58,1.83.91,2.64,1.59,4.91,3.58,6.63,6.14.17.26.34.46.7.44,1.19-.08,2.38-.14,3.64-.21-.05-.4-.08-.72-.14-1.03-.26-1.54-.52-3.08-.79-4.62-.1-.57-.08-1.1.31-1.59.44-.55.86-1.12,1.28-1.69h0Zm-27.73-6.1c.37-.5.68-.98,1.05-1.4.92-1.05,2.18-1.52,3.47-1.95.77-.26,1.53-.23,2.3,0,1.03.3,1.87.93,2.71,1.55.85.63,1.8.97,2.82,1.05.95.08,1.93.09,2.88,0,1.95-.19,3.22-1.3,3.6-3.06.3-1.39.85-2.7,1.6-3.92.2-.32.3-.59.11-.98-.34-.71-.38-1.47-.22-2.25.19-.95.33-1.92.49-2.88.23-1.43.51-2.85.65-4.28.23-2.45-.74-4.41-2.71-5.94-1.54-1.19-3.29-1.78-5.21-1.99-1.99-.21-3.74.44-5.53,1.36.38.29.66.51.94.72.68.52,1.26,1.12,1.57,1.9.99,2.43,1.51,4.91.52,7.48-.01.04.03.1.06.19.5.11,1.02.27,1.55.34,1.02.12,2.04.11,3-.32,1.24-.55,1.83-1.6,1.7-2.92-.07-.7-.34-1.3-.72-1.88-.3-.46-.24-.86.09-1.11.34-.26.82-.18,1.19.23.22.24.42.51.57.79.87,1.64.89,3.31-.09,4.89-1.04,1.69-2.64,2.54-4.66,2.53-.81,0-1.61-.15-2.42-.21-.95-.07-1.92-.21-2.86-.16-2.25.13-4.27.95-6.02,2.34-1.81,1.43-3.02,3.27-3.32,5.59-.2,1.51.11,2.92.91,4.28h0Zm9.29-14.39c.1-.84.12-1.59.29-2.3.75-3.12-2.27-6.36-4.58-6.98-1.34-.36-2.68-.31-4,.02-2.4.59-4.16,2.07-5.48,4.05-1.32,1.98-1.99,4.14-1.54,6.55.39,2.08,2.47,4.37,4.67,4.49,2.51-3.66,6.03-5.65,10.64-5.83h0Zm-10.8,16.26c-.97-1.63-1.49-3.33-1.45-5.16-2.23.18-4-.6-5.49-2.08-.49-.49-.84-1.09-.93-1.78-.04-.37.01-.76.09-1.13.06-.31.31-.55.65-.5.34.05.47.35.45.67-.05.79.39,1.35.91,1.84,1.26,1.21,2.78,1.53,4.52,1.21.15-.52.29-1.02.44-1.58-3.91-1.55-5.55-4.53-5.65-8.46-.13,0-.19,0-.24.02-.1.06-.2.13-.29.21-1.77,1.64-3.01,3.58-3.48,5.95-.24,1.24-.17,2.47.02,3.7.52,3.34,2.59,5.85,6.19,6.99,1.37.43,2.76.44,4.25.1h0Zm33.98-15.12c.06-.1.1-.15.12-.2.02-.08.03-.17.04-.26.21-2.07-.22-4-1.35-5.75-1.82-2.81-5.02-4.16-8.32-3.54-.13.02-.24.13-.37.2.24.68.47,1.31.66,1.82.77.09,1.44.08,2.06.26,1.29.36,2.3,1.14,2.97,2.29.31.54.3.91-.02,1.11-.43.27-.72.02-1.02-.26-.31-.28-.62-.56-.97-.78-.87-.55-1.81-.88-2.93-.77-.05.37-.1.68-.14,1-.1.82-.18,1.64-.28,2.46-.18,1.37-.37,2.75-.54,4.12-.04.36-.17.75.2,1.11,2.85-2.56,6.1-3.71,9.91-2.82h0Z"/><path class="cls-3" d="m59.96,50.25c-1.61,0-2.89-.58-3.93-1.65-.48-.49-.55-.96-.22-1.32.33-.36.8-.34,1.35.08.97.75,2.01,1.08,3.26.82,1.41-.28,2.64-1.87,2.79-3.54.08-.94-.15-1.81-.55-2.65-.14-.29-.31-.58-.38-.89-.05-.23-.04-.54.08-.72.19-.3.55-.24.8-.06.45.33.98.64,1.27,1.08,1.25,1.87,1.36,3.85.38,5.87-.95,1.96-3.31,3.1-4.86,2.98h0Z"/><path class="cls-3" d="m44.73,44.89c-2.17-.05-3.85-.73-4.99-2.43-.11-.17-.23-.35-.3-.54-.11-.33-.09-.67.26-.85.33-.17.64-.08.88.2.06.07.1.15.15.22,1.77,2.47,5.3,2.5,7.21.08.18-.23.32-.52.54-.7.18-.14.48-.24.71-.21.35.05.46.4.4.69-.08.4-.2.81-.41,1.15-1.03,1.74-2.72,2.28-4.47,2.39h0Z"/><path class="cls-3" d="m40.07,30.68c-.17.23-.31.58-.56.69-.25.11-.62.01-.93-.05-.12-.02-.22-.19-.32-.3-1.41-1.62-3.3-2.11-5.43-1.38-.51.17-.99.41-1.49.63-.26.11-.56.24-.72-.05-.11-.19-.12-.55,0-.73.22-.37.51-.74.86-1,2.02-1.48,5.49-1.45,7.43.33.32.3.59.66.84,1.03.14.21.19.49.32.84Z"/></g></svg>