<?xml version="1.0" encoding="UTF-8"?><svg id="Capa_1" xmlns="http://www.w3.org/2000/svg" viewBox="0 0 60 60"><defs><style>.cls-1{fill:#0f715c;}.cls-2{fill:#a2cdef;}</style></defs><path class="cls-2" d="m30.17,37.15c6.12,0,11.07-4.96,11.07-11.07s-4.96-11.07-11.07-11.07-11.07,4.96-11.07,11.07,4.96,11.07,11.07,11.07Z"/><path class="cls-1" d="m42.27,39.36c1,1.13,1.94,2.2,2.91,3.3.31-.22.55-.39.82-.58,1.81,2.06,3.58,4.09,5.43,6.2-.9,1.06-1.96,1.88-3.15,2.71-1.89-2.01-3.76-3.99-5.66-6,.27-.31.49-.56.77-.89-1.1-1.24-2.18-2.47-3.32-3.76-.35.12-.66.24-.98.35-4.31,1.57-8.76,2.14-13.33,1.69-4.68-.45-8.91-2.16-12.88-4.64-2.56-1.6-4.52-3.79-6.4-6.09-1.27-1.55-2.36-3.21-3.24-5.01-.36-.74-.39-1.37.08-2.09,4.82-7.43,11.26-12.72,20.01-14.74,8.06-1.86,15.63-.47,22.64,3.97,2.83,1.79,5.24,4.02,7.35,6.58,1.01,1.23,1.94,2.51,2.92,3.76.9,1.14.96,2.27.21,3.54-.88,1.47-2.05,2.67-3.21,3.87-2.93,3.03-6.31,5.45-10.07,7.35-.27.14-.54.28-.92.48h0ZM5.61,25.75c7.14,13.17,21.67,17.39,32.84,12.73-.39-.5-.76-.98-1.15-1.48-.27.15-.48.28-.69.39-2.81,1.55-5.82,2.11-8.93,1.38-4.93-1.16-8.12-4.32-9.55-9.16-.97-3.29-.75-6.55.87-9.62,1.18-2.25,3.01-3.89,5.24-5.04,2.11-1.09,4.29-1.7,6.74-1.3,1.52.25,3,.53,4.36,1.25,5.27,2.84,7.31,7.81,6.91,13.26-.18,2.46-1.14,4.71-2.73,6.65-.21.26-.42.53-.74.92.39.33.76.62,1.1.93.34.31.65.65,1,1.01,5.41-2.82,10.28-6.12,13.5-11.45.23-.38.19-.88-.11-1.21-1.06-1.2-2.1-2.41-3.2-3.55-1.7-1.74-3.52-3.36-5.59-4.66-3.97-2.5-8.21-4.26-12.9-4.9-3.15-.44-6.26-.39-9.37.35-6.12,1.47-10.92,4.98-15.02,9.6-.86.96-1.65,1.98-2.49,3.02-.21.26-.25.61-.09.9h0Zm25.36-10.11c-5.29.1-8.09,1.81-9.86,5.17-.27.52-.52,1.06-.73,1.62-1.9,5.06.49,10.95,5.39,13.24,1.99.93,4.11,1.4,6.26.85,7.34-1.9,10.28-9.82,6.55-15.69-2.12-3.33-5.11-5.14-7.63-5.18h0Z"/><path class="cls-1" d="m30.68,18.52c.37.08.47.57.15.78,0,0,0,0,0,0-1.14.73-1.41,2.66-1.02,3.63.24.59.6,1.19,1.05,1.63,1.55,1.5,4.09.69,4.62-1.44.03-.12.06-.24.09-.35.1-.42.69-.44.82-.04,0,0,0,0,0,0,.53,1.68.88,3.35.28,5.12-.92,2.75-2.81,4.32-5.61,4.85-2.89.55-4.96-.86-6.56-3.02-2.2-2.98-1.44-6.74.32-8.96,1.17-1.48,3.74-2.66,5.86-2.23h0Z"/></svg>