<?xml version="1.0" encoding="UTF-8"?><svg id="Capa_1" xmlns="http://www.w3.org/2000/svg" viewBox="0 0 340 680"><defs><style>.cls-1{fill:#feecb3;}.cls-2{fill:#0f715c;}</style></defs><path class="cls-1" d="m5.72,161.18c9.85-41.51,33.47-77.97,64.78-106.47C95.34,32.11,129.6,4.65,164.26,1.36c60.14-5.69,114.54,47.18,144.62,93.79,5.05,7.8,9.65,15.85,13.65,24.24,37.64,79.28,11.22,189.42-57.23,243.89-39.44,31.41-90.76,31.11-136.56,14.76-45.46-16.21-100.04-46.21-116.34-94.45C-1.47,242.51-3.68,200.5,5.68,161.21l.04-.03Z"/><path class="cls-2" d="m178.2,681.51c-1.72-76.73,3.25-153.3,5.55-229.93,2.3-76.32-.82-152.64-7.49-228.58-3.76-42.73-7.52-85.45-11.28-128.18-.27-3.09-4.57-3.11-4.3,0,6.7,76.15,14.74,152.32,17.93,228.78,3.19,76.57-.17,152.74-3,229.24-1.59,42.87-2.66,85.78-1.7,128.68.07,3.12,4.37,3.13,4.3,0Z"/><path class="cls-2" d="m177.1,139.56c-.5-9.94-1.46-19.85-2.81-29.7-1.34-9.71-3.09-19.36-5.27-28.91-1.94-8.55-4.18-17.39-9.12-24.74-.66-.97-1.36-1.92-2.1-2.84-.46-.58-1.38-.74-2.06-.55-.76.21-1.21.78-1.48,1.5-3.33,9.23-5.41,18.84-6.54,28.58-1.11,9.69-1.22,19.48-.55,29.2.68,10,2.18,19.93,4.24,29.74,2.09,9.98,4.76,19.83,7.72,29.57,2.97,9.77,6.24,19.43,9.53,29.08.42,1.21.83,2.42,1.24,3.64.37,1.1,1.45,1.82,2.61,1.5,1.05-.3,1.86-1.54,1.48-2.65-.27-.78-.53-1.56-.8-2.35,1.08-.19,1.64-1.03,1.77-2.1,1.21-9.78,2.01-19.61,2.36-29.45.36-9.84.28-19.7-.21-29.54h0Zm-17.11-3.49c.45,5.33.91,10.65,1.39,15.98.13,1.41.27,2.84.4,4.26-1.86-7.91-3.16-15.93-3.98-23.95-.58-5.64-.94-11.29-1.15-16.95,1.01,6.91,2.15,13.79,3.33,20.66h0Zm5.6,7.74c-.46-2.69-.93-5.38-1.39-8.07-.09-1.1-.19-2.18-.28-3.28-1.01-12.54-1.82-25.09-2.31-37.66.95,5.28,1.83,10.57,2.64,15.88,1.98,13.01,3.53,26.08,4.64,39.2.62,7.24,1.1,14.49,1.46,21.74-1.59-9.27-3.18-18.55-4.76-27.81h0Zm5.04,29.44c.35.71,1.03,1.22,1.88,1.22l.32-.04c-.15,2.82-.33,5.64-.54,8.46-.55-3.21-1.1-6.43-1.65-9.64h0Zm-.87-65.36c1.39,9.5,2.36,19.08,2.94,28.67.06.99.1,1.98.16,2.96-.28-3.47-.61-6.96-.96-10.42-1.38-13.68-3.27-27.31-5.62-40.86,1.36,6.51,2.51,13.06,3.48,19.65Zm-18.21-21.07c.37-4.24.95-8.5,1.74-12.71-.68,10.83-1.14,21.69-1.05,32.55.05,7.12.33,14.25.93,21.35-.62-4.02-1.12-8.05-1.48-12.1-.86-9.67-.99-19.42-.13-29.09h0Zm14.45,92.36h.17l1.11-.53c.53,3.12,1.06,6.23,1.6,9.34-.98-2.93-1.94-5.87-2.88-8.81Z"/><path class="cls-2" d="m259.83,146.15c-.22-1.9-.76-3.87-1.66-5.62-.03-.72-.11-1.43-.27-2.14-.2-.82-.99-1.42-1.8-1.53l-.86.06c-.95-.73-2.06-1.25-3.35-1.53-5.14-1.09-9.86,2.27-13.39,5.56-2.03,1.89-3.95,3.89-5.93,5.85-2.04,2.03-4.09,4.06-6.14,6.08-3.88,3.86-7.8,7.71-11.66,11.6-7.46,7.53-14.72,15.33-20.69,24.08-5.65,8.27-10.28,17.25-13.52,26.7-3.22,9.33-5.01,19.17-5.11,29.03-.02,2.19.05,4.38.19,6.57-.23,1.18-.44,2.37-.6,3.58-.3,2.23-.46,4.48-.47,6.74,0,1.12,1,2.19,2.17,2.14,1.17-.06,2.15-.94,2.16-2.14,0-1.18.05-2.36.14-3.54.04-.56.1-1.15.15-1.71l.09-.8.05-.39.02-.1.02-.13c.09-.59.18-1.17.29-1.76l.36-1.19-.03-.49c.24-1.15.52-2.3.83-3.44.62-2.23,1.37-4.44,2.24-6.59l.35-.84.15-.37.03-.06c.24-.55.49-1.12.75-1.67.5-1.08,1.04-2.15,1.59-3.2,2.22-4.22,4.82-8.22,7.7-12.02.78-1.03,1.14-1.49,2.02-2.57.76-.93,1.54-1.84,2.33-2.75,1.63-1.85,3.31-3.64,5.05-5.39,7.37-7.44,15.52-14.05,23.66-20.63,4.07-3.29,8.13-6.57,12.11-9.96,3.7-3.15,7.32-6.38,10.57-10,6.23-6.94,11.6-15.84,10.48-25.47h0Zm-23.25,22.61c.97-1.36,1.92-2.76,2.78-4.19,1.44-1.6,2.84-3.23,4.16-4.93-.09.72-.15,1.44-.16,2.17-2.19,2.38-4.45,4.7-6.77,6.96h0Zm-32.11,22.51l.34-.42.93-1.15c.65-.78,1.31-1.56,1.98-2.32.76-.87,1.54-1.7,2.33-2.54-.34.55-.68,1.11-1,1.68-.55.95-.26,1.92.38,2.54-2.4,2.52-4.79,5.05-7.17,7.58-1.75,1.88-3.51,3.75-5.21,5.67,2.11-3.67,4.47-7.22,7.07-10.59l.36-.47h0Zm8.67-13.39l.42-.52c1.94-2.43,3.98-4.78,6.12-7.03,2.01-2.12,4.12-4.17,6.29-6.12-4.01,4.37-7.84,8.89-11.31,13.7-.75,1.04-1.47,2.09-2.19,3.16l-.4-.91-.38-.36.5-.68.72-.94.22-.3h0Zm21.97-17.08l.71-.72.02.03c-.53.53-1.07,1.07-1.6,1.6l.88-.91h0Zm10.22-8.84c-.62-.16-1.31-.06-1.87.46l-.03-1.09.82-1.31c.47-.73.97-1.45,1.49-2.15l.48-.64.21-.27.76-.93c-.57,1.98-1.25,3.95-1.87,5.92h0Zm-4.59-4.76l-.81,1.35c-.54.33-1.08.67-1.63,1.01l.54-.57c.61-.62,1.24-1.21,1.9-1.78h0Zm-49.61,67.42c.26-.67.53-1.33.8-1.98l.79.26c-.77,1.17-1.53,2.37-2.28,3.56.22-.61.45-1.22.68-1.83Zm13.44-32.31l-.88.61c.42-.51.83-1.02,1.26-1.53l-.39.92h0Zm14.39,9.21l.45.46c-1.49,1.22-2.97,2.44-4.46,3.66,1.35-1.36,2.68-2.74,4.01-4.12Zm33.64-51.22l.15.11.07.07-.21.5-.19-.78.09.05.1.06Zm-72.27,94.97l.3.61-.47,1.04c.06-.54.11-1.1.17-1.64h0Z"/><path class="cls-2" d="m227.74,218.29c-3.53-.26-6.92,1.72-9.73,3.57-2.64,1.73-5.1,3.73-7.33,5.94-8.85,8.77-14.2,20.4-17.91,32.02-4.29,13.41-6.77,27.61-12.41,40.47-.7,1.58-1.43,3.16-2.23,4.69-.44.86-.24,1.93.66,2.45.8.46,2.05.22,2.5-.64.61-1.18,1.17-2.38,1.72-3.59l.75-.97c2.62-6.81,5.21-13.57,8.48-20.08,3.08-6.14,6.96-12.09,11.14-17.37,8.44-10.67,18.32-20.17,26.4-31.14.97-1.32,1.93-2.66,2.83-4.03,1.02-1.55,1.97-3.33,1.9-5.22-.14-3.51-3.39-5.85-6.77-6.1h-.02Zm-13.75,20.48c.65-1.25,1.3-2.51,1.94-3.76.3-.59.61-1.19.92-1.78.62.2,1.33.08,1.83-.37-1.63,1.92-3.18,3.91-4.7,5.91Zm-15.2,25.2l.3.51-.91,1.21c.2-.58.41-1.15.62-1.72Zm25.52-41.49c-1.48,1.42-2.96,2.84-4.45,4.27-.04-.47-.26-.91-.69-1.23l-.1-.06c1.21-.83,2.46-1.61,3.76-2.29.48-.26.97-.49,1.47-.69h0Zm-25.35,30.77c.26-.63.51-1.27.77-1.9l.22-.52.06-.13.06-.13.53-1.2c1.23-2.72,2.59-5.36,4.12-7.94.76-1.27,1.56-2.51,2.39-3.73.79-1.15,1.77-2.46,2.47-3.32.94-1.16,1.94-2.28,2.98-3.36-2.99,4.02-5.76,8.19-8.25,12.53-2.7,4.69-5.08,9.57-7.15,14.57l.18-.51c.51-1.47,1.05-2.92,1.63-4.36h0Zm31.59-27.38c-.19.47-.63,1.21-.99,1.77-.48.75-.99,1.48-1.5,2.21-2.32,3.29-4.83,6.46-7.43,9.55,1.63-2.34,3.28-4.68,4.82-7.08.38-.59.76-1.21,1.1-1.82,1.16-1.35,2.33-2.7,3.49-4.04.64-.74.74-1.8,0-2.52l-1.16-.5.03-1.08-.02-.19h.02l.09.04.1.06.44.24.33.22.33.31.59.98.07.31v.65l-.05.15-.24.77h-.02Z"/><path class="cls-2" d="m218.27,544.46c-3.1-.23-6.07,1.51-8.54,3.13-2.31,1.52-4.47,3.28-6.43,5.21-7.76,7.7-12.46,17.91-15.71,28.11-3.76,11.77-5.94,24.23-10.88,35.53-.61,1.39-1.26,2.77-1.95,4.12-.39.76-.21,1.69.58,2.15.71.4,1.8.19,2.19-.56.53-1.04,1.02-2.09,1.51-3.15l.66-.85c2.3-5.98,4.57-11.91,7.44-17.63,2.7-5.39,6.11-10.61,9.77-15.25,7.4-9.37,16.07-17.71,23.15-27.33.85-1.16,1.7-2.33,2.49-3.54.89-1.36,1.73-2.92,1.67-4.58-.12-3.08-2.98-5.14-5.94-5.36h-.02Zm-12.06,17.97c.57-1.09,1.14-2.2,1.7-3.3.27-.52.53-1.04.81-1.56.54.18,1.17.07,1.61-.33-1.43,1.68-2.79,3.43-4.12,5.19Zm-13.34,22.12l.26.45-.8,1.06c.17-.51.36-1.01.54-1.51Zm22.39-36.42c-1.3,1.25-2.6,2.49-3.91,3.75-.03-.41-.22-.8-.6-1.08l-.09-.05c1.06-.72,2.16-1.42,3.3-2.01.42-.23.85-.43,1.29-.61h0Zm-22.23,27.01c.22-.56.45-1.11.68-1.67l.19-.45.05-.12.05-.11.46-1.05c1.08-2.38,2.27-4.71,3.61-6.97.67-1.11,1.37-2.21,2.1-3.28.7-1.01,1.55-2.16,2.17-2.91.83-1.02,1.7-2,2.62-2.95-2.62,3.53-5.05,7.19-7.24,11-2.37,4.12-4.46,8.4-6.27,12.79l.15-.45c.45-1.29.92-2.56,1.43-3.82h0Zm27.71-24.03c-.16.41-.55,1.06-.87,1.55-.42.66-.87,1.3-1.32,1.94-2.03,2.89-4.23,5.67-6.52,8.38,1.43-2.06,2.87-4.11,4.22-6.22.34-.52.66-1.06.96-1.6,1.02-1.19,2.04-2.37,3.06-3.55.56-.65.64-1.58,0-2.22l-1.02-.44.03-.95-.02-.17h.02l.08.03.09.05.39.21.29.19.29.27.52.86.06.27v.57l-.04.14-.21.67h-.02Z"/><path class="cls-2" d="m179.28,275.55c-.25-.51-.52-1.01-.79-1.51.69-.37,1.18-1.11.87-1.99-3.84-10.5-8.13-20.84-12.85-30.96-4.68-10.02-9.78-19.83-15.31-29.39-5.52-9.57-11.45-18.89-17.77-27.94-3.21-4.6-6.54-9.13-9.95-13.58-3.08-4.02-6.2-8.13-10.4-11.04-4.21-2.91-10.39-4.66-14.73-1.05-3.48,2.9-3.6,8.06-2.91,12.19.35,2.1,1.03,4.13,1.73,6.12.74,2.09,1.58,4.16,2.48,6.18,1.71,3.83,3.72,7.53,5.94,11.08,4.58,7.32,10.07,14.02,15.88,20.36,5.88,6.41,12.11,12.48,18.32,18.56,6.23,6.1,12.44,12.24,18.25,18.76,1.45,1.63,2.87,3.28,4.26,4.97.68.83,1.36,1.67,2.03,2.5l.91,1.17.3.39.05.07.51.69c2.59,3.44,5,7.01,7.17,10.72,1.06,1.8,2.05,3.64,2.99,5.51.44.86,1.63,1.11,2.42.64.87-.51,1.06-1.59.64-2.45h-.03Zm-71.08-114.02l.08-.03h.39l.18.02.31.05.65.19.3.12.41.2c.48.26.95.56,1.39.9l.09.07.36.31.74.69c1.89,1.91,3.47,4.1,5.02,6.27,1.64,2.31,3.19,4.67,4.75,7.05.44.66.88,1.33,1.31,1.99-2.61-3.48-5.32-6.88-8.25-10.1-1.68-1.85-3.43-3.65-5.25-5.37-.78-.74-1.6-1.57-2.47-2.32h.02l-.02-.03Zm-6.44,2.36v-.03l.21.62c.3.54.6,1.08.91,1.61.06.91.19,1.82.33,2.71.09.52.19,1.05.3,1.56l-.05.08-.04-.07-.72-1.36-.24-.52h0v-.04s-.13-.35-.13-.35c-.28-.76-.48-1.55-.61-2.35l-.04-.46-.02-.55.04-.6.07-.27h0Zm26.18,43.37c-2.66-3.34-5.26-6.77-7.76-10.26l-.45-.93c.57.77,1.14,1.55,1.72,2.32,3.44,4.57,7,9.06,10.65,13.46-1.18-1.22-2.34-2.47-3.49-3.73l-.68-.84h0Zm-10.87-20.97c1.18,1.29,2.34,2.58,3.5,3.88,5.39,6.08,10.58,12.35,15.57,18.79,3.31,4.27,6.6,8.74,9.79,13.27-3.64-3.95-7.19-7.99-10.65-12.11-6.45-7.7-12.47-15.58-18.21-23.83h0Zm-4.26-14.33c-1.5-1.79-2.99-3.58-4.5-5.37,1.18,1.13,2.34,2.26,3.46,3.45,1.65,1.74,3.24,3.53,4.79,5.37,1.52,1.82,3.04,3.75,4.39,5.54,1.35,1.8,2.65,3.64,3.94,5.49-4.03-4.82-8.06-9.65-12.09-14.48h0Zm34.88,59.86l.38-.59c.63.5,1.25.98,1.88,1.48-.36.56-.45,1.32-.08,1.9l.49.78c-1-1.11-2.01-2.21-3.01-3.31l.33-.26Zm15.17,9.87c-1.1-1.83-2.23-3.65-3.37-5.46-1.38-3.23-2.76-6.47-4.17-9.67,1.63,3.09,3.22,6.21,4.76,9.36.94,1.92,1.86,3.84,2.78,5.78Zm-64.03-72.29l-.09-.54-.03-.18-.02-.16c.33,1.03.78,2.01,1.27,2.96l-.02.04-.34,1.18c-.18-.6-.35-1.19-.48-1.79-.11-.5-.22-.99-.3-1.5h0Z"/><path class="cls-2" d="m182.49,351.47c-.26-1.9-.67-3.74-1.2-5.55l-.06-.75c-3.56-9.5-7.13-19-10.9-28.43-3.79-9.49-7.77-18.92-12.14-28.16-4.29-9.1-8.96-18.02-14.17-26.63-2.61-4.31-5.36-8.54-8.25-12.68-2.85-4.07-5.79-8.13-9.12-11.81-3.32-3.65-7.23-7.06-11.87-8.89-2.36-.93-5.02-1.33-7.49-.69-2.26.59-4.11,2.01-5.48,3.87-2.76,3.75-3.08,8.73-2.45,13.18.71,5.08,2.87,9.88,5.38,14.31,4.75,8.36,10.76,15.98,17.21,23.09,6.45,7.11,13.41,13.73,20.38,20.33,6.93,6.57,13.94,13.09,20.41,20.13,6.19,6.74,12.03,14.34,14.84,23.05.69,2.15,1.2,4.35,1.49,6.59.13.96,1.35,1.48,2.2,1.25,1.04-.28,1.37-1.24,1.25-2.2Zm-12.33-25.51l-.46-.56.22-.06.24.62h0Zm-4.89-12.31c-.54-.69-1.08-1.37-1.66-2.04l-.16-.45c-.33-.61-.65-1.23-.98-1.84-.16-1.66-.53-3.29-1.04-4.88,1,2.33,1.97,4.66,2.93,7,.31.74.59,1.48.9,2.22Zm-23.45-33.44c.42.94.85,1.88,1.29,2.82l-.7-.59c-.64-1.16-1.28-2.31-1.93-3.47l1.14.4.2.82h0Zm-18.41-24.15c.7,1.12,1.41,2.23,2.13,3.34.66,1.2,1.33,2.4,1.99,3.6-3.19-4.47-6.39-8.93-9.58-13.39-.84-1.18-1.69-2.36-2.53-3.54-.49-.92-1-1.85-1.49-2.79,3.16,4.26,6.34,8.52,9.5,12.79h0Zm11.33,23.11c2.2,3.06,4.38,6.12,6.57,9.19-3.04-3.61-5.71-7.51-8.25-11.53.56.78,1.11,1.56,1.68,2.34Zm-5.49-24.94c2.31,4.36,4.62,8.73,6.93,13.08-2.86-3.86-5.73-7.71-8.59-11.56-.34-.62-.68-1.24-1.04-1.86-1.87-3.38-3.7-6.77-5.63-10.13l.04.04c3.05,3.24,5.76,6.75,8.27,10.42h0Zm24.42,52.26c.45.82.89,1.66,1.31,2.49-1.05-1.18-2.11-2.35-3.16-3.53-1.07-1.2-2.15-2.39-3.22-3.59,1.7,1.53,3.39,3.06,5.07,4.62Zm-29.53-65.88l-1.04-.83.19-.66c.42.45.83.9,1.25,1.36l-.4.13Zm-14.66-9.14l-.61-.24.59-.06.02.31h0Zm42.77,52.97c.67,1.35,1.33,2.71,1.98,4.08-2.06-4.13-4.2-8.23-6.39-12.28-3.04-5.59-6.22-11.1-9.53-16.54-.6-.99-1.21-1.98-1.81-2.98.4.61.81,1.23,1.2,1.84,5.36,8.34,10.16,17.02,14.56,25.9h0Zm-48.82-48.1l.04.35-.34.61.17-.59.12-.37h0Zm57.52,79.35c.29-.36.39-.83.34-1.32l.31.35.75.93.56.73c.48.63.93,1.29,1.38,1.94.59.86,1.12,1.76,1.64,2.66-1.62-1.8-3.28-3.55-4.97-5.28h0Z"/><path class="cls-2" d="m182.82,351.77c.02-.48-.16-.97-.49-1.35l-.48-.51c-.76-1.18-1.74-2.24-2.81-3.15-2.7-2.28-5.93-3.87-9.21-5.11-6.62-2.5-13.9-3.21-20.93-2.63-7.63.62-15.05,2.68-22.21,5.35-6.24,2.33-12.54,4.91-18.2,8.48-5.23,3.29-10.05,7.64-12.72,13.32-1.61,3.43-2.49,7.39-.85,10.97,1.24,2.71,3.99,4.48,6.83,5.09,3.28.71,6.49.08,9.48-1.34,3.15-1.5,5.86-3.79,8.6-5.9,6.12-4.73,12.46-9.18,18.97-13.33,6-3.83,12.25-7.46,18.89-9.72,1.67-.58,3.38-1.06,5.11-1.44,1.76-.39,3.28-.63,4.97-.78,1.61-.13,3.25-.18,4.86-.03l.53.06h.07l.26.05,1.13.22c.65.15,1.58.44,2.03.63l.34.16.53.27.87.53.25.18.4.34.07.07.32.61.09.19v.02l.17.48.13.49.06.25.02.1.02.1.02.26v.61c-.02.92.83,1.8,1.77,1.76.96-.04,1.74-.78,1.76-1.76.03-1.23-.22-2.4-.65-3.5l.02-.03Zm-77.08,15.05l.93-.14c-1.08.95-2.13,1.92-3.16,2.92.69-.95,1.43-1.86,2.23-2.77h0Zm.35,12.08l-.16.03-1.03.07-.95-.02-.47-.04-.17-.02h-.07c-.64-.12-1.27-.28-1.89-.5l-.3-.11-.27-.13-.86-.49-.31-.22-.23-.2-.68-.7-.06-.06-.04-.06-.25-.39-.23-.4-.11-.23-.03-.06-.03-.07-.32-1.14-.05-.26v-.05l-.05-.68c-.03-.94.05-1.47.25-2.32.18-.77.46-1.65.73-2.3.21-.48.45-1,.73-1.51-.26,1.07-.45,2.15-.55,3.25l-.6,1.07c-.45.82-.21,1.89.6,2.39.09.83.27,1.67.59,2.42.44,1.05,1.21,1.9,2.31,2.28,1.18.4,2.45.04,3.48-.6l.2.33,1.07.65-.27.06.02-.02Zm-3.49-3.8h.06l.02.02-.08-.02Zm1.01-2.06l-1.08.68-.17.05h.02v.02s0,.02,0,.02l-.02-.02h-.04v-.03h0l-.04-.04-.16-.29-.25-.96v-.02l-.03-.24-.02-.13c.54.49,1.45.73,2.08.26,2.11-1.58,4.26-3.12,6.43-4.62l-.51.61c-1.19.9-2.37,1.79-3.56,2.68-.9.67-1.78,1.36-2.69,2.03h0Zm12.87-1.5c-1.27.98-2.46,1.93-3.87,2.9-.68.46-1.38.91-2.1,1.32l-1.04.55-.92.43-1.06.38c3.64-2.35,7.26-4.7,10.9-7.05-.64.49-1.28.98-1.91,1.48h0Zm5.35-22.34c-3.37,1.44-6.58,3.24-9.58,5.35.36-.49.53-1.07.38-1.62l.62-.35c1.34-.73,2.7-1.4,4.09-2.05.67-.31,1.35-.62,2.03-.92l.98-.43.48-.21.17-.08.18-.08.73-.29-.07.67h0Zm22.25,3.59c-1.39.78-2.77,1.58-4.13,2.4l-.23-.94-.15-.21c2.31-.83,4.62-1.69,6.92-2.57-.81.43-1.62.86-2.41,1.31h0Zm15.13-6.49l.46-.74c.7.03,1.39.07,2.09.1-.86.18-1.71.39-2.55.62h0Z"/><path class="cls-2" d="m177.06,634.9c.01-.37-.12-.75-.38-1.05l-.37-.4c-.59-.91-1.33-1.73-2.15-2.44-2.07-1.76-4.55-2.99-7.06-3.95-5.07-1.93-10.66-2.48-16.04-2.03-5.85.48-11.54,2.07-17.03,4.13-4.79,1.8-9.61,3.8-13.95,6.56-4.01,2.55-7.7,5.9-9.75,10.29-1.24,2.65-1.91,5.71-.65,8.48.95,2.09,3.06,3.46,5.23,3.94,2.51.55,4.97.06,7.27-1.03,2.42-1.16,4.5-2.93,6.6-4.56,4.69-3.65,9.55-7.09,14.54-10.3,4.6-2.96,9.39-5.77,14.49-7.51,1.28-.45,2.59-.82,3.92-1.11,1.35-.3,2.51-.49,3.81-.6,1.24-.1,2.49-.14,3.73-.02l.41.04h.05l.19.04.87.17c.5.12,1.21.34,1.56.48l.26.12.41.2.67.41.19.14.3.26.05.05.25.47.06.15h0s.13.39.13.39l.1.38.04.19v.08s.03.08.03.08v.2s.01.48.01.48c-.01.71.64,1.39,1.35,1.36.74-.03,1.33-.6,1.35-1.36.02-.95-.17-1.86-.5-2.71v-.02Zm-59.1,11.63l.71-.11c-.83.73-1.64,1.48-2.42,2.25.53-.73,1.09-1.43,1.71-2.14h0Zm.27,9.34l-.12.02-.79.05h-.73s-.36-.04-.36-.04h-.13s-.05-.01-.05-.01c-.49-.09-.98-.22-1.45-.39l-.23-.09-.21-.1-.66-.38-.24-.17-.17-.15-.52-.54-.04-.04-.03-.04-.2-.3-.17-.31-.09-.17-.02-.04-.02-.05-.25-.88-.04-.2v-.04l-.04-.53c-.02-.72.04-1.13.19-1.79.14-.59.35-1.27.56-1.78.16-.37.35-.77.56-1.17-.2.83-.35,1.66-.42,2.51l-.46.83c-.35.64-.16,1.46.46,1.85.07.64.21,1.29.46,1.87.34.81.93,1.47,1.77,1.76.9.31,1.88.03,2.67-.46l.15.26.82.5-.21.04h.01Zm-2.68-2.93h.06s-.06,0-.06,0Zm.77-1.59l-.83.53-.13.04h.02v.03h-.01s0-.01,0-.01h-.02v-.02h0l-.03-.03-.12-.23-.19-.74h0s-.02-.2-.02-.2v-.1c.4.38,1.1.56,1.58.2,1.62-1.22,3.27-2.41,4.93-3.57l-.39.47c-.91.7-1.82,1.38-2.73,2.07-.69.52-1.37,1.05-2.06,1.57h0Zm9.87-1.16c-.98.76-1.89,1.49-2.97,2.24-.52.36-1.06.7-1.61,1.02l-.8.43-.7.33-.81.29c2.79-1.81,5.57-3.63,8.35-5.45-.49.38-.98.75-1.46,1.14h0Zm4.1-17.26c-2.58,1.11-5.05,2.5-7.35,4.13.28-.38.41-.83.29-1.25l.48-.27c1.03-.56,2.07-1.08,3.13-1.59.51-.24,1.04-.48,1.56-.71l.75-.33.37-.16.13-.06.14-.06.56-.23-.05.52h0Zm17.06,2.77c-1.06.6-2.12,1.22-3.16,1.86l-.17-.72-.12-.16c1.77-.64,3.54-1.3,5.31-1.98-.62.33-1.24.67-1.85,1.01h0Zm11.6-5.01l.35-.57c.54.02,1.06.05,1.6.08-.66.14-1.31.3-1.95.48h0Z"/><path class="cls-2" d="m269.99,312.77c-2.25-3.81-4.89-7.42-7.74-10.79-5.67-6.73-12.77-12.41-21.22-15.16-4.12-1.34-8.55-1.91-12.87-1.49-4.45.44-8.74,1.73-12.75,3.7-7.92,3.87-14.26,10.23-19.44,17.27-2.07,2.81-3.99,5.72-5.79,8.73-1.05,1.23-2.05,2.51-3,3.83-1.63,2.28-3.09,4.69-4.32,7.2-.67,1.37-1.27,2.77-1.82,4.17-.32.83-.6,1.67-.75,2.53l-.36,1.11c-.15.48-.05.99.21,1.42l-.52,1.27c-.35.88.38,2.02,1.26,2.22,1.04.23,1.84-.32,2.22-1.26,2.3-5.79,5.02-11.47,8.08-16.97l.04-.05c1.22-1.46,2.54-2.82,3.94-4.11,2.71-2.49,5.59-4.5,9.03-6.26,3.74-1.91,7.89-3.37,12.08-3.34l1.38.06.78.07.32.04.26.04c1,.16,1.99.39,2.96.67.48.14.94.29,1.41.46l.75.28.27.11.33.15c.94.4,1.85.85,2.74,1.35,3.49,1.93,6.38,4.25,9.24,6.99l.38.37.22.2.04.04c3.23,3.15,6.21,6.57,9.36,9.81,1.54,1.59,3.13,3.14,4.81,4.6,1.71,1.48,3.51,2.92,5.53,3.95,2.02,1.03,4.32,1.74,6.61,1.52,2.04-.19,3.84-.94,5.44-2.21,2.95-2.34,4.58-6.16,4.78-9.87.23-4.48-1.65-8.87-3.89-12.65h0Zm-23.06-11.09l1.07.78c.37,1.15.89,2.25,1.48,3.28.43.75.87,1.48,1.34,2.21-.92-1.03-1.82-2.07-2.72-3.12-.68-.8-1.34-1.6-2-2.4l.83-.76h0Zm9.9,8.77c1.57,1.8,2.99,3.69,4.22,5.75-1.46-1.87-2.86-3.79-4.22-5.75Zm-18.72-6.98c.74.82,1.47,1.64,2.18,2.47l-.3.14c-.68-.89-1.34-1.81-1.99-2.72l.12.13h0Zm-4.3.19c1.28,1.86,2.62,3.69,4,5.47-.63-.52-1.27-1.05-1.93-1.55-1.75-1.35-3.53-2.63-5.41-3.78.76,0,1.51-.02,2.26-.07l1.07-.08h0Zm23.11,15.91c1.44,1.42,2.88,2.81,4.38,4.19.66.61,1.33,1.2,1.99,1.8-.1.99-.05,2,.15,2.97-2.21-2.96-4.39-5.96-6.52-8.98h0Zm-12.82-27.65c4.02,1.91,7.69,4.56,10.96,7.66-3.39-2.91-7.06-5.46-10.96-7.66Zm19.74,41.94h-.02l-.41-.72-.78-.92,1.12-.45c-.05.74.48,1.48,1.13,1.75l.12.04-1.15.3Zm.41-23.32c1.21,1.77,2.4,3.56,3.42,5.45,1.03,1.89,1.8,3.66,2.27,5.79.24,1.05.34,1.78.35,2.91l-.05,1.23-.03.24v.02l-.1.51-.84-.9c.1-.56.17-1.14.21-1.72.19-2.85-.65-5.55-2.12-7.97-1.43-2.34-3.16-4.52-4.88-6.65-1.54-1.91-3.18-3.77-4.87-5.55.3-.43.42-.95.26-1.47,2.35,2.55,4.41,5.22,6.39,8.09h0Zm-44.75-7.08c-.67-.1-1.35-.15-2.02-.18l.59-.15c.56-.13,1.12-.26,1.68-.39l.81.15c1.45.27,2.9.5,4.36.65-.06.49.07,1,.47,1.48h0c-1.89-.73-3.84-1.27-5.89-1.55h0Zm35.35,26.66l.18.04.77.73-.9-.72-.06-.05h0Zm13.51.75l-.04.06.14-.93.37.15-.28.47-.18.27h0Z"/><path class="cls-2" d="m242.05,345.37c-.17-1.62-.7-3.13-1.83-4.33-1.33-1.41-3.21-1.96-5.09-2.14-3.7-.36-7.43.68-10.76,2.25-3.27,1.55-6.23,3.74-8.94,6.13-2.61,2.31-4.97,4.89-7.12,7.63-4.35,5.57-7.86,11.71-10.96,18.04-3.45,7.03-6.43,14.23-8.22,21.86-1.66,7.02-2.69,14.24-5.41,20.96-.57,1.4-1.39,3.08-2.24,4.54-.48.84-.19,1.95.65,2.45l.23.1c-.6,1.37-1.18,2.73-1.75,4.11-.36.88.39,2.01,1.25,2.2,1.05.23,1.82-.33,2.21-1.25,2.77-6.66,5.95-13.51,9.64-19.86,3.62-6.25,7.71-11.99,12.6-17.26,4.53-4.9,9.51-9.35,14.37-13.91,4.89-4.58,9.65-9.29,13.74-14.6,1.99-2.59,3.81-5.3,5.34-8.18,1.41-2.64,2.61-5.69,2.29-8.74h0Zm-15.11,15.14l.08.33c-.67.76-1.34,1.52-2.03,2.26.66-.87,1.3-1.72,1.95-2.59h0Zm-7.38,1.19c-1.2,2.02-2.46,4.02-3.71,6.02,2.33-4.16,4.73-8.29,7.16-12.39.46-.78.93-1.55,1.39-2.33.9-.96,1.8-1.92,2.72-2.88-2.95,3.53-5.22,7.64-7.57,11.57h0Zm-4.07,13.16c.58-.68,1.18-1.38,1.76-2.07l.19.24.97.49c-1.75,1.81-3.6,3.53-5.5,5.18.88-1.27,1.74-2.55,2.59-3.83h0Zm16.32-28.9l-1.05.49,1.13-1.09-.03.19-.04.41h0Zm-19.87,13.02c.51-.71.91-1.23,1.34-1.78.52-.64,1.06-1.27,1.62-1.89,1.14-1.24,2.34-2.42,3.63-3.51l1.04-.85.37-.27c-1.3,1.71-2.54,3.48-3.77,5.24-1.19,1.71-2.35,3.45-3.48,5.21-.86,1.08-1.71,2.17-2.54,3.27-1.5,1.99-2.97,4.03-4.38,6.1.29-.71.58-1.41.89-2.12,1.46-3.3,3.19-6.47,5.28-9.41h0Zm-15.45,35.99l.19-.11c1.08-.72,2.17-1.44,3.24-2.17-1.85,2.27-3.62,4.62-5.25,7.04.57-1.61,1.18-3.19,1.82-4.77h0Zm40.24-52.1l.33.18c-.47.08-.93.35-1.27.82l-.57.81c-.32-.55-.93-.96-1.56-.93l-.12.02.79-.76.4-.58h.1c.59.05,1.46.2,1.91.44Zm-39.09,37.84c.93-2.12,1.92-4.22,2.94-6.31-.22.68-.44,1.38-.66,2.07-.68,2.27-1.31,4.56-1.9,6.87-1.41,2.67-2.74,5.41-3.94,8.19-.4.91-.78,1.84-1.16,2.77.25-.99.5-1.97.79-2.96,1.05-3.63,2.41-7.2,3.92-10.62Z"/><path class="cls-2" d="m182.01,483.55l-.35-.98c.2-.63.04-1.34-.41-1.86-3.39-3.89-7.14-7.44-11.08-10.73-2.83-2.76-5.65-5.54-8.47-8.32-6.27-6.2-12.62-12.35-18.56-18.9-2.82-3.11-5.55-6.35-8-9.72-2.2-3.03-4.22-6.22-6.27-9.35-4.14-6.31-8.56-12.59-14.72-17.03-3.37-2.43-7.41-4.28-11.61-4.27-3.55,0-7.3,1.51-9.55,4.35-5.81,7.33.75,16.42,5.61,22.17.46.53.93,1.06,1.4,1.58,1.16,1.82,2.55,3.54,4.4,4.64l.15.08c3.81,3.69,7.91,7.12,11.97,10.5,6.32,5.25,12.81,10.29,19.58,14.89,6.64,4.53,13.58,8.64,20.84,12.07,3.7,1.76,7.49,3.35,11.34,4.71.78.27,1.55.54,2.33.83l1.1.44.32.13.11.05.1.04.38.17c.74.34,1.46.7,2.16,1.11l.96.62.26.18.08.06.13.11.24.2.79.77.35.41.02.03.12.17.55.94.14.33.17.51c.28.93,1.25,1.52,2.2,1.26.91-.25,1.52-1.28,1.25-2.22h0Zm-64.52-51.67l.05.09.21.46.07.14.05.15.07.21h-.02l-.36-.2-.43-.27c-.56-.49-1.11-1-1.67-1.5-.7-.67-1.39-1.36-2.05-2.06,1.38.97,2.75,1.97,4.09,2.99Zm12.13,16.21l-.21-.18c-2.49-2.18-4.91-4.44-7.27-6.76l.39.3c2.48,1.87,5.02,3.68,7.59,5.42l-.51,1.22Zm.95-5.27c-1.17-.81-2.34-1.64-3.5-2.47-2.23-1.62-4.24-3.14-6.28-4.8l.47-.76c3.19,2.55,6.3,5.23,9.31,8.03Zm-22.12-30.51l.21.79c.3.63.61,1.25.93,1.86-1.38-1.43-2.79-2.82-4.22-4.2l-.7-.66c.99.24,1.82.75,2.8,1.46l.98.73h0Zm-1.5,5.09c2.09,2.16,4.02,4.33,5.76,6.65-1.85-1.26-3.72-2.49-5.62-3.68l-.18-.09c-.84-1.43-1.63-2.9-2.35-4.42-.27-.56-.5-1.06-.7-1.54,1.04,1.01,2.08,2.04,3.09,3.07Zm-7.42-6.2l-.28-.53-.53-1.04.02-.04.41.28.44.4-.07.93Zm.97,12.72c1.75,2.28,3.57,4.51,5.44,6.69l.3,1.18v.07c-1.13-1.13-2.27-2.3-3.36-3.5-.9-1.43-1.72-2.97-2.37-4.44Zm46.2,27.83c-1.38-1.19-2.8-2.34-4.27-3.42l-.05-1.1c1.42,1.52,2.87,3.03,4.32,4.52h0Zm-45.35-45.7l.49-.05c.5-.03.99-.03,1.49,0,.85.06,1.6.19,2.55.46.91.25,1.72.55,2.47.91,4.88,2.31,8.76,6.22,12.07,10.47-3.55-3.42-7.32-6.65-11.31-9.5-2.16-1.55-5.19-2.72-7.57-1.14-.44-.36-.9-.68-1.4-.91l.82-.19.39-.06v.02Zm66.52,67.34l.23-.31.04-.07.76.75-1.03-.36h0Z"/><path class="cls-2" d="m180.59,481.17c5.53-3.1,7.28-11.12,9.71-16.51,3.18-7.02,6.57-13.96,10.58-20.57,7.79-12.83,18.26-24.45,32.12-30.85,6.77-3.13,16.18-6.09,23.56-3.59,4.86,1.65,8.12,6.82,4.97,11.43-2.14,3.14-5.98,4.84-9.51,5.91-7.63,2.31-15.68,2.79-23.38,4.81-6.53,1.7-12.4,4.7-17.74,8.81-12.89,9.95-24.65,23.69-31.37,38.54-.93,2.05,2.08,3.87,3.07,1.79,6.9-14.39,15.71-28.06,26.56-39.81,11.19-12.1,25.86-18.43,40.93-24.38,2.09-.82,1.24-4.21-.95-3.42-17.87,6.38-33.85,16.85-46.74,30.75-1.57,1.69.79,4.01,2.52,2.51,14.29-12.38,29.41-23.73,45.29-34,.64-.42,1.06-1.23.81-2-2.57-8.2-18.01,1.03-22.11,3.48-9.28,5.55-16.92,13.39-22.32,22.72-1.18,2.03,1.74,3.58,3.07,1.79,5.11-6.82,11.46-12.64,18.77-17.07,7.49-4.54,17.53-9.4,26.49-7.55v-3.42c-13.08,4.76-25.29,11.35-36.37,19.76-1.44,1.09-.68,4.09,1.37,3.24,10.82-4.46,21.83-8.87,33.73-8.8-.16-1.16-.32-2.33-.47-3.48-10.23,2.56-20.46,5.1-30.68,7.65-2.27.56-1.26,3.79.95,3.42,10.5-1.71,28,1.76,34.43-9.63,1.7-3.03,1.12-7.79-2.82-8.71-5.05-1.18-11.86,6.06-15.12,9.01-1.1,1-.27,3.14,1.25,3.03,7.79-.53,15.02-2.98,21.45-7.4,1.3-.9,1.03-3.51-.9-3.31-5.98.64-11.81,1.8-17.55,3.58.58.99,1.16,1.97,1.73,2.97,2.37-2.68,4.94-5.1,7.92-7.11,1.55-1.05,2.05-1.99,3.44-.38,1.96,2.28,1.44,7.4-2.2,7.84.42,1.01.84,2.02,1.26,3.03,3.03-2.8,5.34-7.11,3.43-11.21-1.53-3.28-5.3-4.95-8.69-3.73-2.15.77-1.22,4.2.95,3.42,2.43-.88,4.71.83,4.87,3.47.12,2.15-1.65,4.21-3.07,5.53-1.05.97-.31,3.22,1.25,3.03,7.17-.87,8.42-9.01,4.64-14.24-4.32-6-13.44,4.56-16.32,7.82-1.11,1.26-.07,3.52,1.73,2.97,5.44-1.68,10.95-2.85,16.61-3.45-.31-1.11-.6-2.2-.9-3.31-5.91,4.07-12.47,6.43-19.65,6.92.42,1.01.84,2.02,1.26,3.03,1.77-1.61,3.59-3.16,5.53-4.58.82-.6,1.66-1.18,2.51-1.74,1.57-1.59,3-1.02,4.3,1.71-.67,3.35-7.21,5.39-9.96,6.06-7.29,1.76-14.95.74-22.33,1.94.32,1.15.63,2.29.95,3.42,10.23-2.56,20.46-5.1,30.68-7.66,1.96-.49,1.52-3.47-.48-3.48-12.23-.08-23.55,4.33-34.68,8.93.46,1.08.91,2.17,1.37,3.24,10.83-8.21,22.72-14.76,35.52-19.4,1.51-.55,1.87-3.04,0-3.42-9.63-2-19.86,2.45-28.07,7.21-8.34,4.84-15.45,11.35-21.21,19.04,1.03.6,2.05,1.19,3.07,1.79,4.11-7.09,9.55-13.31,16.16-18.19,2.01-1.49,20.56-12.71,21.77-8.85.28-.67.55-1.34.82-2-16.14,10.43-31.51,21.99-46.02,34.56.84.83,1.68,1.67,2.52,2.51,12.46-13.44,27.87-23.67,45.16-29.85-.32-1.14-.63-2.28-.95-3.42-15.07,5.94-30.05,12.25-41.44,24.15-11.61,12.14-20.96,26.59-28.2,41.69,1.03.6,2.05,1.19,3.07,1.79,3.7-8.16,8.8-15.49,14.72-22.22,5.52-6.31,11.54-12.61,18.53-17.32,7.52-5.06,15.9-6.85,24.7-8.35,7.23-1.23,15.49-2.24,21.32-7.13,4.76-4.01,6.15-10.36,2.04-15.39-4.41-5.39-11.83-5.69-18.21-4.76-14.97,2.19-28.13,11.29-37.83,22.53-6.21,7.18-11.18,15.35-15.48,23.76-2.15,4.22-4.15,8.52-6.07,12.84-1.81,4.07-3.38,10.87-7.51,13.19-2,1.12-.2,4.19,1.8,3.06h.03Z"/><path class="cls-2" d="m178.82,570.03c-.46-1.66-1.13-3.22-1.95-4.71.85-.46,1.4-1.49.76-2.44-4.09-6.01-7.98-12.16-11.85-18.31-3.03-4.81-6.04-9.63-9.14-14.4-1.1-2.48-2.12-5-3.05-7.53-2.86-7.82-4.7-15.94-7.27-23.86-2.39-7.38-5.54-14.5-10.53-20.52-2.27-2.73-4.91-5.18-7.89-7.13-2.88-1.89-6.26-3.47-9.69-3.99-1.87-.29-3.84-.31-5.63.41-1.37.55-2.45,1.44-3.26,2.57-.98.85-1.54,2.1-1.64,3.48v.43c-.65,3.02-.21,6.32.79,9.18,1.3,3.73,3.46,7.08,5.84,10.21,2.65,3.48,5.51,6.83,8.29,10.22,5.79,7.07,11.59,14.13,17.38,21.2,5.77,7.04,11.54,14.07,17.31,21.11,2.88,3.51,5.77,7.04,8.66,10.55,2.6,3.16,5.21,6.06,7.3,9.52,1,1.66,1.66,3.09,2.18,4.93.26.92,1.26,1.49,2.18,1.23.92-.25,1.49-1.24,1.24-2.17v.02Zm-67.38-96.4l.42-.98.07-.03.1-.03h.3l.53.15.08.03.29.15.32.19-.77.89c-.56,0-1.14.23-1.51.65l-.02-.1-.02-.16.22-.78v.02Zm25.84,37l.15.29c.22.59.45,1.17.68,1.75l-.88-1.15c-1.01-1.31-2-2.63-3-3.94.96,1.07,1.98,2.09,3.04,3.06Zm-6.41-24.18l.15.26.1.66c-.96-1.53-1.91-3.07-2.81-4.62.44.57.87,1.15,1.28,1.73.44.66.87,1.31,1.27,1.98h0Zm16.47,30.09l.36-.4c.16.52.32,1.05.48,1.58l-.85-1.18Zm-16.53-38.47l.93.96-.21.04-.99.71-.46-.61c-.81-1.02-1.66-1.98-2.57-2.91-.96-1.04-1.96-2.06-2.99-3.03,2.36,1.33,4.31,2.88,6.28,4.83Zm-8.56,19.63c-2.57-3.12-5.05-6-7.24-9.35-.35-.53-.69-1.09-1.03-1.66.55.77,1.12,1.52,1.69,2.28,2.32,3.08,4.64,6.14,6.98,9.22l-.4-.49h0Z"/><path class="cls-2" d="m266.3,472.16c-.59-1.85-2.09-3.06-3.67-4.05-1.43-.9-3.01-1.59-4.61-2.08-3.16-.98-6.55-1.21-9.84-.98-6.83.45-13.52,2.56-19.73,5.37-6.24,2.82-12.03,6.56-17.38,10.83-5.53,4.42-10.55,9.46-15.17,14.84-4.78,5.58-9.16,11.5-13.34,17.55-1.02,1.48-2.02,2.96-3.03,4.45l-.15.3c-.33.49-.65.98-.96,1.49-.51.82-.18,1.97.64,2.46.85.5,1.94.18,2.44-.65,1.72-2.8,3.4-5.01,5.62-7.42,2.15-2.33,4.5-4.46,6.99-6.41h0l.23-.18.45-.35.99-.72c.66-.48,1.33-.95,2.02-1.41,1.33-.9,2.7-1.75,4.09-2.56.65-.38,1.32-.75,1.98-1.12.69.47,1.67.41,2.27-.2.67-.68,1.35-1.34,2.04-1.99.75-.36,1.49-.7,2.23-1.03,6.42-2.86,13.77-5.19,20.79-7.15,7.29-2.05,14.67-3.83,21.94-5.96,3.1-.92,6.3-1.99,8.91-3.97,2.65-2.02,5.38-5.45,4.23-9.03v-.02Zm-60.21,24.21c-3.86,1.87-7.61,4-11.13,6.45.74-.93,1.49-1.84,2.23-2.73.67.35,1.49.24,2.07-.32.75-.72,1.5-1.41,2.24-2.11.51.27,1.13.32,1.68-.03,1.56-.98,3.12-1.96,4.69-2.94-.6.55-1.2,1.1-1.79,1.66h0Zm10.76-4.49c.59-.45,1.18-.9,1.77-1.34,1.77-.31,3.55-.65,5.32-1.01-2.38.73-4.75,1.51-7.08,2.36h0Zm9.79-16.28c-1.98,1.04-3.93,2.16-5.87,3.3-.75.41-1.49.82-2.23,1.25,4.83-3.31,10.01-6.11,15.47-8.16-2.49,1.12-4.96,2.33-7.37,3.6Zm11.1,3.73l-.31.11.39-.15-.09.04Zm18.04-9.66c-.78-.18-1.54-.41-2.33-.69-.62-.22-1.36.05-1.81.55-.54,0-1.07,0-1.62.02l.6-.97c.73,0,1.45.03,2.18.1,1.71.15,3.49.52,5.19,1.16-.74-.07-1.47-.12-2.21-.16h0Zm7.14,4.6l-.1.41-.15.44-.15.33c-.41.81-.67,1.11-1.25,1.71l-.8.75-.27.23-.38.28-.03.02c.71-.71,1.26-1.55,1.54-2.59.22-.81-.17-1.63-.86-2.04h.79c.63-.03,1.19-.36,1.5-.88l.1.19.09.32.03.48-.04.34h0Z"/></svg>