<?xml version="1.0" encoding="UTF-8"?><svg id="Capa_1" xmlns="http://www.w3.org/2000/svg" viewBox="0 0 185 240"><defs><style>.cls-1{fill:#0f715c;}.cls-2{fill:#7fbaaf;}</style></defs><path class="cls-2" d="m79.27,18.41c1.77-4.1,4.23-7.96,7.44-10.99,3.16-2.99,7.22-5.44,11.58-5.64,9.19-.43,14.2,9.82,16.57,17.56,2.58,8.48,3.08,17.54,2.42,26.37-.71,9.5-2.67,18.9-5.16,28.06-2.74,10.05-6.31,19.85-10.61,29.29-2.16,4.73-4.54,9.35-7.05,13.89-2.47,4.48-5.03,8.92-7.33,13.5-1.09,2.18-2.13,4.39-3.05,6.66-.08.48-.38.78-.76.9-.24.12-.52.15-.82.06-.53-.16-1.01-.8-.92-1.41-.27-9.84-1.99-19.54-3.83-29.17-1.86-9.76-3.85-19.51-4.77-29.43-.93-9.89-.93-19.89-.02-29.78.46-5.02,1.16-10.03,2.08-14.98.95-5.1,2.19-10.14,4.24-14.89h0Zm.06,25.72l.2-.1c.11-.76.22-1.51.35-2.26.21-1.29.44-2.57.7-3.86-.46,2.07-.88,4.14-1.24,6.22Zm19.25,31.72c.64-1.28,1.34-2.53,2.19-3.65-.89.55-1.8,1.09-2.71,1.62.02.82,0,1.63-.05,2.44.19-.14.38-.27.57-.41Zm.03-20.8c.06.42.11.83.15,1.25.55-.48,1.08-.97,1.61-1.48.23-.54.46-1.08.68-1.62-.23-.54-.33-1.13-.38-1.72-.69,1.19-1.37,2.38-2.06,3.56h0Zm-6.03,25.57c.42-1.51.87-3.02,1.34-4.51-.24.12-.47.24-.71.37-.18,1.39-.4,2.77-.63,4.15h0Zm-.92-19.45l.03-.09c0-.5-.01-1.01-.02-1.51-.23.38-.47.75-.71,1.12.18.22.29.5.28.82l-.09.45.35-.23c.05-.19.1-.38.16-.57h0Zm1.69-13.75c.07.59.14,1.18.2,1.77l.02.02c.05-.37.11-.73.15-1.09-.12-.23-.25-.47-.37-.7h0Zm3.87,17.8c-.65.75-1.59,1.24-2.57,1.31-.2.12-.39.25-.58.38-.03.68-.07,1.35-.12,2.03.44-.47.88-.95,1.32-1.43.76-.82,1.51-1.65,2.24-2.48l-.29.2Zm-3.03-2.07c.45-.25.9-.5,1.34-.76.14-.19.28-.38.42-.57-.58.42-1.17.83-1.76,1.23v.09s0,0,0,0Zm3.33,7.5l-.32.1c.16.08.31.18.42.31l.09-.05-.19-.36h0Zm-2.05.92l.12-.26-.53.21c-.46.48-.94.94-1.43,1.39l-.04.44c.52-.28,1.04-.56,1.56-.85.11-.31.21-.62.33-.92h0Zm2.25-46.42c-.16.5-.32,1.01-.48,1.51l.41-.31c.02-.38.05-.75.07-1.12v-.07Zm.38,18.21c.26-.64.51-1.29.76-1.94-.17.18-.34.36-.51.54-.08.47-.17.94-.25,1.41h0Zm-8.14,37.78c-.38.02-.75-.14-1.01-.42.02,1.68.01,3.35-.01,5.03v.47c.37-1.68.72-3.37,1.02-5.08h0Zm-5.54-16.59c-.35.38-.71.76-1.07,1.13.06.24.11.48.16.71.3-.62.6-1.24.91-1.85h0Zm-.31-21.04c-.1.24-.19.49-.29.73-.03.23-.07.46-.1.7.13-.47.26-.95.39-1.43Zm1.69,9.33l-.12.13c.03.34.07.68.11,1.01,0-.38,0-.76,0-1.14Zm15.14-34.35c.27,1.37.51,2.75.71,4.13.27-.36.55-.73.82-1.09-.23-1.45-.49-2.89-.79-4.33-.25.43-.5.86-.75,1.29h0Zm-1.29,14.18c-.05.44-.1.89-.15,1.34.23-.35.45-.7.67-1.05-.02-.37-.04-.74-.07-1.11-.15.28-.3.55-.45.82h0Zm-17.63,24.66c.45-.51.96-.98,1.49-1.43l-.06-.47c-.74.82-1.48,1.63-2.22,2.45l.08.4c.22-.33.45-.65.72-.96h0Zm21.07-31.27c-.27.55-.55,1.09-.82,1.64.05.51.1,1.03.14,1.54.29-.5.57-1.01.85-1.53-.05-.55-.11-1.1-.16-1.65Zm.45,6.28c-.27.45-.54.9-.82,1.34v.19s.09.03.09.03c.25-.23.5-.45.76-.67,0-.3-.02-.6-.03-.89h0Zm-.52,4.89l-.12.37c0,.29.02.57.03.86.19-.23.39-.45.6-.67.01-.36.03-.72.04-1.08-.18.17-.37.34-.55.52Zm2.86,3.24l.24.34.14.34.07-.14c.02-.19.05-.37.07-.56-.15-.14-.31-.28-.48-.4l-.03.41Zm-12.37,50.48c-.42-.3-.67-.83-.48-1.4.38-1.16.79-2.3,1.21-3.45.09-.62.18-1.24.27-1.87l-.32.15c-1.62,6.18-3,12.44-4.7,18.6.05.74.11,1.48.2,2.21.72-1.86,1.49-3.7,2.28-5.53.57-2.9,1.08-5.8,1.54-8.72Zm10.09-77.6l-.06.12c.04.29,0,.59-.16.85-.11.18-.22.37-.33.56.31.06.61.26.81.63.14.26.28.53.41.8-.22-.99-.44-1.97-.67-2.96h0Zm2.21,14.96c.08.98.14,1.95.18,2.93.18-.14.35-.27.53-.41-.07-1.11-.17-2.21-.3-3.32-.14.27-.28.53-.42.8h0Zm.26,6.14c0,.91-.01,1.82-.03,2.73l.07.03c.17.07.33.15.49.24.05-1.16.06-2.31.05-3.47-.19.16-.39.31-.58.47Zm3.09,2.5l.04-.03-.04-.16v.19Zm-12.98,53.06l-.06.41c.09-.21.19-.42.29-.63l-.22.22Zm5.39-80.08l-.22.13c.03.3-.05.6-.21.87.23.21.39.5.42.83.26-.56.5-1.13.72-1.71l-.35-.33-.37.2Zm5.98,7.78c-.23-.51-.48-1.03-.72-1.54.12.58.25,1.15.37,1.73l.42-.05-.06-.14h0Zm3.5,16.17l.06-.27.04-.22.02-.19c.01-.17.03-.4.03-.61-.04-.27-.07-.54-.1-.8v-.02s-.01-.03-.01-.03l-.12-.23-.05-.05.04.03h0s-.05-.04-.05-.04l-.07-.03-.08-.03-.36.06c.24.81.46,1.63.67,2.45Zm-24.77,71.13c.01-4.35-.28-8.69-.78-13-.08,3.5-.15,7.01-.23,10.52,0,.29-.11.57-.28.8.03,1.84.05,3.69.08,5.54.43-1.27.83-2.56,1.21-3.85Zm7.66-94.26l.13.07c.14-.15.29-.3.43-.46.15-.16.3-.34.45-.5-.33.29-.67.57-1.01.85v.04Zm6.25-3.1l-.12.15c.61-.35,1.24-.69,1.86-1-.27-.2-.53-.39-.8-.58-.25.51-.6.99-.94,1.43h0Zm8.74,13.47c-.13.77-.42,1.52-.74,2.27.14.86.26,1.73.37,2.59.36.98.71,1.97,1.03,2.97.34-.1.68-.17,1.03-.17-.29-1.68-.62-3.36-.97-5.01-.13-.59-.27-1.18-.4-1.77-.1-.29-.22-.58-.32-.87Zm-5.94,59.8c-.2.49-.4.99-.6,1.49.25-.49.5-.97.76-1.46l-.15-.03Zm-17.66,40.66c.43-1.02.86-2.04,1.29-3.06-.4.33-.95.3-1.37.05.02,1,.06,2.01.09,3.01h0Zm-2.89-19.79c-.13-.44-.23-.88-.33-1.33.1.97.2,1.93.31,2.9l.04.37c0-.65-.02-1.29-.03-1.94h0Zm3.02,23.37c.02.57.04,1.15.07,1.72.35-.67.69-1.34,1.03-2.01-.29.27-.72.37-1.1.29Zm25.65-58.08l-.03.24c-.23,1.19-.5,2.37-.78,3.55.41-1.56.79-3.14,1.16-4.71-.11.31-.23.62-.35.92Zm-16.26,39.16c-.46.82-.93,1.64-1.4,2.47-.71,1.69-1.42,3.39-2.13,5.08-.64,1.51-1.27,3.02-1.9,4.53-.61,1.61-1.26,3.21-1.96,4.78,2.14-4.25,4.16-8.57,6.08-12.94.94-2.15,1.85-4.3,2.73-6.47-.47.85-.95,1.71-1.42,2.56Zm-12.13,11.95c-.25-.11-.47-.3-.6-.54.26,1.59.5,3.19.72,4.79-.05-1.42-.09-2.83-.12-4.25h0Zm-6.55-41.41c-.17-.88-.2-1.8-.23-2.69,0-.18-.01-.37-.01-.55-.2.15-.44.24-.71.23h-.06c.39,5.61,1.11,11.19,2.02,16.73-.63-4.55-1.03-9.14-1.01-13.72h0Zm-.18-27.71c.02-.18.06-.35.08-.53-.17-.23-.27-.51-.27-.81,0-1.09.02-2.18.08-3.27-.62,5.31-.97,10.66-1.06,16.01.3-3.81.65-7.62,1.18-11.41h0Zm12.77-40.07l.29.15c.41-.5.83-.98,1.27-1.44-.54.41-1.06.84-1.57,1.29h0Zm21.92,6.13l-.07.08.16.13-.03-.08-.06-.14h0Zm3.62,35.33c-.19.59-.41,1.17-.64,1.75,0,1.18-.05,2.36-.13,3.54.14-.85.28-1.69.4-2.54.13-.91.25-1.83.37-2.74h0Zm-5.49,25.7c-.7,2.21-1.47,4.39-2.32,6.54-1.07,3.41-2.2,6.79-3.4,10.15,1.48-3.73,2.84-7.51,4.08-11.34.57-1.77,1.12-3.56,1.64-5.35Zm-30.2-47.68c-.35,1.43-.66,2.87-.95,4.31.35-1.34.74-2.67,1.18-3.99.36-2.27.91-4.49,1.63-6.64-.74,2.06-1.35,4.18-1.86,6.31Z"/><path class="cls-2" d="m2.57,75.96c1.19-3.71,3.37-7.12,6.32-9.56,2.89-2.39,6.47-3.9,10.21-3.69,4.75.28,9.01,2.95,12.51,6.14,3.29,3,6.01,6.64,8.48,10.38,2.39,3.62,4.49,7.46,6.31,11.41,3.7,8.02,6.34,16.55,8.21,25.22,2.07,9.61,3.23,19.39,4.09,29.19.89,10.1,1.56,20.22,2.16,30.35.15,2.52.29,5.03.43,7.55.01.28-.08.54-.24.76l-.14.18-.37.25-.04.02h0s-.46.1-.46.1l-.18-.02c-.27-.04-.53-.16-.72-.39-6.09-7.63-12.41-15.07-18.55-22.67-6.02-7.45-11.75-15.12-17.18-23.05-4.96-7.24-9.68-14.7-13.54-22.64-1.94-3.98-3.65-8.08-5.06-12.3-1.43-4.28-2.61-8.69-3.16-13.2-.58-4.68-.51-9.52.94-14.04h0Zm40.93,80.11c.22.02.44.1.62.24-.14-.22-.28-.45-.41-.68-.04.16-.11.31-.21.44h0ZM7.22,89.32l.03.1c.2-2.02.38-4.05.53-6.07-.22,1.13-.43,2.25-.62,3.39-.04.76-.06,1.52-.05,2.28l.12.31h0Zm3.68-16.7c.17-.17.34-.35.51-.52l-.5.28v.25s0,0,0,0Zm-.08,2.09c-.02.36-.03.73-.05,1.09.07-.32.15-.64.23-.96l-.17-.13Zm3.51,1.92l-.3.14c-.16.07-.34.1-.52.11-.12.82-.23,1.65-.34,2.47.32-.69.65-1.37.99-2.05.06-.22.12-.45.18-.67h0Zm4.8,22.81c.61-1.6,1.13-3.22,1.59-4.86-1.02,2.58-2.09,5.13-3.23,7.66.03.38.06.77.09,1.15.52-1.31,1.05-2.62,1.54-3.94Zm-5.01-.68c.05-.19.1-.37.15-.56.04-.24.07-.49.11-.73-.12-.68-.29-1.35-.64-1.92l-.03-.05c-.11.76-.21,1.51-.29,2.28.24.32.48.65.71.98h0Zm9.57-17.74c.23-.01.47.03.68.14l.14-.02c-.22-.34-.44-.68-.65-1.03-.06.3-.11.61-.17.91h0Zm9.81,38.72c-.36.77-.71,1.54-1.08,2.3l.22.14c.38-.8.74-1.61,1.08-2.42l-.23-.03Zm-5.43-2.42c.04-.61.07-1.22.09-1.83-.01-.39-.03-.78-.05-1.17-.38.87-.77,1.72-1.17,2.58l.06.48c.32.44.65.89.97,1.33.04-.47.08-.93.11-1.39h0Zm.33-28.21c.17.63.34,1.26.5,1.9.21.58.41,1.16.61,1.74-.2-.85-.42-1.7-.65-2.55-.13-.45-.26-.9-.4-1.35l-.05.26h0Zm10.92,20.22c-.08.55-.16,1.09-.27,1.63.13-.22.26-.44.39-.66-.04-.33-.08-.65-.13-.97Zm.14,6.24c-.45.94-.88,1.89-1.31,2.85l.05.09c.45-.93.88-1.86,1.3-2.81l-.04-.12h0Zm-11.66-28.47l.12.07c-.3-.88-.61-1.76-.95-2.63l-.02-.02-.15-.18c.36.91.69,1.83.99,2.76h0Zm-3.6,3.58l.19-.02c-.02-.18-.03-.36-.05-.53l-.02-.18c-.04.24-.08.48-.12.73h0Zm-11.32-8.79l-.03-.03-.03.23.05-.2h0Zm18.74,6.99c.44,1.16.85,2.34,1.24,3.52-.24-1.35-.53-2.7-.88-4.02-.07.2-.19.37-.36.5Zm9.92,33.08l-.02-.06c-.19.69-.39,1.38-.63,2.06,1.22,2.68,2.33,5.42,3.35,8.19-.79-3.43-1.69-6.83-2.71-10.2Zm-1.76,5.76c.6,1.62,1.23,3.22,1.81,4.81.72,1.95,1.45,3.9,2.18,5.84-1.21-3.6-2.52-7.16-3.99-10.65Zm-14.9-6.87c-.19.35-.39.7-.59,1.04.03.22.05.44.08.66.26.32.52.64.77.96-.08-.89-.17-1.77-.26-2.66Zm10.03-34.41c-.33-.92-.68-1.84-1.05-2.75-.11-.26-.23-.52-.33-.77l-.17-.22c-.16-.2-.32-.4-.49-.6.7,1.44,1.39,2.88,2.05,4.34Zm3.03,43.54c-.18.26-.37.51-.56.77.95,1.78,1.9,3.56,2.83,5.35-.77-2.03-1.53-4.07-2.27-6.12Zm11.09,20.18l-.24.09c-.19.05-.37.05-.54.01.58,1.51,1.15,3.03,1.73,4.55v-.02c-.34-1.54-.65-3.09-.94-4.64h0Zm-28.81-40.85c-.12.14-.23.29-.35.44.2.51.4,1.03.6,1.55-.08-.66-.16-1.32-.25-1.99Zm2.26-38.38l.07.22.07-.11-.1-.17-.04.06Zm7.29,5.57l.34.15c-.33-.41-.65-.81-.98-1.21.22.35.43.71.63,1.07Zm-6.19,50.25h-.08c.19.33.37.64.56.96-.15-.32-.31-.64-.47-.96Zm-3.73-9.4c-.55-1.78-1.14-3.55-1.78-5.29-.13.17-.25.33-.38.5.62,1.56,1.23,3.13,1.79,4.72.08.22.15.45.23.67.05-.2.09-.4.14-.6h0Zm-9.37-18.2l-.03-.14c.04.25.08.5.11.74-.03-.2-.05-.41-.08-.61h0Zm6.89-27.55c-.17.18-.35.36-.54.55l.12.04.18-.12c.14-.21.27-.42.41-.64l-.17.17h0Zm8.43-.99l-.16-.14.15.19v-.05s0,0,0,0Zm22.14,62.85l.38-.17c-.39-3.23-.89-6.44-1.6-9.6.41,3.26.81,6.51,1.23,9.77h0Zm-.72-17.96l-.02-.04c-.22-.69-.45-1.38-.68-2.08.02.37.04.74.05,1.12.42,1.08.8,2.18,1.14,3.28-.16-.76-.32-1.52-.5-2.28h0Zm6,33.14c-.07-1.13-.15-2.25-.23-3.38l-.02-.18c-.3-1.02-.7-2.04-1.22-2.97.51,2.17,1,4.34,1.47,6.52ZM13.86,109.63c-.07.17-.12.34-.19.5l-.03.06c.35.51.7,1.02,1.04,1.54-.28-.7-.55-1.4-.82-2.1Zm38.1,25.77c0,.93-.04,1.87-.08,2.8.23.17.43.37.63.59.13-.41.5-.74.88-.85-.46-2.24-.96-4.46-1.5-6.68.05,1.38.08,2.76.07,4.15Zm-9.77,21.54l.17-.35c-.29-.02-.57-.13-.75-.38.2.24.39.49.59.73h0Zm-6.46-8.62c1.86,2.69,3.81,5.31,5.85,7.86-1.9-2.65-3.82-5.3-5.85-7.86Zm-17.48-82.99h.02s-.03-.01-.03-.01h0Zm34.02,51.66l-.08.02.03.5c.24.9.48,1.8.7,2.71-.21-1.08-.42-2.15-.65-3.23h0Zm3.11,23.85c.25,1.12.5,2.24.74,3.36-.11-1.19-.22-2.38-.34-3.58l-.39.21Zm1.84,27.53c.05.24.09.48.14.72.3,1.51.59,3.02.88,4.53-.11-1.89-.23-3.78-.35-5.66-.18.22-.42.36-.67.41Zm-1.41,5.93c-.35.07-.74-.02-1.1-.35-.47-.43-.95-.87-1.42-1.32.96,1.16,1.92,2.33,2.87,3.49-.12-.61-.24-1.22-.36-1.83h0ZM9.72,108.23l-.03-.08-.11-.4-.45-.09c.15.37.3.73.45,1.09.04-.17.08-.35.14-.52h0Zm-4.89-15.11l-.14-.05c.1.5.2,1,.31,1.49-.06-.48-.12-.96-.17-1.45h0Z"/><path class="cls-2" d="m96.02,138.42l-.02-.04c-.12-.29-.12-.6-.03-.91l.1-.31c3.74-8.53,7.49-17.06,11.62-25.38,3.96-7.96,8.28-15.75,13.26-23.07,4.7-6.9,9.96-13.42,15.93-19.16,2.97-2.86,6.12-5.52,9.42-7.95,3.22-2.36,6.61-4.46,10.28-5.94,7.2-2.9,16.07-2.79,22.05,2.89,5.06,4.81,6.08,12.63,4.42,19.27-1.93,7.75-7.58,13.76-13.59,18.4-6.99,5.39-14.71,9.74-22.23,14.27-7.63,4.59-15.29,9.13-23.11,13.36-3.92,2.12-7.89,4.16-11.9,6.1-3.47,1.67-7.09,3.14-10.31,5.33-1.39.95-2.67,2.07-3.76,3.37l-.3.31c-.24.18-.56.23-.86.18h-.07s-.07-.03-.07-.03l-.34-.13-.06-.04-.04-.03-.14-.13h-.01s-.03-.05-.03-.05l-.11-.15-.07-.15h0Zm60.01-75.33c-.62.63-1.24,1.25-1.87,1.86,1.06-.7,2.11-1.41,3.17-2.11-.17-.05-.34-.1-.5-.16-.18-.06-.33-.15-.45-.25-.04.23-.15.46-.34.66Zm-13.73,8.9c-.33.3-.65.59-.98.9.54-.43,1.07-.86,1.6-1.29-.2.13-.41.27-.62.4Zm-4.55,2.94l-.04.1c-.14.28-.28.56-.42.84l.13.03c.73-.54,1.45-1.09,2.17-1.65-.23.04-.45,0-.65-.09-.39.25-.79.51-1.18.77h0Zm21.88-10.54c-.22.25-.44.51-.66.76.71-.47,1.43-.93,2.17-1.36-.38-.07-.76-.14-1.13-.23-.03.3-.15.59-.37.84Zm-9.35,21.79c.06-.19.17-.37.35-.52l.41-.37c-1.06.55-2.11,1.09-3.17,1.62.14.13.25.29.33.47.7-.39,1.4-.8,2.09-1.2Zm-3.25,10.88l-.44.2c-.45.39-.89.79-1.34,1.17-.2.17-.4.33-.59.5.8-.6,1.59-1.21,2.37-1.83v-.03s0,0,0,0Zm-1.39-17.05c-.19.35-.38.71-.56,1.06.81-.51,1.6-1.03,2.39-1.55.05-.39.27-.77.62-.95.87-.45,1.75-.87,2.64-1.28,1.59-1.13,3.14-2.3,4.68-3.51-.3.11-.59.21-.89.3-3,1.91-5.94,3.91-8.87,5.94h0Zm-9.83,12.46c-1.2,1.52-2.39,3.04-3.6,4.55.54-.44,1.08-.88,1.62-1.31.67-1.07,1.33-2.15,1.97-3.24Zm-7.39,10.97l-.02.27c.16-.21.31-.42.46-.64l-.44.37Zm5.86-.46l-.14.13.05-.04.08-.09h0Zm2.68-20.06l-.05-.12c-.08.15-.15.3-.24.46l.29-.34h0Zm2.76,7.87c-.13.23-.26.46-.39.69l.04-.03c.65-.47,1.3-.93,1.96-1.39-.54.24-1.07.49-1.6.74Zm-4.01,6.69c-.28.44-.55.88-.84,1.32.98-.97,1.95-1.95,2.91-2.94-.69.54-1.39,1.08-2.07,1.63h0Zm12.14-4.78c.58-.52,1.16-1.03,1.72-1.56-.42.17-.84.33-1.27.48v.02c-.15.36-.3.71-.46,1.05h0Zm2.89,1.91c.16-.17.31-.35.47-.53,0-.46.24-.9.64-1.18.32-.22.63-.44.95-.67.4-.48.78-.97,1.14-1.48-.79.59-1.54,1.28-2.27,1.95-.74.68-1.48,1.35-2.23,2.02.13.18.21.4.24.65l.23.04.3-.22c.17-.19.35-.39.52-.58Zm-11.59-16.58l-.07.17c1.5-1.01,2.98-2.04,4.45-3.09-.87.58-1.75,1.16-2.62,1.74-.59.39-1.17.78-1.76,1.17Zm28.89-12.85c1.1-.24,2.17-.56,3.23-.96-1.09.27-2.17.6-3.23.96Zm-.64,8.89c1.29-1.1,2.54-2.26,3.75-3.47-.78.7-1.56,1.39-2.32,2.09-.49.45-.99.9-1.48,1.35l.05.03h0Zm-9.14,13.87c1.23-1.06,2.43-2.17,3.58-3.31-1.29.84-2.6,1.66-3.92,2.43.23.23.37.54.34.89h0Zm6.46-15.5c.16.02.31.08.44.17.73-.67,1.47-1.35,2.2-2.03-.88.62-1.76,1.24-2.64,1.85h0Zm-3.26,9.36c1.39-.93,2.76-1.9,4.11-2.88,1.19-.86,2.37-1.75,3.55-2.64.21-.29.42-.58.63-.87-2.62,2.31-5.42,4.41-8.29,6.38h0Zm12.64-19.29l-.18.08-.03.24.37-.26-.16-.06h0Zm-12.2,32.26c2.6-2.62,5.26-5.17,7.99-7.64-.24-.28-.34-.6-.32-.93-.16.2-.32.41-.49.61-3.36,4-7.23,7.45-11.46,10.38l.08.07.16.21c1.38-.85,2.73-1.75,4.04-2.71h0Zm-41.54-.37c1.08-1.73,2.17-3.45,3.29-5.15-1.56,2.27-3.07,4.58-4.52,6.93.4-.6.81-1.19,1.22-1.78Zm11.62-15.74c.26-.37.53-.74.79-1.11-.32.36-.64.72-.96,1.08l.16.03h0Zm48-13.48h.06s-.07-.16-.07-.16v.16s0,0,0,0Zm1.09,8.64c0,.36,0,.71-.02,1.07.08-.52.13-1.04.17-1.56-.05.17-.1.33-.16.5h0Zm-20.9,25.28c-1.96,1.27-3.98,2.42-6.07,3.41-1.05.94-2.11,1.86-3.2,2.74,3.28-1.98,6.56-3.97,9.79-6.05-.18,0-.36-.03-.51-.1h0Zm-31.99,19.42l-.36.33c.37-.21.74-.42,1.11-.63-.25.1-.5.2-.75.29Zm-24.67,12.63l-.11.2.26-.14-.15-.06h0Zm47.96-69.94c-.19.12-.37.24-.56.36l.37.27.15.2.33-.2.21-.12c.4-.53.82-1.05,1.26-1.54-.59.33-1.18.68-1.76,1.04h0Zm20.25-3.85c.01.22-.02.44-.1.63.89.17,1.78.35,2.67.53-.58-.34-1.18-.64-1.81-.89-.25-.1-.5-.19-.75-.28h0Z"/><path class="cls-1" d="m61.2,243.25c11.74-49.61,18.54-100.27,27.01-150.55,2.42-14.35,4.98-28.67,7.81-42.93.49-2.47,4.11-1.38,3.63,1.08-9.96,50.17-16.39,101-25.91,151.26-2.68,14.14-5.61,28.22-8.92,42.22-.58,2.46-4.2,1.37-3.63-1.08Z"/><path class="cls-1" d="m62.12,238.76c2.08-39.75-8.14-78.55-20.76-115.7-3.58-10.55-7.37-21.02-11.18-31.49-.86-2.37,2.8-3.31,3.65-.97,13.46,37.05,26.98,74.69,31.12,114.33,1.17,11.25,1.53,22.57.94,33.87-.13,2.52-3.9,2.49-3.77-.04h0Z"/><path class="cls-1" d="m164.47,79.09c-23.92,19.28-48.05,38.77-68.05,62.56-5.72,6.8-11.04,13.95-15.88,21.46-1.35,2.09-4.58.06-3.22-2.05,17.1-26.51,40.02-48.04,63.81-67.89,6.85-5.72,13.79-11.32,20.73-16.92,1.9-1.53,4.53,1.29,2.61,2.84Z"/></svg>