<?xml version="1.0" encoding="UTF-8"?><svg id="Capa_1" xmlns="http://www.w3.org/2000/svg" viewBox="0 0 185 240"><defs><style>.cls-1{fill:#0f715c;}.cls-2{fill:#7fbaaf;}</style></defs><path class="cls-2" d="m179.21,28.71c-11.68,1.1-22.73,5.03-33.11,10.3-5.17,1.96-10.24,4.17-15.18,6.64-10.71,5.36-20.84,11.87-30.15,19.41-9.54,7.73-18.21,16.55-25.76,26.25-.54.68-1.06,1.37-1.58,2.06-4.32,4.53-8.36,9.31-12.01,14.43-4.87,6.83-8.97,14.22-12.09,22.02-3.2,8.01-5.4,16.41-6.89,24.9-3.06,17.39-3.17,35.14-3.22,52.74,0,2.2-.01,4.42-.02,6.61,0,.41.11.81.32,1.12-.26,9.24-.19,18.5-.3,27.69-.03,2.22-.06,4.44-.08,6.66-.01.88.5,1.69,1.43,1.8.81.09,1.8-.55,1.8-1.44.1-8.89.19-17.78.32-26.67.08-5.73.2-11.46.51-17.19,5.35-12.36,13.21-23.24,22.36-33.06,9.49-10.17,20-19.34,29.87-29.15,10.76-10.69,21.04-21.86,30.79-33.47,9.74-11.59,18.97-23.62,27.63-36.05,8.66-12.43,16.78-25.23,24.28-38.39.95-1.67,1.89-3.33,2.82-5.01.66-1.18-.68-2.32-1.77-2.22h0Zm-103.04,69.67c10.73-11.95,23.62-21.76,37.22-30.26-1,.99-2,1.99-2.99,3-9.92,5.4-18.94,12.34-26.93,20.32-9.06,9.04-16.83,19.28-23.53,30.16.41-.84.83-1.68,1.26-2.51,4.18-7.43,9.3-14.37,14.98-20.71Zm-19.65,66.12c-.53.41-1.05.81-1.58,1.21l.03-.1c.83-1.05,1.66-2.11,2.48-3.16-.32.68-.63,1.36-.93,2.05h0Zm-2.59,5.98c-.21.48-.41.96-.61,1.45.1-.41.2-.82.3-1.23l.31-.22h0Zm94.47-104.05c-1.94,2.27-3.92,4.49-5.91,6.7h-.01c1.02-1.18,2.04-2.36,3.05-3.54,1.09-1.26,2.17-2.51,3.25-3.77l-.39.61h0Zm-29.1,10.15c-.48.45-.96.92-1.43,1.38l-.39-.44-.08-.05c.44-.39.87-.79,1.31-1.18l.59.3h0Zm-22.71,22.98c-.75.87-1.49,1.74-2.24,2.61-1.93,2.26-3.87,4.51-5.81,6.75.97-1.37,1.96-2.73,2.97-4.08,3.91-4.85,8-9.54,12.28-14.07-2.44,2.89-4.84,5.82-7.2,8.78h0Zm35.12-25.76c-2.99,2.4-5.92,4.87-8.79,7.4,3.67-4.05,7.36-8.07,11.15-12.01.39-.39.79-.79,1.19-1.18,1.3-1.27,2.62-2.52,3.94-3.77-2.58,3.12-5.08,6.3-7.49,9.55h0Zm-4.96-1.78l-.5-.4c1.38-1.12,2.77-2.24,4.16-3.35-1.23,1.24-2.45,2.49-3.65,3.75h0Zm-11.41,30.95c1.25-1.39,2.5-2.79,3.75-4.18,2.41-2.68,4.84-5.35,7.26-8.02.55.03,1.04-.17,1.43-.63.98-1.14,1.96-2.27,2.94-3.4-1.71,2.29-3.3,4.71-4.66,7.23-2.75,2.78-5.53,5.53-8.32,8.25-2.53,2.47-5.07,4.91-7.62,7.34,1.73-2.21,3.47-4.42,5.23-6.6h0Zm35.76-54.3c-5.58,3.94-11.08,8-16.49,12.17,1.07-.94,2.15-1.87,3.26-2.76,4.47-3.64,9.2-6.95,14.05-10.08l-.82.68Zm-98.49,113.39c-.15.52-.3,1.03-.45,1.54l-.23.6c-.58.74-1.16,1.47-1.73,2.21,1.73-5.44,3.76-10.79,6.1-16.02.89-2,1.82-3.98,2.79-5.95-2.5,5.75-4.67,11.62-6.48,17.62Zm10.31-11.84c-1.07,1.36-2.14,2.73-3.21,4.1.92-1.9,1.9-3.77,2.92-5.6.51-.12.94-.48,1.19-.98.45-.9.92-1.8,1.38-2.7l-.23.57c-.22.55-.12,1.07.14,1.46-.2.37-.4.74-.59,1.12-.54.68-1.07,1.36-1.61,2.05h0Zm15.96-15.04c6.95-8.85,13.91-17.7,20.86-26.56.92-1.01,1.84-2,2.77-3-7.45,8.79-14.57,17.86-21.33,27.18-1.97,2.72-3.92,5.47-5.84,8.23,1.11-1.88,2.24-3.76,3.37-5.64l.16-.21h0Zm6.43-38.9c-3.21,3.43-6.28,6.99-9.21,10.66,2.84-3.75,5.9-7.32,9.21-10.66Zm67.74-40.36c-5.16,5.98-10.33,11.95-15.49,17.93l-.45.29c-1.34,1.25-2.65,2.53-3.95,3.82,3.69-4.22,7.4-8.43,11.12-12.61,4.75-5.33,9.53-10.62,14.35-15.89-1.86,2.15-3.72,4.3-5.57,6.45h0Zm3.27-14.47l-.43-.13c.67-.28,1.35-.56,2.02-.83-.54.32-1.07.64-1.6.96h0Zm-94,118.29c.83-1.73,1.67-3.44,2.53-5.16.65.77,1.99,1.01,2.57,0,.25-.43.5-.87.75-1.29l.23.31c-.56.73-1.14,1.46-1.7,2.19-1.44,1.35-2.9,2.67-4.39,3.96h0Zm85.32-113.36c-.29-.19-.65-.3-1.06-.28-1.07.03-2.13.16-3.16.35,3.48-1.43,6.96-2.86,10.45-4.29-2.08,1.39-4.16,2.8-6.22,4.22h0Zm-14.47,10.33c-4.25,3.15-8.44,6.37-12.54,9.69l.36-.56.27-.76c.5-.46,1-.93,1.5-1.39,1.09-1,2.19-2.04,3.34-3.09,2.35-1.32,4.71-2.62,7.09-3.9h0Zm-85.31,117.81l.1-.06.58-.37c-.14.46-.29.93-.43,1.39-.77,2.53-1.5,5.08-2.21,7.64.56-2.89,1.21-5.76,1.95-8.6h0Zm83.43-123.07l.05-.03c.87-.36,1.74-.72,2.61-1.07-3.45,2.15-6.63,4.86-9.61,7.52-4.44,2.5-8.82,5.08-13.13,7.8l.59-.44c6.41-4.72,12.84-9.4,19.49-13.77h0Zm-87.21,115.05h.36c-.19.61-.37,1.24-.56,1.86.06-.62.13-1.24.19-1.86Zm3.26,23.69l.39.35c-.28.45-.56.89-.85,1.34.15-.56.3-1.13.45-1.69Zm6.16-9.82c2.92-2.84,5.84-5.7,8.76-8.56-3.59,3.93-7,8.01-10.13,12.28.45-1.25.9-2.49,1.37-3.73Zm8.31-12.67c2.45-3.33,4.95-6.63,7.47-9.92.52-.49,1.04-.98,1.56-1.47.39.07.81-.03,1.16-.37,10.58-10.46,21.2-20.88,31.72-31.4.43-.43.86-.87,1.29-1.3-11.33,12.55-23.16,24.65-35.16,36.56-2.66,2.64-5.34,5.28-8.02,7.91h-.01Zm110.05-127.89c.52-.83,1.05-1.67,1.56-2.51.53-.87.25-1.75-.34-2.22.75-.61,1.49-1.23,2.24-1.83l.56-.86.58-.08c-1.47,2.61-2.97,5.2-4.49,7.79l-.11-.28h0Zm-53.98,16.93c-1.05.76-2.1,1.51-3.14,2.27-5.29,3.84-10.56,7.74-15.72,11.74l.49-.43c5.79-4.96,11.95-9.5,18.38-13.59h0Zm36.18,11.53c-8.55,12.51-17.64,24.63-27.27,36.32-9.62,11.67-19.75,22.92-30.38,33.67-4.89,4.95-9.96,9.73-15,14.52,2.24-2.27,4.49-4.55,6.71-6.84,12.21-12.57,24.09-25.45,35.25-38.96,6.25-7.56,12.26-15.33,17.97-23.31l.17-.3c1.42-1.87,2.81-3.75,4.15-5.67,4.2-4.84,8.26-9.8,12.1-14.92-1.22,1.84-2.44,3.66-3.69,5.49Z"/><path class="cls-1" d="m42.53,252.3c-.23-18.98-.5-38.24,3.65-56.86,4-17.94,12.5-34.63,21.89-50.28,17.77-29.64,40.86-55.67,65.65-79.51,14.43-13.88,29.52-27.29,47.44-36.43,1.87-.96.23-3.79-1.65-2.84-15.88,8.09-29.62,19.55-42.58,31.7-13.1,12.28-25.73,25.12-37.48,38.72-11.47,13.27-22.12,27.29-31.44,42.18-9.57,15.3-18.46,31.75-23.39,49.23-5.87,20.79-5.62,42.68-5.36,64.09.03,2.11,3.29,2.12,3.26,0h0Z"/><path class="cls-2" d="m35.94,273.45c-.06-16.36-.12-32.73-1.13-49.08-.5-8.09-1.24-16.16-2.32-24.19-.21-1.5-.43-3.01-.65-4.51l.12-.48c.51-13.22,1.66-26.4,2.78-39.56,1.12-13.16,2.21-26.33,2.6-39.54.38-13.09.08-26.24-1.62-39.23-1.76-13.44-5.33-26.42-9.74-39.21-3.81-11.02-7.78-22.63-15.67-31.46-1-1.11-2.06-2.17-3.15-3.17-.94-.86-2.46-.01-2.59,1.13-1.48,12.95-.21,26.06.56,39.01.78,13.17,1.59,26.35,2.45,39.52.83,12.62,1.66,25.25,2.75,37.85.98,11.38,2.3,22.75,4.65,33.93,2.34,11.07,5.71,21.98,10.78,32.11.63,1.26,1.28,2.49,1.96,3.72.19,1.19.38,2.38.57,3.57,1.25,8.02,2.19,16.09,2.83,24.19,1.29,16.26,1.49,32.58,1.57,48.88.01,2.04.02,4.09.03,6.14,0,.89.49,1.69,1.44,1.81.8.1,1.81-.56,1.8-1.44h-.02ZM7.43,8.4l.03-.48.38.43-.42.06Zm2.1,1.93l.69.91-.29.79c.02,1.87.03,3.74.05,5.6-.15-2.43-.3-4.87-.45-7.31h0Zm6.1,13.84c-.42-2.15-.85-4.29-1.28-6.44,1.07,1.96,2.03,3.98,2.93,6.03-.56-.13-1.21.03-1.65.41h0Zm-.58,30.66l-.45.14c-.06-2.35-.1-4.69-.09-7.04.44,2.31.87,4.63,1.27,6.95l-.73-.06Zm.13,46.34c.1.83.19,1.65.3,2.48-.01.56-.03,1.11-.03,1.68-.08-1.39-.17-2.77-.26-4.15h0Zm-1.22,23.47c.45.3,1.07.3,1.58.06.29,9.02.96,18.02,2.19,26.96-1.77-8.93-2.9-17.97-3.77-27.02Zm9.59-67.52c.08.37.15.73.22,1.09.9,5.7,1.75,11.39,2.5,17.11-.67-3.05-1.35-6.1-2.01-9.16-.21-3.02-.43-6.03-.7-9.05Zm1.46-11.62c-.16-.57-.53-1.06-1.04-1.26-.11-.43-.21-.86-.32-1.28-.86-3.35-1.79-6.68-2.78-10,.25.71.51,1.42.76,2.13,4.45,12.59,8.32,25.33,10.33,38.56.23,1.55.45,3.09.65,4.65l-.1.05c-.98-6.56-2.39-13.07-3.99-19.48-1.11-4.47-2.31-8.92-3.52-13.37h0Zm.63,85.36c-.03-1.4-.06-2.81-.08-4.21-.01-.54-.03-1.08-.03-1.62.1.68.21,1.36.32,2.04-.08,1.26-.14,2.53-.2,3.79h0Zm1.72-35.45c.34,1.57.69,3.15,1.04,4.73-.27,2.13-.54,4.27-.78,6.42-.63-6.57-1.35-13.13-2.13-19.69.63,2.84,1.25,5.69,1.88,8.53Zm-6.47,53.01c.32,1.01,1.26,1.39,2.05,1.21.3,6.67.77,13.33,1.6,19.97l.05.38c-1.55-7.13-2.78-14.33-3.7-21.56Zm3.63,27.22l.75-.68c.19,1.35.4,2.69.61,4.03-.47-1.11-.93-2.23-1.36-3.36Zm4.04-36.59c.03-1.06.07-2.11.11-3.17-.12,6.75-.17,13.51-.18,20.26-.1-5.7-.08-11.39.08-17.09h0Zm3.18,10.99c.08-14.12.39-28.24,1.13-42.35l.27-.73c.64-4.84.83-9.69.69-14.53l.03-.35c.37,6.61.45,13.23.34,19.84-.24,13.02-1.24,26.02-2.32,39-.04.52-.09,1.04-.13,1.55,0-.81,0-1.63.01-2.45h0Z"/><path class="cls-1" d="m35.8,271.63c-.61-72.64-7.59-145.01-16.06-217.07-2.07-17.57-3.01-36.38-12.05-51.95-1.05-1.81-3.8-.17-2.75,1.65,8.46,14.59,9.46,32.12,11.41,48.6,2.06,17.46,4.03,34.92,5.85,52.4,3.67,35.24,6.72,70.55,8.56,105.94,1.05,20.13,1.69,40.28,1.86,60.45.02,2.09,3.21,2.1,3.18,0h0Z"/></svg>