<?xml version="1.0" encoding="UTF-8"?><svg id="Capa_1" xmlns="http://www.w3.org/2000/svg" viewBox="0 0 145 275"><defs><style>.cls-1{fill:#0f715c;}.cls-2{fill:#7fbaaf;}</style></defs><path class="cls-1" d="m97.26,350.6h5.22c-5.86-99.67-41.67-195.65-77.07-288.56-1.22-3.19-6.17-1.33-4.94,1.86,35.13,92.23,70.94,187.68,76.78,286.69Z"/><path class="cls-2" d="m64.67,172.4c-.47-3.82-3.42-6.33-6.04-8.86-2.86-2.78-5.69-5.63-8.65-8.31-2.93-2.64-6.21-4.87-9.94-6.22-3.65-1.31-7.46-1.97-11.33-2.15-4.56-.22-9.09.05-13.63.4-2.12.15-2.93,2.52-1.92,4.15,3.45,5.62,8.21,10.47,13.77,14.04,2.84,1.83,5.83,3.38,9.02,4.53,3.7,1.34,7.57,2.16,11.4,3.03,4.47,1.03,8.93,2.04,13.39,3.07,1.06.24,2.15-.35,2.71-1.23.83-.44,1.41-1.26,1.26-2.47h-.04Z"/><path class="cls-2" d="m42.87,112.65c-.38-3.16-2.81-5.24-4.97-7.34-2.35-2.3-4.68-4.67-7.12-6.88-2.41-2.18-5.1-4.04-8.17-5.16-3-1.09-6.14-1.63-9.32-1.78-3.75-.18-7.48.04-11.21.33-1.75.13-2.41,2.09-1.58,3.44,2.83,4.66,6.76,8.67,11.33,11.63,2.33,1.51,4.8,2.8,7.42,3.75,3.05,1.11,6.22,1.79,9.38,2.51,3.68.85,7.34,1.69,11.02,2.55.87.2,1.77-.29,2.23-1.02.68-.36,1.16-1.04,1.03-2.04h-.03Z"/><path class="cls-2" d="m75.34,154.61c.96-7.48-.55-14.94-2.18-22.22-.25-1.15-.96-2.12-2.23-2.34-1.17-.19-2.42.44-2.9,1.47-1.67,3.53-2.86,7.23-4.02,10.95-1,3.21-2,6.44-2.79,9.72-1.62,6.64-2.26,13.53-.29,20.16-.14.86.09,1.72.88,2.36,1.01.83,3.01.88,3.81-.32,2.05-3.07,4.34-5.98,6.16-9.18,1.88-3.28,3.09-6.89,3.57-10.61v.03Z"/><path class="cls-1" d="m89.15,330.33c6.59-98.49,18.98-196.53,37.22-293.54.41-2.18-2.99-2.77-3.41-.58-18.29,97.2-30.68,195.44-37.27,294.13h3.45Z"/><path class="cls-2" d="m108.27,133.84c-2.02-11.02-4.56-22.55-12.75-30.77-2.08-2.08-4.5-3.83-7.15-5.12-1.26-.6-2.48.46-2.45,1.74.16,5.47,1.92,10.74,4.16,15.68,1.12,2.48,2.37,4.91,3.63,7.32,1.34,2.59,2.71,5.18,4.65,7.37,2.07,2.35,4.53,4.27,7.33,5.68.85.43,1.59.1,2.03-.49.4-.36.65-.88.55-1.42h0Z"/><path class="cls-2" d="m131.73,108.6c-.6-.5-1.48-.53-2.11-.09-3.82,2.63-7.78,5.13-11.46,7.94-3.46,2.63-6,6.04-8.04,9.84-1.12,2.09-2.09,4.25-3.05,6.42l-.02.07c-.79.06-1.49.57-1.64,1.41-.15.86.48,1.9,1.41,1.99,4.68.46,9.11-1.48,12.55-4.59,3.86-3.48,6.28-8.02,8.51-12.65,1.34-2.8,2.66-5.63,4.29-8.29.39-.64.08-1.6-.45-2.05h0Z"/><path class="cls-2" d="m56.21,73.7c-.87-.26-1.83.12-2.3.88-2.87,4.61-5.93,9.13-8.56,13.86-2.47,4.44-3.6,9.27-4.01,14.29-.23,2.76-.25,5.53-.27,8.3v.08c-.8.43-1.32,1.31-1.08,2.27.24,1,1.4,1.82,2.44,1.47,5.23-1.69,9.06-5.85,11.3-10.78,2.51-5.53,2.98-11.52,3.21-17.53.13-3.63.22-7.27.73-10.88.12-.87-.66-1.76-1.45-1.99h0Z"/><path class="cls-2" d="m116.62,88.15l-.11-.13.03-.34c.23-10.79-2.77-21.57-8.34-30.81-1.56-2.58-3.33-5.02-5.29-7.31-.46-.54-1.07-.85-1.79-.67-.6.15-1.27.7-1.32,1.38-.69,11.53,2.35,23.1,8.59,32.83,1.76,2.75,3.79,5.29,6.02,7.68.63.68,1.89.44,2.43-.21.66-.79.43-1.74-.21-2.43h-.02Z"/><path class="cls-2" d="m7.49,31.4l.14.14-.09.32c-1.53,10.59,1.55,21.68,8.47,31.66,1.94,2.79,4.19,5.48,6.74,8.04.6.6,1.44,1.01,2.49.95.88-.05,1.9-.48,2.03-1.14,2.26-11.24-.79-23.11-8.61-33.69-2.21-2.99-4.82-5.82-7.73-8.53-.82-.77-2.64-.73-3.49-.18-1.03.67-.8,1.65.03,2.43h.02Z"/><path class="cls-2" d="m142.09,58.36c-4.55,3.24-9.02,6.59-13.39,10.07-4.24,3.36-8.86,6.65-11.47,11.52-1.45,2.69-2.33,5.65-3.22,8.56-.28.89.57,1.85,1.41,1.99.67.11,1.2-.15,1.57-.6l.14-.03c10.45-3.56,19.27-11.37,24.35-21.14,1.43-2.76,2.52-5.67,3.32-8.66.39-1.48-1.55-2.52-2.7-1.7h0Z"/><path class="cls-2" d="m134.89,24.6c.96-7.48-.55-14.94-2.18-22.22-.25-1.15-.96-2.13-2.23-2.34-1.17-.19-2.42.44-2.9,1.47-1.67,3.53-2.86,7.23-4.02,10.95-1,3.21-2,6.44-2.79,9.72-1.62,6.64-2.26,13.53-.29,20.16-.14.86.09,1.72.88,2.36,1.01.83,3.01.88,3.81-.32,2.05-3.07,4.34-5.98,6.16-9.18,1.88-3.28,3.09-6.89,3.57-10.61v.03Z"/></svg>