<?xml version="1.0" encoding="UTF-8"?><svg id="Capa_1" xmlns="http://www.w3.org/2000/svg" xmlns:xlink="http://www.w3.org/1999/xlink" viewBox="0 0 170 275"><defs><style>.cls-1{fill:none;}.cls-2{clip-path:url(#clippath);}.cls-3{fill:#0f715c;}.cls-4{fill:#7fbaaf;}</style><clipPath id="clippath"><rect class="cls-1" x="2.67" y=".94" width="164.66" height="276.77"/></clipPath></defs><g class="cls-2"><path class="cls-4" d="m132.04,17.96c-1.16-.51-2.32-.23-3.22.63-8.65,8.36-16.22,17.77-22.65,27.94-6.32,10-11.47,20.76-15.29,31.99-2.21,6.5-4.01,13.12-5.33,19.86-.27,1.39.69,2.95,2.12,3.17,1,.15,1.98-.23,2.59-.97-.05,1.07.43,2.21,1.46,2.67,1.18.53,2.29.2,3.22-.64,8.77-7.97,15.7-17.8,21.08-28.34,5.49-10.75,9.44-22.24,12.66-33.87,1.79-6.45,3.34-12.98,4.79-19.52.25-1.11-.39-2.47-1.44-2.94h0Zm-33.3,68.91c.25.42.6.77,1.07.98.4.17.81.25,1.22.25-1.24,1.59-2.53,3.13-3.87,4.63.46-1.97.99-3.92,1.58-5.86Zm6-14.84c-.52,1.05-1.07,2.11-1.59,3.15.4-.9.8-1.81,1.22-2.71,1.32-2.81,2.75-5.58,4.24-8.3-1.28,2.62-2.57,5.23-3.87,7.85h0Zm7.37-24.83c.21-.32.42-.65.64-.97l.12-.19.21-.31c.41-.61.83-1.21,1.24-1.82,1.68-2.41,3.43-4.77,5.25-7.07l.35-.43c-4.18,5.97-8.26,12.01-12.03,18.25-1.66,2.74-3.25,5.53-4.76,8.36,2.04-4.17,4.28-8.24,6.7-12.2.75-1.22,1.5-2.42,2.29-3.62h0Zm-3.98,30.33c-.28.49-.58.98-.87,1.46,3.07-6.11,6.1-12.25,9.08-18.4-1.26,3.12-2.61,6.19-4.08,9.21-1.29,2.63-2.65,5.21-4.13,7.74Z"/><path class="cls-4" d="m74.43,104.41c6.28-11.97,9.76-25.35,11.03-38.8,1.27-13.45.34-27.06-1.85-40.36-1.23-7.4-2.85-14.73-4.69-22-.27-1.08-.84-1.92-1.98-2.22-.92-.25-2.26.02-2.8.92-7.58,12.66-11.91,27.01-13.33,41.7-1.36,14-.12,28.17,2.85,41.89.88,4.08,1.92,8.13,3.07,12.14-.29,1.16-.06,2.48.94,3.17.76,2.51,1.57,5.01,2.43,7.49.46,1.34,2.25,2.06,3.5,1.47,1.39-.64,1.95-2.1,1.46-3.53-.22-.62-.41-1.25-.62-1.86h.01Zm1.93-88.55c-.27-.48-.67-.87-1.23-1.07-.46-.17-1-.22-1.52-.14.53-1.22,1.09-2.43,1.68-3.63.37,1.61.73,3.22,1.07,4.84Zm.2,6.51c.07-1.54.14-3.07.2-4.6.37,1.81.72,3.63,1.05,5.45-.33-.39-.76-.69-1.24-.85h0Zm3.74,20.52c.12,1.62.2,3.24.26,4.86.03.77.06,1.53.07,2.3,0,.41.02.81.02,1.21v1c.02,3.3-.08,6.59-.31,9.88-.49,6.76-1.52,13.49-3.18,20.05l-.14.54-.05.19-.05.18c-.12.45-.25.89-.37,1.34-.26.94-.55,1.86-.84,2.79-.57,1.81-1.19,3.6-1.87,5.37l-.25.63-.05-.75c1.74-7.2,3.1-14.48,4.05-21.82,1.27-9.84,1.8-19.75,1.66-29.67-.06-4.05-.24-8.1-.54-12.14.7,4.65,1.24,9.33,1.58,14.03h0Zm-14.69,14.21c0-.4,0-.79-.01-1.18v-.74c0-.55.01-1.11.02-1.66.25,4.21.56,8.41.83,12.61.16,2.4.32,4.81.47,7.22-.28-2.01-.52-4.01-.72-6.03-.33-3.39-.53-6.8-.59-10.21h0Z"/><path class="cls-4" d="m21.61,49.45c-.41-.97-1.64-1.48-2.61-1.39-1.15.11-1.87.83-2.33,1.85-2.88,6.45-5.49,13.03-7.79,19.72-2.25,6.52-4.33,13.12-5.5,19.93-1.19,6.99-.95,14.04,1.1,20.85,2.13,7.06,5.44,13.77,8.52,20.45,3.47,7.53,7.05,15,10.73,22.42.6,1.2,2.23,1.76,3.44,1.2,1,.99,2.65,1.23,3.75.13,2.43-2.43,3.32-5.66,3.81-8.97.51-3.41.79-6.86,1.04-10.29.5-7.03.59-14.09.28-21.14-.62-14.15-2.78-28.23-6.54-41.88-2.14-7.79-4.8-15.43-7.92-22.87h0Zm-6.28,67.7c-.72-2.06-1.41-4.12-2.06-6.19-1.07-3.41-2.03-6.84-2.9-10.31,1.66,5.5,3.31,11,4.96,16.5h0Zm-3.34-39.78c.33,2.43.75,4.81,1.11,7.07.78,4.81,1.56,9.63,2.34,14.45-.23-.74-.45-1.49-.67-2.24-1.18-3.92-2.35-7.82-3.52-11.73-.2-.67-.57-1.18-1.02-1.53l.14-.52c.51-1.85,1.06-3.68,1.63-5.5h0Zm16.22,13.67c.58,3.36,1.07,6.74,1.47,10.12.2,1.69.37,3.39.52,5.09v.07l.02.17.04.55c.03.42.07.82.1,1.24.07.87.12,1.75.18,2.62.41,6.81.44,13.64.1,20.45-.2,3.87-.52,7.73-.96,11.57-.09.82-.19,1.64-.31,2.45l-.09.53-.05.24c-.07.33-.15.65-.23.98-.6-1.07-1.19-2.13-1.78-3.21.46-.32.83-.77.95-1.34,2.09-9.19,2.66-18.61,2.14-28-.53-9.5-2.02-18.92-3.89-28.24-1.03-5.16-2.19-10.3-3.34-15.44-.21-.9-.92-1.66-1.79-1.96-.23-2.42-.47-4.84-.71-7.27,1.07,3.07,2.07,6.17,2.97,9.29,1.92,6.59,3.47,13.29,4.64,20.06h.02Z"/><path class="cls-4" d="m158.49,128.6c3.07-7.32,5.87-14.74,8.66-22.16.41-1.08.11-2.5-.88-3.17-.94-.64-2.35-.78-3.26.02-11.18,10-22.37,20.06-32.35,31.29-8.99,10.11-16.91,21.27-22.57,33.61-3.1,6.75-5.44,13.85-6.87,21.15-.27,1.39.95,2.91,2.33,3.02h.17c.74.82,1.9,1.25,2.97.71,12.63-6.41,23.17-16.23,31.63-27.55,8.41-11.26,14.74-23.97,20.16-36.91h0Zm-10.4-4.34c1.6-1.54,3.22-3.05,4.84-4.57-2.04,2.33-4.08,4.67-6.1,7.01-.33-.15-.67-.23-.99-.24.75-.74,1.5-1.48,2.26-2.21h0Zm-34.55,56.74l.27-.48.04-.06.09-.16c.28-.51.59-1,.87-1.51-.21.62-.42,1.23-.62,1.86-.17.52-.2,1.09-.09,1.64l-.02.02c-.68.49-1.32.94-1.96,1.38.33-.61.65-1.23.99-1.84l.46-.84h-.03Zm14.49-19.98c.87-1.75,1.77-3.47,2.71-5.18l.38-.7.24-.43c.2-.35.39-.7.59-1.05.28-.48.56-.96.84-1.44,1.54-2,3.1-3.98,4.68-5.95-3.56,5.84-7.11,11.69-10.77,17.47.43-.91.87-1.81,1.32-2.72Zm29.67-45.7l.5-.46-.17.44-.33.02Zm-14.03,31.93l-.38.67c-.22.38-.43.77-.65,1.15-.44.77-.89,1.53-1.34,2.29-1.75,2.92-3.6,5.79-5.57,8.56-.74,1.04-1.5,2.07-2.28,3.09.63-1.03,1.26-2.06,1.89-3.09,3.76-6.12,7.53-12.23,11.3-18.35-.18.37-.36.75-.55,1.12-.78,1.53-1.59,3.05-2.42,4.56h0Zm-28.6,18.89c.09.38.26.74.52,1.05-.97,1.52-1.94,3.04-2.87,4.58-.39.64-.77,1.29-1.15,1.93.23-.55.46-1.1.7-1.65.87-2.01,1.82-3.98,2.81-5.92h0Z"/><path class="cls-3" d="m144.54,135.2c-.69,1.33-1.39,2.66-2.11,3.98-5.79,10.69-12.47,20.86-19.55,30.71-7.25,10.08-14.93,19.83-22.63,29.57-3.8,4.81-7.62,9.61-11.39,14.45-.95,1.22-1.9,2.44-2.85,3.67-.25.33-.49.65-.75.97l-.18.25-.22.28c-.44.58-.89,1.16-1.33,1.75-1.85,2.43-3.68,4.86-5.49,7.32-7.17,9.73-13.97,19.75-19.94,30.26-2.97,5.22-5.73,10.57-8.2,16.04-.49,1.08-.97,2.18-1.44,3.27-2.66-.32-5.32-.63-7.99-.92.96-4.47,1.92-8.95,2.88-13.42-.15-.63-.3-1.27-.44-1.9-2.61-11.37-5-22.8-7.21-34.27-2.2-11.47-4.2-22.96-6-34.5-1.82-11.66-3.43-23.35-4.85-35.07-1.4-11.59-2.6-23.21-3.59-34.84-1-11.63-1.78-23.28-2.37-34.94-.07-1.52,1.3-2.65,2.69-2.71,1.5-.06,2.62,1.29,2.69,2.71.07,1.43.15,2.87.23,4.31.63,11.6,1.47,23.19,2.5,34.76,1.05,11.63,2.29,23.24,3.73,34.82,1.42,11.37,3.05,22.74,4.88,34.13,1.85,11.47,3.89,22.91,6.13,34.3,1.35,6.89,2.8,13.75,4.29,20.6,4.38-20.75,8.62-41.52,12.38-62.39,4.13-22.93,7.68-45.97,10.17-69.13,2.51-23.25,3.94-46.63,3.9-70.03,0-3.48,5.37-3.48,5.38,0,0,2.99,0,5.97-.05,8.96-.33,23.4-2.09,46.74-4.86,69.96-.1.82-.21,1.64-.31,2.46,1.45-2.42,2.88-4.84,4.29-7.29,5.97-10.41,11.49-21.07,16.57-31.95,1.26-2.72,2.5-5.46,3.71-8.2.62-1.39,1.23-2.79,1.82-4.19.3-.68.58-1.36.87-2.04l.18-.43.09-.2c.14-.34.28-.69.42-1.03,2.3-5.54,4.48-11.13,6.55-16.77.52-1.42,1.79-2.24,3.3-1.89,1.34.31,2.36,1.99,1.88,3.33-2.39,6.51-4.93,12.95-7.63,19.33-4.67,11.1-9.82,22.01-15.4,32.68-5.62,10.71-11.69,21.17-18.19,31.36l-.12.17c-2.49,18.23-5.52,36.39-8.88,54.48-4.06,21.85-8.6,43.62-13.24,65.35l.14.65c2.05-4.01,4.22-7.95,6.52-11.83,6.17-10.43,13.11-20.37,20.36-30.06,7.43-9.92,15.19-19.6,22.86-29.32,1.93-2.45,3.86-4.89,5.76-7.34.93-1.2,1.86-2.39,2.79-3.59.28-.35.55-.71.82-1.07l.13-.17.2-.25c.47-.62.95-1.24,1.42-1.86,3.71-4.86,7.35-9.79,10.87-14.79,7.03-9.99,13.58-20.34,19.18-31.21.68-1.34,2.44-1.63,3.68-.97,1.32.71,1.61,2.44.96,3.7h0Z"/></g></svg>