<?xml version="1.0" encoding="UTF-8"?><svg id="Capa_1" xmlns="http://www.w3.org/2000/svg" viewBox="0 0 145 275"><defs><style>.cls-1{fill:#0f715c;}.cls-2{fill:#7fbaaf;}</style></defs><path class="cls-2" d="m44.55,53.23c5.64-10,11.65-19.78,17.67-29.57.87-1.42,2.77-2.34,4.43-1.8,1.57.5,3,2.01,2.87,3.77-1.48,21.7-3.01,43.45-6.97,64.86-3.56,19.26-9.27,38.25-18.36,55.68-4.98,9.53-11.02,18.5-18.1,26.61-1.36,1.54-4.18,1.48-5.54,0l-.15-.21c-1.6-.12-3.13-1.08-3.47-2.78-3.93-20.18-2.09-40.99,3.33-60.72,5.4-19.63,14.31-38.14,24.28-55.84h0Zm14.25,8.1c.33-3.2.63-6.4.91-9.6-.84,4.41-1.71,8.82-2.59,13.22.47.25.85.56,1.16.93.17-1.51.35-3.03.51-4.56h0Zm-34.16,89.91l.31-.72.04-.09.1-.24c.32-.77.63-1.56.95-2.34-.52.79-1.03,1.58-1.57,2.36-.44.65-1.07,1.21-1.79,1.56v.05c.04,1.21.11,2.35.18,3.47.41-.91.83-1.83,1.23-2.77l.55-1.27h0Zm9.96-34.32c1.22-2.55,2.4-5.11,3.53-7.7l.46-1.06.28-.65c.22-.53.45-1.07.66-1.61.31-.74.6-1.5.9-2.24.92-3.54,1.8-7.09,2.64-10.65-3.51,9.26-7.04,18.52-10.4,27.83.66-1.3,1.3-2.61,1.93-3.92Zm25.87-74.54l.07-.98-.35.58.28.4Zm-24.07,44.38l-.44,1.02c-.24.59-.49,1.17-.74,1.76-.48,1.18-.96,2.37-1.43,3.56-1.79,4.59-3.41,9.26-4.84,13.98-.53,1.77-1.02,3.56-1.51,5.35.62-1.64,1.24-3.28,1.85-4.9,3.65-9.74,7.29-19.48,10.94-29.22-.26.55-.54,1.08-.79,1.63-1.05,2.26-2.07,4.53-3.06,6.82h.02Zm3.91,49.58c-.51.24-1.09.37-1.68.33-.87,2.46-1.76,4.91-2.69,7.36-.39,1.01-.78,2.02-1.19,3.03.43-.75.86-1.5,1.28-2.26,1.52-2.78,2.94-5.6,4.28-8.47h0Z"/><path class="cls-2" d="m69.65,220.18c3.51-14.88,9.2-29.26,16.7-42.6,8.07-14.36,18.32-27.58,30.24-38.98,6.81-6.5,14.21-12.42,22.04-17.68,1.28-.86,3.16-.58,4.31.3,1.25.97,1.74,2.52,1.39,4.06-4.22,18.22-8.57,36.54-16.6,53.55-7.09,15.02-17.41,28.64-31.18,38.17-6.05,4.19-12.84,7.46-19.97,9.41-.43.37-.84.76-1.27,1.13-1.82,1.6-4.18,1.25-5.52-.16-1.21-.36-2.23-1.23-2.54-2.58-.41-1.8.49-4.06,2.4-4.64Zm37.02-36.24l.08-.12.44-.56.75-.98c.52-.71,1.06-1.41,1.57-2.12,1.04-1.42,2.06-2.85,3.07-4.3,1.34-1.94,2.62-3.9,3.88-5.89-3.99,5.33-7.98,10.65-11.97,15.98-1.78,2.36-3.55,4.72-5.32,7.09l.83-.94c2.29-2.67,4.52-5.38,6.68-8.16h0Zm-15.05,17.09l-.25.56.6-.63-.35.07Zm-12.05,12.07l-.07.24.14-.13-.06-.11h0Zm48.26-74.24l1.08.76.34.44c1.12-1.5,2.25-3,3.38-4.5.47-.63,1.04-1.12,1.67-1.46l.17-.71-.03.03-1.12.88c-1.87,1.48-3.68,3-5.48,4.56h0Zm-31.18,68.47c.8-.65,1.58-1.33,2.36-2.02,2.86-2.55,5.54-5.3,8.03-8.2.6-.71,1.21-1.42,1.79-2.15l.41-.51.13-.17.37-.48.5-.65c1.15-1.53,2.25-3.1,3.3-4.7,1.02-1.56,1.99-3.14,2.92-4.75-6.12,8.4-12.88,16.34-20.07,23.85l.27-.21h0Z"/><path class="cls-2" d="m107.2,26.93c7.41-8.91,15.7-17.08,24.74-24.31,1.27-1.01,2.68-1.48,4.26-.81,1.49.63,2.28,1.98,2.39,3.56.81,11.95,1.62,23.97.64,35.94-.86,10.46-3.14,20.7-6.93,30.49-7.26,18.73-19.03,35.26-32.58,49.94-7.56,8.2-15.72,15.84-24.17,23.1-1.2,1.03-2.95,1.43-4.36.81-2.37,1.93-6.43.65-6.42-2.89.02-20.92,3.85-41.86,11.1-61.47,7.31-19.76,17.88-38.17,31.34-54.36v-.02Zm21.16-8.27c-.62,3.83-1.37,7.64-2.2,11.43l.05-.11c.78-1.46,2.82-2.31,4.4-1.8.43.14.87.38,1.27.68-.02-5.2-.25-10.4-.57-15.59-1.08.95-2.13,1.91-3.19,2.87.29.75.36,1.62.21,2.51h.02Zm-29.17,70.22c1.04-2.81,2.09-5.62,3.12-8.44,1.2-3.26,2.39-6.5,3.55-9.78-3.33,7.42-6.71,14.8-10.21,22.14-.91,1.91-1.84,3.81-2.77,5.71l.33-.49c1.98-3.05,3.98-6.09,5.97-9.14h0Zm24.97-17.57c.21-.53.43-1.06.63-1.58.45-1.16.88-2.34,1.3-3.53.79-2.26,1.51-4.55,2.14-6.85.64-2.32,1.2-4.66,1.68-7.01.22-1.13.44-2.26.62-3.4.11-.64.21-1.29.3-1.94l.1-.73.05-.32.1-.84.11-1.04c-1,3.95-2.24,7.84-3.77,11.65-2.6,6.48-5.88,12.59-9.5,18.52-2.29,7.37-4.64,14.74-7.47,21.91,5.16-7.47,9.67-15.38,13.26-23.73l.2-.47.26-.64h0Zm-37.26,52.48c-.17-.63-.18-1.28.05-1.91l.04-.08c-.77,1.17-1.54,2.35-2.3,3.53l-.12.72c.78-.75,1.56-1.51,2.33-2.27h0Zm-12.8-3.79l-.1.68v.05l-.08.6c-.17,1.35-.33,2.71-.47,4.06-.12,1.13-.21,2.25-.3,3.38,1.25-1.92,2.5-3.83,3.75-5.74-.05-12.86,2.43-25.66,6.52-37.82,2.98-8.83,6.74-17.38,10.92-25.71-1.32,2.4-2.59,4.81-3.8,7.27-1.13,2.29-2.22,4.61-3.26,6.95-.25.57-.5,1.15-.75,1.72l-.33.78-.04.07-.04.09c-.52,1.26-1.04,2.53-1.54,3.79-3.69,9.42-6.59,19.17-8.62,29.07-.57,2.78-1.08,5.57-1.52,8.39-.12.79-.24,1.57-.35,2.36h0Z"/><path class="cls-1" d="m26.02,264.23c-3.73,3.52-7.45,7.02-11.19,10.53,3.7.06,7.39.13,11.09.23,10.93-10.28,21.8-20.6,32.34-31.27,13.05-13.22,25.53-27.01,36.81-41.77,11.11-14.5,20.92-30.01,28.69-46.55.91-1.96.5-4.07-1.4-5.29-1.65-1.07-4.46-.45-5.32,1.39-.96,2.06-1.95,4.11-2.99,6.14-4.13,8.14-8.75,16.04-13.77,23.67-2.47,3.76-5.04,7.45-7.69,11.08-1.32,1.81-2.68,3.61-4.04,5.4-.38.51-.78,1.02-1.18,1.54l-.07.09-.11.14-.49.63c-.7.89-1.39,1.78-2.1,2.66-11.41,14.28-23.96,27.62-36.93,40.51-3.77,3.75-7.6,7.45-11.42,11.14,3.66-13.47,7.57-26.87,11.75-40.2,4.64-14.8,9.6-29.48,14.88-44.06,5.27-14.57,10.86-29.04,16.77-43.37,3-7.29,5.67-13.61,8.85-20.87,3.1-7.11,6.3-14.17,9.55-21.21,6.52-14.07,13.34-27.99,20.47-41.78.99-1.93.45-4.1-1.4-5.29-1.69-1.09-4.39-.43-5.31,1.39-.89,1.72-1.78,3.45-2.67,5.18-7.07,13.88-13.85,27.9-20.33,42.08-6.55,14.34-12.79,28.84-18.71,43.45-5.84,14.37-11.35,28.86-16.55,43.46-5.23,14.66-10.13,29.45-14.72,44.32-4.58,14.88-8.85,29.86-12.78,44.92-.16.6-.16,1.2-.04,1.75v-.03Z"/><path class="cls-1" d="m3.62,247.05c-1.18,9.26-2.19,18.55-3.06,27.85,2.55.02,5.11.05,7.66.08.35-3.89.73-7.77,1.15-11.65.38-3.61.79-7.2,1.23-10.79.21-1.77.43-3.53.65-5.29.11-.95.25-1.9.36-2.84l.04-.3.04-.29c.06-.47.11-.96.18-1.43,1.91-14.21,4.2-28.38,6.86-42.48,2.67-14.09,5.7-28.1,9.1-42.03,3.42-13.99,7.21-27.89,11.36-41.67,4.14-13.72,8.65-27.32,13.51-40.78.74-2.05-.83-4.19-2.67-4.8-2.08-.7-4,.81-4.69,2.72-.6,1.66-1.21,3.33-1.79,5-4.8,13.56-9.23,27.26-13.3,41.08-4.08,13.87-7.8,27.87-11.13,41.95-3.32,14.02-6.27,28.12-8.84,42.3-2.61,14.39-4.82,28.85-6.67,43.36h0Z"/></svg>