<?xml version="1.0" encoding="UTF-8"?><svg id="Capa_1" xmlns="http://www.w3.org/2000/svg" viewBox="0 0 170 300"><defs><style>.cls-1{fill:#fff;}</style></defs><path class="cls-1" d="m98.91,330h4.83c-5.42-92.04-38.53-180.67-71.25-266.47-1.13-2.95-5.7-1.23-4.57,1.72,32.48,85.18,65.59,173.31,70.99,264.75Z"/><path class="cls-1" d="m80.66,195.53c-.56-4.55-4.08-7.54-7.2-10.56-3.41-3.31-6.78-6.71-10.32-9.9-3.49-3.14-7.4-5.81-11.85-7.42-4.36-1.56-8.9-2.35-13.51-2.56-5.44-.26-10.84.06-16.25.48-2.53.18-3.49,3-2.29,4.95,4.11,6.7,9.79,12.48,16.42,16.74,3.38,2.18,6.95,4.03,10.75,5.4,4.42,1.59,9.02,2.57,13.59,3.62,5.33,1.23,10.64,2.44,15.97,3.66,1.27.29,2.56-.41,3.23-1.47.99-.52,1.68-1.5,1.5-2.94h-.05Z"/><path class="cls-1" d="m93.38,174.33c1.14-8.91-.66-17.81-2.6-26.5-.3-1.37-1.14-2.53-2.66-2.79-1.39-.23-2.88.52-3.46,1.76-1.99,4.21-3.42,8.62-4.79,13.05-1.19,3.83-2.38,7.68-3.32,11.58-1.93,7.92-2.69,16.13-.34,24.04-.17,1.02.11,2.04,1.05,2.81,1.21.99,3.59,1.05,4.54-.38,2.44-3.66,5.17-7.13,7.35-10.94,2.24-3.91,3.68-8.21,4.26-12.65l-.02.03Z"/><path class="cls-1" d="m47.31,57.72c-2.88-5.6-8.01-9.98-14.32-11.12-2.46-.45-4.96-.29-7.41.25-5.89-2.43-12.65.79-16.95,4.95-3.93,3.81-6.51,9.41-6.85,14.87-.79,12.36,7.61,23.38,19.45,26.6,5.92,1.59,12.46.62,17.55-2.83,5.1-3.47,8.33-8.99,9.96-14.82,1.62-5.79,1.31-12.5-1.44-17.9v.02Zm-8.69,3.85l-.17-.26.15.26h.02Zm-19.68,20.49l-.08-.05.2.12-.12-.08Zm2.49-23.26v.05h-.03l.03-.05Zm-1.25,31.12h-.03l-.15.03.19-.03Zm9.83-20.13l.19.65.09.43.11.63.11,1.08-.11-.08-1.48-.62.68-2.2.12-.79v.03l.28.82.02.03Zm-7.64-7.92l.31.08.37.12.91.39,1.11.59.9.65,1.21,1.07.05.05c-1.61-.91-3.49-.77-5.07.22l-.9.63c.06-.88.11-1.76.08-2.66l-.31-1.35.59.08.77.15-.02-.02Z"/><path class="cls-1" d="m101.85,365.73c7.86-117.42,22.63-234.31,44.38-349.97.49-2.6-3.57-3.3-4.06-.69-21.8,115.89-36.58,233.01-44.43,350.67h4.11Z"/><path class="cls-1" d="m124.65,131.47c-2.41-13.14-5.44-26.88-15.2-36.69-2.48-2.48-5.37-4.57-8.52-6.1-1.5-.72-2.96.55-2.92,2.07.19,6.52,2.29,12.81,4.96,18.7,1.34,2.96,2.83,5.85,4.33,8.73,1.6,3.09,3.23,6.17,5.54,8.79,2.47,2.8,5.4,5.09,8.74,6.77,1.01.51,1.9.12,2.42-.58.48-.43.78-1.05.66-1.69h0Z"/><path class="cls-1" d="m152.62,101.38c-.71-.6-1.76-.63-2.51-.11-4.56,3.14-9.27,6.12-13.66,9.47-4.12,3.14-7.15,7.2-9.58,11.73-1.34,2.49-2.49,5.07-3.64,7.65l-.02.08c-.94.07-1.78.68-1.95,1.68-.18,1.03.57,2.27,1.68,2.37,5.58.55,10.86-1.77,14.96-5.47,4.6-4.15,7.49-9.56,10.15-15.08,1.6-3.34,3.17-6.71,5.12-9.88.47-.76.1-1.91-.54-2.45h-.01Z"/><path class="cls-1" d="m134.6,76.99l-.13-.15.04-.4c.28-12.87-3.3-25.72-9.94-36.73-1.86-3.07-3.97-5.99-6.31-8.71-.55-.64-1.28-1.01-2.14-.8-.72.18-1.52.83-1.57,1.64-.82,13.75,2.8,27.54,10.24,39.14,2.1,3.28,4.52,6.31,7.18,9.16.75.81,2.25.52,2.9-.25.79-.94.51-2.08-.25-2.9h-.02Z"/><path class="cls-1" d="m164.97,41.48c-5.42,3.86-10.75,7.86-15.96,12.01-5.05,4.01-10.56,7.93-13.68,13.73-1.73,3.21-2.78,6.73-3.84,10.2-.33,1.06.68,2.2,1.68,2.37.8.13,1.43-.18,1.87-.71l.17-.04c12.46-4.24,22.97-13.55,29.03-25.2,1.71-3.29,3.01-6.76,3.96-10.33.47-1.77-1.85-3-3.22-2.03h0Z"/><path class="cls-1" d="m159.7,7.57c-1.85-3.63-5.18-6.46-9.26-7.19-1.58-.29-3.21-.19-4.78.16-3.81-1.57-8.17.51-10.96,3.2-2.54,2.46-4.21,6.08-4.43,9.61-.51,7.99,4.93,15.11,12.58,17.19,3.83,1.03,8.06.4,11.35-1.83,3.3-2.24,5.39-5.81,6.44-9.58,1.05-3.74.85-8.08-.93-11.57h0Zm-5.62,2.49l-.11-.17.1.17h.01Zm-12.73,13.24l-.05-.03.13.08-.08-.05Zm1.61-15.02v.03h-.02l.02-.03Zm-.81,20.1h-.02l-.1.02.12-.02Zm6.37-13.02l.12.43.06.28.07.41.07.7-.06-.05-.96-.4.45-1.42.08-.51v.02l.19.53h-.02Zm-4.94-5.12l.2.05.24.08.59.25.71.39.58.41.78.69.03.03c-1.05-.59-2.26-.5-3.28.14l-.58.41c.04-.56.06-1.13.05-1.72l-.2-.87.38.04.51.1h0Z"/></svg>