<?xml version="1.0" encoding="UTF-8"?><svg id="Capa_1" xmlns="http://www.w3.org/2000/svg" xmlns:xlink="http://www.w3.org/1999/xlink" viewBox="0 0 200 200"><defs><style>.cls-1{fill:none;}.cls-2{clip-path:url(#clippath);}.cls-3{fill:#fff;}</style><clipPath id="clippath"><rect class="cls-1" x="26.26" y="82.38" width="19.03" height="91.33" transform="translate(-68.9 46.07) rotate(-36.32)"/></clipPath></defs><path class="cls-3" d="m196.32,22.08c-9.66.91-18.8,4.14-27.38,8.48-4.27,1.61-8.47,3.43-12.55,5.47-8.85,4.41-17.24,9.77-24.93,15.97-7.89,6.36-15.06,13.63-21.3,21.6-.44.56-.88,1.13-1.3,1.7-3.57,3.73-6.91,7.67-9.93,11.87-4.03,5.62-7.42,11.7-10,18.13-2.65,6.59-4.46,13.51-5.7,20.5-2.53,14.32-2.62,28.92-2.66,43.41,0,1.81-.01,3.64-.02,5.44,0,.34.09.66.27.92-.22,7.6-.16,15.23-.24,22.79-.02,1.83-.05,3.65-.06,5.48-.01.73.41,1.39,1.18,1.49.67.07,1.49-.45,1.49-1.18.09-7.32.16-14.63.26-21.96.06-4.72.16-9.44.42-14.15,4.42-10.17,10.92-19.13,18.49-27.21,7.85-8.37,16.54-15.92,24.7-23.99,8.89-8.8,17.4-17.99,25.46-27.55,8.06-9.54,15.68-19.44,22.85-29.67,7.16-10.23,13.87-20.77,20.08-31.6.79-1.37,1.57-2.74,2.33-4.12.55-.97-.56-1.91-1.46-1.83h0Zm-85.2,57.34c8.87-9.84,19.54-17.91,30.77-24.9-.83.82-1.65,1.64-2.47,2.47-8.2,4.45-15.67,10.16-22.27,16.73-7.49,7.44-13.92,15.87-19.46,24.82.34-.69.69-1.38,1.04-2.07,3.46-6.12,7.69-11.83,12.39-17.05Zm-16.25,54.42c-.44.33-.87.67-1.31,1l.02-.08c.69-.87,1.37-1.74,2.05-2.6-.26.56-.52,1.12-.77,1.68h0Zm-2.14,4.92c-.17.4-.34.79-.5,1.2.08-.34.17-.67.25-1.01l.26-.18h0Zm78.12-85.64c-1.6,1.87-3.24,3.7-4.89,5.52h-.01c.84-.98,1.68-1.94,2.53-2.91.9-1.04,1.8-2.07,2.69-3.1l-.32.5h0Zm-24.06,8.36c-.4.37-.8.75-1.18,1.13l-.32-.36-.06-.04c.36-.32.72-.65,1.09-.98l.49.24h0Zm-18.78,18.91c-.62.72-1.23,1.43-1.85,2.15-1.59,1.86-3.2,3.71-4.8,5.56.8-1.13,1.62-2.25,2.46-3.36,3.23-3.99,6.62-7.85,10.15-11.58-2.02,2.38-4.01,4.79-5.95,7.23h0Zm29.04-21.2c-2.47,1.98-4.89,4.01-7.27,6.09,3.03-3.33,6.09-6.64,9.22-9.88.32-.32.65-.65.98-.97,1.08-1.05,2.16-2.08,3.26-3.1-2.13,2.57-4.2,5.19-6.2,7.86h0Zm-4.1-1.46l-.42-.33c1.14-.92,2.29-1.84,3.44-2.76-1.02,1.02-2.03,2.05-3.02,3.08h0Zm-9.43,25.47c1.04-1.15,2.07-2.3,3.1-3.44,1.99-2.21,4-4.4,6-6.6.45.03.86-.14,1.18-.52.81-.94,1.62-1.87,2.43-2.8-1.42,1.89-2.73,3.87-3.85,5.95-2.27,2.29-4.57,4.55-6.88,6.79-2.09,2.03-4.19,4.04-6.3,6.04,1.43-1.82,2.87-3.63,4.32-5.43h0Zm29.57-44.69c-4.62,3.24-9.16,6.58-13.64,10.01.88-.78,1.78-1.54,2.7-2.27,3.7-3,7.61-5.72,11.62-8.3l-.68.56Zm-81.45,93.33c-.13.43-.24.84-.37,1.27l-.19.49c-.48.61-.96,1.21-1.43,1.82,1.43-4.47,3.11-8.88,5.05-13.19.74-1.65,1.51-3.28,2.31-4.9-2.07,4.73-3.86,9.57-5.36,14.5Zm8.52-9.75c-.89,1.12-1.77,2.25-2.66,3.37.76-1.56,1.57-3.1,2.42-4.61.42-.1.78-.4.98-.81.37-.74.76-1.48,1.14-2.22l-.19.47c-.18.45-.1.88.12,1.2-.16.31-.33.61-.49.92-.44.56-.89,1.12-1.33,1.68h0Zm13.2-12.38c5.75-7.29,11.5-14.57,17.25-21.87.76-.83,1.53-1.65,2.29-2.47-6.16,7.24-12.05,14.7-17.64,22.37-1.63,2.24-3.24,4.5-4.83,6.78.92-1.55,1.85-3.1,2.79-4.64l.13-.17h0Zm5.32-32.02c-2.65,2.82-5.2,5.75-7.62,8.77,2.35-3.08,4.88-6.03,7.62-8.77Zm56.02-33.22c-4.27,4.92-8.54,9.84-12.81,14.76l-.37.24c-1.11,1.03-2.19,2.08-3.27,3.15,3.05-3.48,6.12-6.93,9.2-10.38,3.93-4.38,7.88-8.74,11.86-13.08-1.54,1.77-3.07,3.54-4.61,5.31h0Zm2.7-11.91l-.35-.11c.56-.23,1.11-.46,1.67-.69-.44.26-.88.53-1.32.79h0Zm-77.73,97.37c.68-1.42,1.38-2.84,2.09-4.25.53.63,1.64.83,2.13,0,.2-.36.41-.71.62-1.07l.19.25c-.47.6-.94,1.2-1.41,1.8-1.19,1.11-2.4,2.2-3.63,3.26h0Zm70.56-93.31c-.24-.15-.53-.24-.88-.23-.89.03-1.76.13-2.61.29,2.88-1.17,5.76-2.35,8.64-3.53-1.72,1.15-3.44,2.31-5.14,3.48h0Zm-11.97,8.5c-3.51,2.59-6.98,5.25-10.37,7.98l.3-.46.22-.62c.41-.38.82-.77,1.24-1.15.9-.82,1.82-1.68,2.76-2.54,1.94-1.09,3.9-2.15,5.86-3.21h0Zm-70.54,96.97l.09-.04.48-.31c-.12.38-.24.77-.36,1.15-.64,2.09-1.24,4.19-1.83,6.29.47-2.38,1-4.74,1.61-7.08h0Zm68.99-101.29l.04-.03c.72-.29,1.44-.59,2.16-.88-2.86,1.77-5.49,4-7.95,6.19-3.67,2.06-7.3,4.18-10.86,6.42l.49-.36c5.3-3.88,10.62-7.73,16.12-11.34h0Zm-72.11,94.7h.3c-.16.5-.31,1.02-.46,1.53.05-.51.11-1.02.16-1.53Zm2.7,19.5l.32.29c-.23.37-.47.73-.7,1.11.13-.47.25-.93.38-1.39Zm5.09-8.08c2.42-2.34,4.83-4.69,7.24-7.04-2.97,3.23-5.79,6.59-8.38,10.11.37-1.03.75-2.05,1.13-3.07Zm6.87-10.43c2.03-2.74,4.09-5.46,6.17-8.17.43-.4.86-.8,1.29-1.21.32.06.67-.02.96-.31,8.75-8.61,17.53-17.19,26.23-25.85.36-.36.71-.71,1.07-1.07-9.37,10.33-19.15,20.29-29.08,30.09-2.2,2.18-4.42,4.34-6.63,6.51h-.01ZM190.26,31.22c.43-.69.87-1.37,1.29-2.06.44-.72.2-1.44-.28-1.83.62-.5,1.23-1.01,1.86-1.51l.46-.71.48-.07c-1.22,2.15-2.46,4.28-3.72,6.41l-.09-.23h0Zm-44.64,13.94c-.87.62-1.74,1.24-2.6,1.87-4.38,3.16-8.73,6.37-13,9.66l.4-.35c4.79-4.08,9.88-7.82,15.2-11.19h0Zm29.92,9.49c-7.07,10.3-14.59,20.27-22.55,29.89-7.96,9.61-16.33,18.87-25.12,27.72-4.05,4.07-8.23,8.01-12.4,11.95,1.86-1.87,3.71-3.74,5.55-5.63,10.09-10.34,19.92-20.95,29.15-32.07,5.17-6.23,10.13-12.62,14.86-19.18l.14-.24c1.17-1.54,2.32-3.09,3.43-4.67,3.48-3.98,6.83-8.06,10-12.28-1.01,1.51-2.02,3.02-3.05,4.52Z"/><path class="cls-3" d="m83.69,205.56c-.19-15.51-.41-31.26,3.02-46.49,3.31-14.67,10.33-28.31,18.09-41.11,14.69-24.23,33.77-45.52,54.25-65,11.93-11.35,24.39-22.31,39.21-29.79,1.55-.78.19-3.1-1.36-2.32-13.12,6.62-24.47,15.98-35.19,25.91-10.83,10.04-21.26,20.54-30.97,31.66-9.48,10.85-18.28,22.31-25.98,34.49-7.91,12.51-15.26,25.96-19.33,40.25-4.85,16.99-4.64,34.89-4.43,52.39.02,1.72,2.72,1.73,2.7,0h0Z"/><path class="cls-3" d="m78.03,223.33c-.05-13.44-.1-26.88-.94-40.3-.42-6.64-1.02-13.27-1.92-19.86-.17-1.24-.35-2.47-.53-3.7l.1-.39c.42-10.85,1.37-21.68,2.3-32.49.93-10.81,1.83-21.63,2.15-32.47.31-10.75.06-21.55-1.34-32.22-1.46-11.04-4.41-21.7-8.06-32.2-3.15-9.05-6.44-18.58-12.97-25.83-.83-.91-1.7-1.78-2.61-2.6-.78-.71-2.04-.01-2.15.92-1.22,10.63-.18,21.4.47,32.04.65,10.82,1.31,21.64,2.03,32.46.69,10.37,1.37,20.74,2.28,31.09.81,9.34,1.9,18.68,3.85,27.86,1.93,9.09,4.73,18.05,8.92,26.37.52,1.03,1.06,2.05,1.62,3.06.16.98.31,1.96.47,2.93,1.04,6.59,1.82,13.21,2.34,19.86,1.07,13.35,1.23,26.76,1.3,40.15.01,1.68.02,3.36.02,5.04,0,.73.4,1.39,1.19,1.49.66.08,1.5-.46,1.49-1.19h-.02ZM54.43,5.66l.03-.4.32.35-.35.05Zm1.74,1.59l.57.75-.24.65c.02,1.54.03,3.07.04,4.6-.13-2-.25-4-.38-6h0Zm5.05,11.37c-.35-1.76-.7-3.53-1.06-5.29.88,1.61,1.68,3.27,2.42,4.95-.46-.11-1,.03-1.37.33h0Zm-.48,25.18l-.37.12c-.05-1.93-.08-3.85-.07-5.78.36,1.9.72,3.8,1.05,5.71l-.6-.05Zm.11,38.06c.08.68.16,1.36.24,2.04-.01.46-.02.91-.03,1.38-.07-1.14-.14-2.27-.22-3.41h0Zm-1.01,19.27c.38.24.88.24,1.31.05.24,7.41.79,14.8,1.81,22.14-1.47-7.33-2.4-14.76-3.12-22.19Zm7.94-55.45c.06.3.13.6.18.9.75,4.68,1.45,9.36,2.07,14.05-.56-2.51-1.12-5.01-1.67-7.52-.17-2.48-.36-4.96-.58-7.43Zm1.21-9.54c-.13-.47-.44-.87-.86-1.04-.09-.35-.17-.7-.26-1.05-.71-2.75-1.48-5.49-2.3-8.21.21.58.42,1.17.63,1.75,3.69,10.34,6.89,20.8,8.55,31.67.19,1.27.37,2.54.53,3.82l-.08.04c-.81-5.39-1.98-10.73-3.31-16-.92-3.67-1.91-7.33-2.91-10.98h0Zm.52,70.1c-.02-1.15-.05-2.31-.07-3.46-.01-.44-.02-.88-.03-1.33.09.56.18,1.12.27,1.67-.06,1.04-.11,2.08-.16,3.11h0Zm1.42-29.11c.28,1.29.57,2.59.86,3.88-.23,1.75-.45,3.51-.65,5.27-.52-5.4-1.12-10.78-1.76-16.17.52,2.34,1.04,4.67,1.55,7.01Zm-5.35,43.54c.26.83,1.04,1.15,1.7,1,.24,5.48.64,10.95,1.33,16.4l.04.31c-1.28-5.86-2.3-11.77-3.06-17.71Zm3,22.36l.62-.56c.16,1.11.33,2.21.51,3.31-.39-.91-.77-1.83-1.13-2.76Zm3.35-30.05c.02-.87.06-1.74.09-2.6-.1,5.54-.14,11.09-.15,16.64-.09-4.68-.07-9.36.06-14.03h0Zm2.63,9.03c.07-11.6.32-23.19.93-34.78l.22-.6c.53-3.97.69-7.96.57-11.93l.02-.28c.31,5.43.38,10.86.28,16.3-.2,10.69-1.02,21.37-1.92,32.03-.03.43-.07.85-.11,1.28,0-.67,0-1.34.01-2.01h0Z"/><path class="cls-3" d="m78.48,221.98c-.52-59.77-6.42-119.3-13.58-178.59-1.75-14.45-2.55-29.93-10.19-42.74-.89-1.49-3.22-.14-2.33,1.36,7.16,12,8.01,26.43,9.65,39.98,1.74,14.36,3.41,28.73,4.95,43.11,3.1,28.99,5.68,58.04,7.24,87.16.89,16.56,1.43,33.14,1.57,49.73.02,1.72,2.71,1.73,2.69,0h0Z"/><g class="cls-2"><path class="cls-3" d="m24.67,128.55c3.76,4.6,7.75,9.01,11.9,13.26,4.1,4.18,8.38,8.18,12.85,11.98,3.99,3.4,8.23,6.84,13.29,8.56.67.22,1.36.43,2.05.59.44.11.95-.15,1.22-.49.3-.38.33-.82.21-1.26-1.59-5.65-3.96-11.04-6.84-16.14-2.87-5.07-6.28-9.82-10.05-14.25-3.88-4.56-8.14-8.79-12.63-12.75-4.57-4.04-9.38-7.8-14.3-11.4-4.93-3.61-9.98-7.07-15.03-10.5-.64-.43-1.27-.86-1.9-1.29-.57-.39-1.37-.34-1.83.23-.42.53-.38,1.42.2,1.81.41.28.82.56,1.23.84-.47.49-.45,1.1-.14,1.66,2.85,5.15,5.93,10.17,9.24,15.03,3.3,4.87,6.83,9.58,10.55,14.14h0Zm9.75-4.58c-2.11-2.4-4.22-4.79-6.35-7.18-.57-.63-1.14-1.27-1.71-1.9,3.72,3.12,7.21,6.51,10.45,10.06,2.28,2.5,4.46,5.09,6.57,7.73-2.94-2.95-5.95-5.84-8.96-8.72h0Zm-5.53-1.67c1.18,1.13,2.36,2.25,3.55,3.37.43.5.87.98,1.3,1.48,4.93,5.66,9.78,11.4,14.47,17.27-2.34-2.19-4.65-4.42-6.93-6.68-5.59-5.53-10.98-11.26-16.17-17.16-2.87-3.25-5.67-6.57-8.42-9.92,4.07,3.88,8.14,7.76,12.21,11.64h0Zm-12.92-12.32c-.43-.21-.95-.21-1.37.1l-.15.14c-.92-1.41-1.83-2.83-2.72-4.26,1.41,1.34,2.82,2.69,4.23,4.03h0Zm23.55,31.12c-4.05-4.06-7.92-8.31-11.6-12.72-.38-.46-.75-.92-1.13-1.37,1.37,1.57,2.76,3.12,4.16,4.66,5.53,6.07,11.29,11.94,17.25,17.6-2.98-2.64-5.87-5.36-8.68-8.18Zm16.51,3.47c1.32,2.18,2.53,4.43,3.63,6.75-3.49-5.46-7.1-10.85-10.99-16.04-2.54-3.41-5.2-6.73-8.01-9.93,1.73,1.71,3.4,3.46,5.02,5.28,3.85,4.34,7.36,8.98,10.36,13.95h0Zm-39.86-39.14l-.08.06-.37.66c-1.37-1.31-2.73-2.61-4.1-3.91,1.52,1.05,3.04,2.11,4.55,3.18Z"/></g></svg>