<?xml version="1.0" encoding="UTF-8"?><svg id="Capa_1" xmlns="http://www.w3.org/2000/svg" viewBox="0 0 200 200"><defs><style>.cls-1{fill:#fff;}</style></defs><path class="cls-1" d="m110.47,171.74c5.37-14.39,8.22-28.33,5.56-43.61-2.29-13.13-4.99-25.93-5.58-39.3-1.19-26.52,3.34-53.15,13.11-77.82.77-1.94,3.92-1.05,3.15.9-10,25.25-14.45,52.48-12.85,79.6.82,14.04,4.48,27.43,6.19,41.31,1.7,13.78-1.61,26.95-6.41,39.82-.73,1.95-3.88,1.07-3.15-.9Z"/><path class="cls-1" d="m115.56,124.1c9.86-20.21,20.83-40.38,25.94-62.45.48-2.05,3.62-1.14,3.15.9-5.18,22.33-16.3,42.79-26.28,63.24-.92,1.9-3.72.2-2.81-1.67h0Z"/><path class="cls-1" d="m106.72,38.83c.08-4.97.56-9.93,1.51-14.81.97-4.96,2.41-9.99,4.78-14.48,2.32-4.42,6.17-8.38,11.32-9.08,2.31-.31,4.62-.04,6.74.99,2.25,1.1,3.78,3.12,4.59,5.44,1.7,4.81.53,10.12-1.05,14.8-1.8,5.36-4,10.61-6.33,15.76-4.63,10.25-9.97,20.17-15.33,30.04.25,1.33.52,2.66.8,3.98.42,2.06-2.76,2.77-3.19.7-.24-1.18-.48-2.37-.72-3.56v-.03c-.35-.38-.53-.91-.35-1.49l.04-.14c-1.74-9.27-2.95-18.7-2.81-28.15v.02Zm19.78-29.71c-1.65,1.45-2.89,3.46-3.9,5.39-1.63,3.14-2.95,6.56-4.14,9.94-1.21,3.48-2.23,7.03-3.04,10.62-1.52,6.67-2.3,13.48-2.38,20.32.17-.58.36-1.16.53-1.75.19-.62.36-1.22.55-1.84-.43-.5-.59-1.23-.15-1.89.44-.65.87-1.29,1.29-1.94,3.85-12.92,7.6-25.87,11.25-38.84h0Zm.26-4.07l-.07-.05-.73-.18c-.93.33-1.77,1.07-2.55,1.79-.52.89-.99,1.8-1.46,2.71,1.31-1.75,2.88-3.25,4.8-4.28Zm-8.15,44.84l-.74.71c-.17.6-.36,1.2-.53,1.8.45-.87.9-1.73,1.34-2.6l-.07.09h0Zm.49-.89c.88-1.72,1.74-3.45,2.59-5.19-.86,1.46-1.74,2.89-2.64,4.3l.05.88Zm9.75-36.18c-.66,2.33-1.31,4.66-1.98,7-.41,1.4-.82,2.8-1.22,4.21,1.31-3.62,2.79-7.4,3.19-11.2h0Zm-18.84,30.66l.07,1.62v-.06c.16-2.4.36-4.8.63-7.2l-.7-.41c-.07,2.01-.06,4.03-.01,6.04h0Zm1.61,16.52c.16-.52.31-1.04.47-1.56l-.68.18.2,1.38Zm20.04-53.86l-.65-.74c.56,1.11.89,2.32,1.05,3.56.51.3.84.86.83,1.47-.16,3.33-.64,6.64-1.38,9.9l-.28,1.14c.29-.86.57-1.72.83-2.59.65-2.22,1.14-4.47,1.15-6.79,0-2.02-.33-4.27-1.55-5.96Z"/><path class="cls-1" d="m145.13,80.14c-4.17,7.67-9.32,14.77-15.23,21.2-1.05,1.13-2.72-.01-2.71-1.31l-.31-1c1.01-9.51,2.69-18.95,5.06-28.22,1.03-4.03,2.19-8.03,3.48-11.99,1.35-4.16,2.92-8.35,5.85-11.67,1.31-1.47,2.98-2.87,5-3.11,1.92-.23,3.73.49,5.17,1.74,2.94,2.57,3.2,7,2.73,10.61-.54,4.17-2,8.17-3.55,12.06-1.59,4-3.42,7.9-5.48,11.69h0Zm-5.62,3.17l-.48.05c-.37.81-.73,1.61-1.1,2.42.53-.81,1.05-1.64,1.56-2.47h.01Zm9-26.8c.32-1.08.51-2.19.46-3.31-.12,1.11-.27,2.21-.46,3.31Zm-7.01,8.15c-1.78,5.34-3.52,10.69-5.2,16.07.24-.64.5-1.28.74-1.92,1.72-4.63,3.28-9.34,4.47-14.14h0Zm-9.02,28.67c1.07-1.34,2.11-2.72,3.1-4.12l-.71-.05-.92-.76c-.5,1.64-.99,3.28-1.47,4.93Zm15.67-27.54l.14-.39c-.25.53-.5,1.08-.75,1.62-1.71,3.75-3.42,7.51-5.13,11.26.28-.5.55-1,.82-1.51,1.86-3.57,3.5-7.23,4.91-10.98h.01Zm-14.04,9.93c-.29,1.24-.57,2.49-.83,3.74,3.09-9.86,6.35-19.67,9.8-29.41-.78.99-1.43,2.07-2,3.2-1.77,3.45-2.83,7.32-3.94,11.03-1.12,3.79-2.14,7.6-3.03,11.45h0Z"/><path class="cls-1" d="m124.47,203.54c-8.15-7.7-10.9-18.64-13.45-29.18-2.91-12.05-5.3-24.23-8.36-36.25-6.03-23.63-15.11-47.42-33.79-64-1.57-1.4.58-3.84,2.17-2.45,17.54,15.56,27.09,37.47,33.21,59.67,3.29,11.95,5.75,24.12,8.52,36.2,2.67,11.6,4.84,25.01,13.88,33.54,1.52,1.44-.63,3.9-2.17,2.45v.02Z"/><path class="cls-1" d="m110.12,173.21c-10.33-23.68-40.56-28.45-54.88-48.91-1.2-1.72,1.54-3.52,2.74-1.79,14.57,20.83,44.6,25.3,55.24,49.68.85,1.92-2.27,2.93-3.11,1.02Z"/><path class="cls-1" d="m58.79,114.39c4.18,1.22,7.89,3.92,11.19,6.67,3.43,2.87,6.51,6.12,9.5,9.43,6.12,6.74,11.86,13.81,17.18,21.2.42.57.26,1.48-.21,1.98-.51.54-1.19.58-1.84.36l-.93.09c-1.1-.21-2.19-.44-3.28-.68-8.77-1.98-17.29-5.21-25.17-9.55-6.89-3.78-14.43-8.52-17.99-15.84-.87-1.82-1.63-3.8-1.6-5.85.03-2.02.78-3.91,2.18-5.36,2.83-2.93,7.17-3.55,10.96-2.45h0Zm23.89,29.9l-.07-.07h-.05s.11.07.11.07h0Zm-27.07-19.2c2.55,3.69,6.22,6.65,9.85,9.37,3.66,2.27,7.46,4.34,11.21,6.44,1.02.57,2.05,1.16,3.08,1.73-1.92-1.43-3.84-2.86-5.76-4.29-7.1-5.29-14.63-10.4-20.46-17.15.52,1.36,1.24,2.66,2.07,3.88h0Zm29.54,16.98c-1.36-1.66-2.74-3.29-4.14-4.93l-.1.29c.44.6.86,1.2,1.27,1.82.52.52,1.04,1.04,1.58,1.56.46.42.93.85,1.39,1.27Zm-36-21.4c-.26.64-.29,1.37-.22,2.12.39-.36,1.01-.57,1.57-.48-.33-.86-.59-1.75-.79-2.66l-.55,1.02h-.01Z"/><path class="cls-1" d="m63.11,60.49c5.58-.43,10.82,3.51,14.69,7.06,8.29,7.58,14.28,17.45,18.3,27.86,4.17,10.8,6.23,22.3,7.34,33.79.18,1.87-2.69,2.31-3.2.56l-.37-1.23-.96-1.01c-.52-1.24-1.09-2.44-1.71-3.62-5.12-9.89-12.9-18.04-20.81-25.75-3.87-3.77-7.81-7.48-11.28-11.63-3.48-4.17-6.81-8.91-8.38-14.19-.77-2.6-1.04-5.64.3-8.12,1.23-2.26,3.55-3.51,6.06-3.7h0Zm-1.78,13.18c.46,1.27,1.22,2.46,2.08,3.59.33.44.67.88,1.03,1.31-.81-1.16-1.61-2.33-2.34-3.53l-.76-1.37Zm14.65,12.73c-.44-.67-.88-1.35-1.32-2.02-1.78-2.67-3.66-5.3-5.74-7.75-1.28-1.5-2.63-2.98-4.14-4.22,1.35,2.77,3.38,5.2,5.45,7.46,1.96,2.14,3.98,4.25,5.76,6.54h0Zm2.2-8.17l-.74-.72c-.36-.34-.73-.66-1.1-.99,1.56,2.25,3,4.58,4.29,6.98.92,1.21,1.81,2.43,2.69,3.68-1.04-2.02-2.12-4.02-3.29-5.96-.6-1.01-1.22-2-1.85-2.98h0Zm-13.41-14.44h-.13s.09.05.09.05l.04-.05Zm14.76,28.23c-.49-.79-.99-1.58-1.48-2.37l-.04.62c.51.58,1.02,1.17,1.53,1.75Zm19.09,25.27c-.53-3.07-1.16-6.12-1.92-9.15-.59.12-1.16.08-1.69-.09l.09.2c.32.8-.16,1.56-.84,1.91,1.57,2.31,3.05,4.67,4.36,7.11h0Zm-14.02-37.02c-2.12-3.07-4.49-5.98-7.13-8.59,1.13,1.42,2.18,2.89,3.18,4.4,1.37,1.34,2.69,2.73,3.95,4.19Zm-24.85-14.1l.28-.24.1-.46-.38.7Zm18.13,28.89c-.58-.67-1.18-1.34-1.76-2.01-.62-.72-1.26-1.44-1.88-2.16l-1.15-.5c1.57,1.58,3.17,3.12,4.78,4.67Z"/></svg>