<?xml version="1.0" encoding="UTF-8"?><svg id="Capa_1" xmlns="http://www.w3.org/2000/svg" viewBox="0 0 200 200"><defs><style>.cls-1{fill:#fff;}</style></defs><path class="cls-1" d="m111.87,217.73c6.76-14.13,4.86-29.77,2.89-44.78-2.25-17.17-5.25-34.24-7.3-51.44-4-33.82-4.1-69.39,11.92-100.37,1.35-2.61-2.69-4.72-4.05-2.1-15.05,29.07-16.51,62.43-13.33,94.43,1.71,17.23,4.61,34.32,7.06,51.46,2.34,16.45,6.24,35.02-1.26,50.68-1.26,2.64,2.77,4.76,4.05,2.1l.02.02Z"/><path class="cls-1" d="m114.71,169.62c1.59-36.05,38.58-57.43,46.98-91.29.69-2.85-3.77-3.81-4.47-.95-8.54,34.45-45.43,55.36-47.07,92.47-.14,2.93,4.43,2.68,4.56-.23Z"/><path class="cls-1" d="m152.41,72.53c-3.94,2.96-6.74,7.32-9.09,11.56-2.43,4.42-4.33,9.12-6.12,13.83-3.65,9.62-6.76,19.44-9.3,29.44-.2.78.35,1.68,1.06,2.03.77.37,1.51.14,2.11-.35l1.02-.28c1.08-.66,2.15-1.33,3.2-2.03,8.5-5.59,16.2-12.42,22.76-20.18,5.74-6.77,11.75-14.82,12.44-24.04.16-2.29.12-4.71-.78-6.88-.88-2.14-2.49-3.86-4.6-4.85-4.25-2-9.14-.95-12.71,1.73h0Zm-12.76,41.38l.04-.1.06-.02-.09.12h0Zm20.68-31.22c-1.15,4.95-3.8,9.56-6.52,13.91-2.93,3.88-6.11,7.59-9.2,11.32-.85,1.02-1.69,2.06-2.55,3.07,1.44-2.29,2.87-4.58,4.31-6.86,5.32-8.46,11.17-16.9,14.51-26.41.02,1.65-.19,3.33-.56,4.96v.02Zm-24.26,29.84c.74-2.31,1.52-4.6,2.31-6.9l.22.27c-.21.81-.41,1.62-.58,2.44-.33.76-.67,1.52-1.02,2.29-.31.63-.63,1.27-.94,1.9Zm29.26-37.11c.55.58.89,1.35,1.13,2.18-.57-.23-1.32-.21-1.88.11-.02-1.05-.11-2.1-.28-3.16l1.01.87h.02Z"/><path class="cls-1" d="m120.06.5c-7.49,2.24-12.34,10.01-15.61,16.57-7,14.04-9.85,29.9-9.87,45.5-.02,16.16,3.08,32.19,7.39,47.73.7,2.53,4.66,1.66,4.44-.88l-.13-1.79.75-1.8c.06-1.88.2-3.72.41-5.58,1.71-15.46,7.76-29.98,14.2-44,3.15-6.85,6.42-13.68,8.86-20.82,2.45-7.18,4.41-15.04,3.8-22.7-.3-3.78-1.47-7.88-4.47-10.43-2.74-2.33-6.39-2.79-9.76-1.78h-.01Zm8.93,16.28c.03,1.89-.36,3.82-.9,5.72-.22.74-.43,1.48-.69,2.22.48-1.92.92-3.84,1.28-5.78l.31-2.16Zm-12.7,23.94c.23-1.09.48-2.2.71-3.29.99-4.37,2.12-8.75,3.6-12.98.91-2.6,1.93-5.21,3.28-7.58-.37,4.28-1.8,8.47-3.36,12.45-1.48,3.78-3.06,7.53-4.23,11.42h0Zm-6.96-9.54l.61-1.31c.3-.62.62-1.23.93-1.84-.9,3.71-1.61,7.47-2.08,11.26-.59,2.04-1.14,4.08-1.66,6.15.34-3.15.75-6.3,1.29-9.41.27-1.61.58-3.21.91-4.82v-.02Zm10.24-25.55l.16-.07-.08.11-.08-.04Zm-5.07,44.19c.25-1.28.5-2.56.74-3.83l.37.78c-.37,1.01-.74,2.04-1.11,3.05Zm-12.19,42.52c-.85-4.27-1.56-8.56-2.09-12.89.83-.14,1.56-.48,2.16-.96l-.02.31c-.02,1.2.99,1.96,2.06,2.06-.89,3.79-1.62,7.62-2.11,11.46v.02Zm-.31-55.29c1.22-5.06,2.86-10.05,4.98-14.77-.76,2.41-1.39,4.87-1.94,7.33-1.11,2.43-2.13,4.91-3.04,7.44Zm25.31-30.85l-.49-.17-.36-.55.85.72Zm-9.13,46.75c.43-1.16.86-2.34,1.29-3.5.45-1.25.92-2.51,1.36-3.76l1.25-1.22c-1.26,2.85-2.57,5.66-3.89,8.48Z"/><path class="cls-1" d="m116.19,199.03c-12.96-45.13-47.88-78.28-81.37-109.16-2.15-1.98-5.56,1.05-3.39,3.05,32.79,30.23,67.6,62.79,80.29,107.03.81,2.81,5.28,1.92,4.47-.92Z"/><path class="cls-1" d="m64.65,99.95c-6.94-11.21-16.24-22.57-29.55-26.08-2.47-.65-5.14-.96-7.72-.77-2.47-.92-5.04-1.08-6.86,1.37l-.33.85c-1.39.88-2.63,2.03-3.66,3.5-3.86,5.57-2.65,13.2-.05,19.02,5.65,12.66,17.89,20.71,29.01,28.14,14.25,9.55,28.51,19.1,42.77,28.64,1.03.68,2.5.31,3.15-.71.69-1.1.27-2.4-.71-3.15-1.28-.98-2.56-1.97-3.84-2.97-.61-1.8-1.24-3.6-1.89-5.38-5.37-14.74-12.05-29.15-20.32-42.48h-.01Zm-38.45-6.99l-.03-.11.04-.16.08-.22.05-.04c.79.9,1.57,1.8,2.36,2.7.76.85,1.51,1.66,2.28,2.49l-1.78-1.41-1.45-1.28c-.51-.66-1.03-1.31-1.52-1.99h-.01Zm26.75,15.04l-.25-.23.74.2-.14.03h-.14s-.2,0-.2,0h-.01Zm9.74,8.53c-1.16-.94-2.3-1.88-3.41-2.86-.82-.7-1.63-1.42-2.43-2.12l.97-.76c.86,1.08,1.84,2.03,2.99,2.79.65.96,1.28,1.95,1.89,2.95Zm4.61-2.65c3.74,7.07,7.14,14.32,10.14,21.73-3.13-2.94-6.27-5.88-9.44-8.77-.91-.84-1.84-1.68-2.76-2.5,1.05.82,2.13,1.61,3.2,2.4.82.59,2.07.4,2.77-.26.78-.72.87-1.82.45-2.75-1.48-3.25-3.16-6.42-5.03-9.46l.65-.37v-.03Zm-13.38,7.11l-2.01-1.74-.17-.32c.72.69,1.46,1.37,2.18,2.06Zm-31.87-41.47l.16-.12.11.15-.28-.04h.01Zm10.34,1.47l1.61,1.04-.13.2-1.58-.91c-1.53-.84-3.04-1.67-4.68-2.14l-1.05-1.48h.06s.33.17.33.17c1.85.97,3.67,2.01,5.44,3.11h0Zm47.77,61.63c-1.05-.83-2.12-1.67-3.17-2.5l1.3-.79.38-.67c.52,1.31,1.01,2.63,1.49,3.95Zm-30.48-19.28c-.83-.56-1.67-1.12-2.52-1.68l.93.3,1.58,1.38Zm4.6-30.33c-3.75-3.96-7.84-7.61-12.21-10.92l-1.6-1.16c5.45,2.96,9.94,7.24,13.82,12.08Z"/><path class="cls-1" d="m165.17,15.97c3.95-1.28,8.38-.92,11.85,1.49,1.35.93,2.45,2.17,3.33,3.56,3.87,1.61,5.52,6.25,5.59,10.2.06,3.6-1.35,7.41-3.73,10.11-5.39,6.12-14.44,7.34-21.44,3.33-3.5-2.02-6.09-5.52-6.85-9.49-.76-3.99.3-8.07,2.27-11.54,1.94-3.45,5.21-6.43,9.01-7.67h0Zm2.25,5.84l.2-.04-.19.05h0Zm-.37,18.71h.06s-.15-.02-.15-.02l.09.02Zm9.66-11.98l-.02.02h.01s0-.02,0-.02Zm-13.9,15.07h.01s.06.1.06.1l-.07-.1Zm4.79-13.97l-.4.22-.25.16-.35.24-.55.45h.08s.98.41.98.41l.7-1.35.31-.43h-.01s-.52.26-.52.26v.02Zm7.25-.13l-.18-.11-.23-.12-.6-.24-.79-.23-.71-.12-1.06-.06h-.04c1.18.33,1.99,1.27,2.26,2.46l.12.71c.37-.43.77-.86,1.2-1.28l.77-.48-.3-.24-.44-.3h0Z"/><path class="cls-1" d="m56.77,38.26c2.95-.96,6.26-.69,8.84,1.11,1.01.69,1.83,1.62,2.48,2.66,2.89,1.2,4.12,4.67,4.17,7.61.04,2.69-1.01,5.53-2.79,7.55-4.02,4.57-10.78,5.48-16.01,2.48-2.61-1.5-4.55-4.12-5.12-7.08-.57-2.98.23-6.02,1.69-8.61,1.45-2.58,3.89-4.8,6.72-5.72h0Zm1.68,4.36l.15-.03-.15.04h0Zm-.28,13.96h.04s-.11-.02-.11-.02l.07.02Zm7.21-8.94l-.02.02h.01s0-.02,0-.02Zm-10.37,11.24h.01s.04.08.04.08l-.05-.08Zm3.58-10.43l-.3.17-.18.12-.26.18-.41.34h.06s.73.31.73.31l.52-1.01.23-.32h-.01s-.39.19-.39.19v.02Zm5.41-.1l-.13-.08-.17-.09-.45-.18-.59-.17-.53-.09-.79-.05h-.03c.88.25,1.48.95,1.69,1.84l.09.53c.28-.32.58-.64.9-.95l.58-.36-.23-.18-.33-.22h0Z"/><path class="cls-1" d="m136.53,148.06c1.58-.51,3.35-.37,4.74.59.54.37.98.87,1.33,1.42,1.55.64,2.21,2.5,2.23,4.08.02,1.44-.54,2.96-1.49,4.04-2.16,2.45-5.77,2.93-8.58,1.33-1.4-.81-2.44-2.21-2.74-3.8-.31-1.6.12-3.23.91-4.62.78-1.38,2.08-2.57,3.6-3.07h0Zm.9,2.34l.08-.02-.08.02h0Zm-.15,7.48h.02s-.06,0-.06,0h.04Zm3.86-4.79h0s0,.01,0,.01h0Zm-5.56,6.02h0s.02.04.02.04l-.03-.04Zm1.92-5.59l-.16.09-.1.06-.14.1-.22.18h.03s.39.16.39.16l.28-.54.12-.17h0s-.21.1-.21.1h0Zm2.9-.05l-.07-.04-.09-.05-.24-.1-.32-.09-.28-.05-.42-.03h-.02c.47.13.79.51.9.98l.05.28c.15-.17.31-.34.48-.51l.31-.19-.12-.1-.18-.12h0Z"/></svg>