<?xml version="1.0" encoding="UTF-8"?><svg id="Layer_1" xmlns="http://www.w3.org/2000/svg" viewBox="0 0 447.08 163.47"><defs><style>.cls-1{fill:#5b4425;}.cls-1,.cls-2,.cls-3,.cls-4{stroke-width:0px;}.cls-2{fill:#0c715c;}.cls-3{fill:#c3e5dc;}.cls-4{fill:#fff;}</style></defs><path class="cls-3" d="m102.16,129.58c-10.38,6.34-23.02,9.47-34.9,10.88-2.61.31-5.23.51-7.85.53-22.14.14-38.48-18.33-46.41-34.11-1.33-2.64-2.49-5.35-3.4-8.15C.99,72.27,17.54,37.71,45.78,22.17c16.27-8.96,34.83-7.43,50.38-.9,15.43,6.47,33.29,17.61,36.13,33.53,2.33,13.04,1.72,27.08-2.47,39.69-4.3,12.94-13.14,24.8-24.17,32.78-1.13.82-2.29,1.59-3.48,2.31Z"/><path class="cls-2" d="m30.95,91.2c-.07-.09-.14-.19-.24-.27-2.32-2.03-5.09-3.46-8.11-4.1-2.45-.52-5.29-.65-7.54.6-4.09,2.26-6.48,6.66-9.55,10.02-.18.13-.34.29-.44.52-.03.06-.05.13-.06.2,0,0,0,.01,0,.02,0,.02,0,.03,0,.05-.06.23-.05.46.04.68.11.4.36.75.75.87,4.6,1.35,9.37,4.21,14.31,3.72,2.41-.24,4.7-1.86,6.42-3.47,2.18-2.05,3.79-4.6,4.74-7.44.19-.56.02-1.05-.29-1.4Z"/><path class="cls-2" d="m11.97,65.02c2.82,1.81,6.55,2,9.81,1.7,3.99-.38,7.77-1.87,11.09-4.1.85-.57.91-1.45.55-2.15-.76-3.63-2.23-7.09-4.55-10.01-2.05-2.57-4.85-5.21-8.13-6.02-3.11-.77-6.53-.15-9.6.5-3.06.65-6.07,1.57-9.15,2.1-1.32-.06-2.65,1.5-1.63,2.9.03.04.06.09.09.13.02.03.04.05.06.08,3.55,4.97,6.17,11.47,11.47,14.87Z"/><path class="cls-2" d="m40.17,32.69c3.43,3,7.61,4.94,12.04,5.94,1.14.26,1.9-.39,2.16-1.24,2.73-3.9,4.56-8.42,4.95-13.19.3-3.8.02-7.89-2.28-11.06-4-5.51-10.64-8.36-15.98-12.34-.37-.5-1-.78-1.65-.8-.02,0-.04,0-.05,0-.93,0-1.88.52-2.1,1.69-.67,3.51-1.77,6.94-2.57,10.42-.8,3.51-1.58,7.4-.9,11,.72,3.81,3.54,7.09,6.38,9.58Z"/><path class="cls-2" d="m195.8,5.56c-.58-.55-1.38-.83-2.38-.83h-2.92c-1.79,0-3.03,1.08-3.29,2.85-1.26,7.26-3.52,15.48-6.71,24.41l-1.85,4.94-9.14-30.04c-.15-.56-.45-1.04-.89-1.45-.5-.47-1.13-.71-1.82-.71h-4.49c-.85,0-1.57.37-2.02,1.04-.35.52-.53,1.07-.53,1.64,0,.45.06.83.19,1.16l11.99,35.3c.5,1.42,1.3,2.49,2.36,3.16.71.45,1.79.65,3.42.65h1.39c1.66,0,2.9-.32,3.75-.96.48-.34.92-.88,1.35-1.64.34-.61.94-1.88,1.84-3.89l1.81-4.31c.71-1.68,1.93-4.88,3.62-9.51.63-1.71,1.24-3.47,1.8-5.22,2.31-7.13,3.43-11.76,3.43-14.14v-.58c0-.66-.3-1.29-.91-1.86Z"/><path class="cls-2" d="m205.32,14.41c-1.1,0-2.03-.38-2.8-1.13-.77-.74-1.16-1.68-1.16-2.8s.39-2.03,1.16-2.8c.74-.74,1.68-1.11,2.8-1.11,1.72,0,2.93.79,3.62,2.37.21.47.31.98.31,1.55,0,1.13-.39,2.06-1.16,2.8-.77.76-1.7,1.13-2.78,1.13Zm2.83,25.27c0,1.14.38,1.72,1.13,1.72.26,0,.55-.07.87-.22.63-.27,1.05-.41,1.28-.41.34,0,.61.23.82.7l.75,1.69c.13.27.19.53.19.77,0,.69-.6,1.34-1.79,1.93-1.13.58-2.24.87-3.35.87s-1.99-.12-2.65-.36c-.66-.24-1.22-.64-1.69-1.21-.93-1.16-1.4-3.04-1.4-5.65v-18.85c0-.45.13-.83.39-1.13s.56-.46.92-.46h3.24c.37,0,.68.15.92.46s.36.68.36,1.13v19.01Z"/><path class="cls-2" d="m226.43,41.98c3.09,0,4.64-1.04,4.64-3.12,0-1.14-.88-2.11-2.63-2.9-.74-.34-1.55-.65-2.43-.94-.88-.29-1.72-.64-2.52-1.04-.81-.4-1.56-.84-2.26-1.32s-1.31-1.02-1.82-1.63c-1.06-1.29-1.59-2.92-1.59-4.9,0-2.42,1.01-4.33,3.02-5.75,1.79-1.27,3.99-1.91,6.6-1.91,2.8,0,5.15.55,7.03,1.64.64.39.97.83.97,1.33,0,.71-.19,1.49-.57,2.33-.38.85-.82,1.27-1.33,1.27s-.97-.1-1.38-.31c-.41-.21-.78-.39-1.11-.54-.33-.15-.68-.28-1.05-.37-.81-.24-1.55-.36-2.23-.36s-1.24.05-1.65.15c-.42.1-.8.25-1.14.46-.82.5-1.23,1.11-1.23,1.84s.17,1.28.5,1.67c.33.39.79.74,1.37,1.06.58.32,1.27.64,2.08.97l2.61,1.09c2.11.92,3.54,1.75,4.28,2.49,1.45,1.48,2.17,3.2,2.17,5.15,0,2.45-.84,4.46-2.51,6.04-1.85,1.72-4.49,2.59-7.9,2.59s-6.06-.67-7.8-2.01c-.85-.64-1.28-1.22-1.28-1.74s.09-.98.28-1.39c.19-.41.43-.89.72-1.45.3-.56.7-.83,1.21-.83s1.05.23,1.62.69c.57.46,1.36.87,2.36,1.23,1,.36,2,.54,3.02.54Z"/><path class="cls-2" d="m246.56,14.41c-1.1,0-2.03-.38-2.8-1.13-.77-.74-1.16-1.68-1.16-2.8s.39-2.03,1.16-2.8c.74-.74,1.68-1.11,2.8-1.11,1.72,0,2.93.79,3.62,2.37.21.47.31.98.31,1.55,0,1.13-.39,2.06-1.16,2.8-.77.76-1.7,1.13-2.78,1.13Zm2.83,25.27c0,1.14.38,1.72,1.13,1.72.26,0,.55-.07.87-.22.63-.27,1.05-.41,1.28-.41.34,0,.61.23.82.7l.75,1.69c.13.27.19.53.19.77,0,.69-.6,1.34-1.79,1.93-1.13.58-2.24.87-3.35.87s-1.99-.12-2.64-.36c-.66-.24-1.23-.64-1.69-1.21-.93-1.16-1.4-3.04-1.4-5.65v-18.85c0-.45.13-.83.39-1.13.26-.31.56-.46.92-.46h3.24c.37,0,.68.15.92.46s.36.68.36,1.13v19.01Z"/><path class="cls-2" d="m291.19,20.82c0-1.16.55-1.74,1.67-1.74h1.33c.9,0,1.51.34,1.84,1.02.45.97.84,2.24,1.16,3.82,1.45-2.64,3.61-4.33,6.48-5.07.9-.24,2.02-.36,3.37-.36s2.59.29,3.73.86,2.05,1.36,2.71,2.36c1.22,1.82,1.84,4.5,1.84,8.05v15c0,.45-.15.83-.43,1.14-.29.31-.72.46-1.28.46h-2.37c-.61,0-1.06-.15-1.35-.46-.29-.31-.43-.68-.43-1.14v-15.03c0-4.12-1.51-6.19-4.54-6.19-1.77,0-3.39.74-4.86,2.22-1.56,1.59-2.34,3.45-2.34,5.56v13.43c0,.45-.14.83-.41,1.14s-.69.46-1.26.46h-2.49c-.56,0-.99-.15-1.28-.46-.29-.31-.44-.68-.44-1.14v-14.83c0-3.24-.1-5.5-.31-6.78s-.31-2.05-.31-2.31Z"/><path class="cls-2" d="m271.73,18.08c.75.15.96,1.17.31,1.59,0,0,0,0-.01,0-2.34,1.49-2.88,5.45-2.09,7.43.48,1.21,1.22,2.43,2.15,3.33,3.17,3.08,8.36,1.41,9.45-2.94.06-.24.12-.48.18-.72.2-.85,1.4-.91,1.67-.08,0,0,0,.01,0,.02,1.09,3.43,1.79,6.86.58,10.46-1.88,5.61-5.75,8.84-11.48,9.92-5.9,1.12-10.15-1.75-13.4-6.17-4.5-6.1-2.95-13.77.65-18.31,2.4-3.02,7.64-5.43,11.99-4.55Z"/><path class="cls-2" d="m191.92,121.46c-.35-.42-.99-.93-2.08-.93h-25.94c-.78,0-1.5.27-2.06.77-.61.55-.94,1.25-.94,2.04v2.76c0,.81.32,1.52.93,2.07.57.51,1.28.77,2.06.77h8.13v31.5c0,.77.25,1.48.74,2.05.54.64,1.25.98,2.05.98h3.7c.8,0,1.51-.33,2.05-.96.5-.57.76-1.29.76-2.06v-31.5h8.48c1.08,0,1.72-.49,2.07-.91.45-.53.69-1.19.69-1.91v-2.76c0-.73-.23-1.39-.66-1.91Z"/><path class="cls-2" d="m195.03,149.83l-.02.46c0,2.21.7,3.98,2.1,5.32,1.47,1.42,3.46,2.13,5.97,2.13,2.29,0,4.41-.68,6.38-2.05.37-.26.7-.39.99-.39.6,0,1.05.3,1.35.89l.65,1.35c.15.32.22.67.22,1.04s-.17.75-.5,1.15c-.33.39-.76.75-1.29,1.08s-1.15.6-1.85.85-1.42.44-2.16.6c-1.48.32-3.03.48-4.64.48s-3.23-.31-4.87-.92c-1.64-.61-3.05-1.51-4.24-2.68-2.56-2.5-3.84-5.87-3.84-10.12,0-7.46,2.63-12.1,7.88-13.92,1.64-.56,3.33-.85,5.06-.85s3.2.19,4.42.56,2.27.92,3.15,1.64c1.87,1.53,2.8,3.66,2.8,6.4s-1.1,4.74-3.29,6.16c-1.92,1.24-4.45,1.86-7.59,1.86-1.93,0-4.16-.35-6.69-1.04Zm11.89-7.05c0-2.3-1.55-3.46-4.64-3.46s-5.01,1.08-6.19,3.24c-.42.76-.69,1.69-.82,2.8,1.39.69,3.15,1.04,5.29,1.04,4.24,0,6.35-1.21,6.35-3.62Z"/><path class="cls-2" d="m241.76,160.85c0,.85-.42,1.28-1.26,1.28h-2.34c-.63,0-1.01-.12-1.14-.37-.13-.25-.2-.47-.22-.68-.02-.2-.05-.45-.1-.74-.1-.79-.23-1.64-.41-2.56-1.26,2.3-3.23,3.83-5.92,4.57-.95.26-2,.39-3.14.39s-2.29-.19-3.43-.57c-1.14-.38-2.16-.94-3.04-1.68-2-1.68-3-3.87-3-6.6,0-2.98,1.1-5.26,3.29-6.84,1.8-1.27,4.12-1.91,6.96-1.91s5.23.83,7.2,2.49c.05-.55.07-1.23.07-2.05s-.16-1.64-.48-2.46-.78-1.51-1.38-2.05c-1.22-1.08-2.93-1.62-5.12-1.62-1.97,0-3.96.54-5.99,1.62-.39.21-.72.31-1.01.31-.44,0-.85-.43-1.26-1.28-.43-.87-.65-1.5-.65-1.88,0-.71.53-1.39,1.59-2.05,2.03-1.26,4.74-1.88,8.14-1.88,3.09,0,5.65.85,7.68,2.54,2.4,2.03,3.6,4.9,3.6,8.6,0,1.64-.27,3.71-.8,6.21,1.37,3.9,2.09,6.97,2.15,9.23Zm-16.19-10.26c-.66.49-1.13.98-1.41,1.46-.28.48-.42,1.05-.42,1.7s.12,1.23.35,1.74c.23.51.56.93.98,1.27.89.69,1.88,1.04,2.98,1.04s2.01-.13,2.72-.39c.71-.26,1.32-.59,1.84-.99,1.11-.87,1.67-1.79,1.67-2.75-.1-1.21-.76-2.16-2-2.85-1.11-.64-2.43-.97-3.94-.97-1.18,0-2.09.24-2.75.74Z"/><path class="cls-2" d="m263.6,134.27c4.06,0,6.63,1.81,7.71,5.44,1.61-2.59,3.74-4.28,6.4-5.07.9-.26,2.04-.39,3.41-.39s2.69.34,3.97,1.02c1.28.68,2.23,1.56,2.85,2.65s1.01,2.28,1.18,3.59.25,2.71.25,4.2v14.83c0,.45-.15.83-.43,1.14-.29.31-.72.46-1.28.46h-2.37c-.61,0-1.06-.15-1.35-.46s-.43-.68-.43-1.14v-15.05c0-2.08-.36-3.62-1.08-4.64-.72-1.01-1.85-1.52-3.39-1.52-1.76,0-3.29.77-4.61,2.32-1.42,1.61-2.13,3.61-2.13,5.99v12.9c0,.45-.15.83-.43,1.14-.29.31-.72.46-1.28.46h-2.37c-.61,0-1.06-.15-1.35-.46s-.43-.68-.43-1.14v-15.05c0-2.08-.36-3.62-1.08-4.64-.72-1.01-1.85-1.52-3.39-1.52-1.76,0-3.3.77-4.64,2.32-1.4,1.61-2.1,3.61-2.1,5.99v12.9c0,.45-.14.83-.41,1.14s-.69.46-1.26.46h-2.49c-.56,0-.99-.15-1.28-.46s-.43-.68-.43-1.14v-14.83c0-3.24-.1-5.5-.31-6.78s-.31-2.05-.31-2.31c0-1.16.56-1.74,1.67-1.74h1.33c.9,0,1.51.34,1.84,1.02.39.82.76,2.09,1.11,3.82,1.4-2.53,3.43-4.2,6.09-5.03.9-.27,1.85-.41,2.85-.41Z"/><path class="cls-2" d="m192.21,78.36c0-1.16.56-1.74,1.67-1.74h1.33c.9,0,1.51.34,1.84,1.02.45.97.84,2.24,1.16,3.82,1.45-2.64,3.61-4.33,6.48-5.07.9-.24,2.03-.36,3.37-.36s2.59.29,3.73.86c1.14.57,2.05,1.36,2.71,2.36,1.22,1.82,1.84,4.5,1.84,8.05v15c0,.45-.14.83-.43,1.14s-.72.46-1.28.46h-2.37c-.61,0-1.06-.15-1.35-.46s-.43-.68-.43-1.14v-15.03c0-4.12-1.51-6.19-4.54-6.19-1.77,0-3.39.74-4.86,2.22-1.56,1.59-2.34,3.45-2.34,5.56v13.43c0,.45-.14.83-.41,1.14s-.69.46-1.26.46h-2.49c-.56,0-.99-.15-1.28-.46-.29-.31-.44-.68-.44-1.14v-14.83c0-3.24-.1-5.5-.31-6.78s-.31-2.05-.31-2.31Z"/><path class="cls-2" d="m239.92,80.29c0,.9-.51,1.35-1.52,1.35h-6.81v15.17c0,1.64.81,2.46,2.44,2.46,1.03,0,2.37-.52,4.03-1.55.32-.21.67-.31,1.05-.31s.68.27.91.8l.56,1.26c.21.48.31.89.31,1.23s-.25.73-.76,1.17-1.16.84-1.95,1.2c-1.79.8-3.41,1.21-4.86,1.21s-2.6-.15-3.44-.45c-.85-.3-1.57-.74-2.16-1.34-1.29-1.26-1.93-3.07-1.93-5.44v-15.41h-2.03c-1.02,0-1.52-.46-1.52-1.38v-1.38c0-.37.1-.66.29-.87.19-.21.57-.37,1.13-.48l2.42-.7.92-5.68c.18-1.06.61-1.59,1.31-1.59h2c.37,0,.68.15.92.45.24.3.36.68.36,1.15v5.46h6.81c1.01,0,1.52.44,1.52,1.33v2.34Z"/><path class="cls-2" d="m249.78,91.57l-.02.46c0,2.21.7,3.98,2.1,5.32,1.47,1.42,3.46,2.13,5.97,2.13,2.29,0,4.41-.68,6.38-2.05.37-.26.7-.39.99-.39.6,0,1.05.3,1.35.89l.65,1.35c.15.32.22.67.22,1.04s-.16.75-.49,1.15c-.33.39-.76.75-1.29,1.08-.53.32-1.15.6-1.85.85-.7.24-1.42.44-2.16.6-1.48.32-3.03.48-4.64.48s-3.23-.31-4.87-.92-3.05-1.51-4.24-2.68c-2.56-2.5-3.84-5.87-3.84-10.12,0-7.46,2.63-12.1,7.88-13.92,1.64-.56,3.33-.85,5.06-.85s3.2.19,4.42.56c1.22.37,2.27.92,3.15,1.64,1.87,1.53,2.8,3.66,2.8,6.4s-1.1,4.74-3.29,6.16c-1.92,1.24-4.45,1.86-7.59,1.86-1.93,0-4.16-.35-6.69-1.04Zm11.89-7.05c0-2.3-1.54-3.46-4.64-3.46s-5.01,1.08-6.19,3.24c-.42.76-.69,1.69-.82,2.8,1.39.69,3.15,1.04,5.29,1.04,4.24,0,6.35-1.21,6.35-3.62Z"/><path class="cls-2" d="m281.24,101.28c1.51-.74,3.12-1.11,4.82-1.11s3.21.16,4.54.47c1.33.31,2.52.81,3.59,1.49,2.38,1.51,3.58,3.63,3.58,6.35s-1.35,5.11-4.06,6.84c-2.4,1.51-5.28,2.27-8.65,2.27s-6.29-.74-8.58-2.22c-2.46-1.61-3.7-3.8-3.7-6.57,0-3.37,1.78-6.62,5.34-9.76,1.38-1.21,2.91-2.3,4.59-3.26-2.63-.24-4.86-1.17-6.72-2.78-2.08-1.82-3.12-4.08-3.12-6.79,0-3.11,1.17-5.63,3.5-7.56,2.14-1.76,4.69-2.63,7.66-2.63,3.19,0,5.69.86,7.51,2.58.56.53,1.01,1.14,1.35,1.81,0-1.48-.19-3.02-.57-4.6-.38-1.59-.57-2.53-.57-2.84s.06-.55.18-.74.26-.33.42-.42c.24-.15.51-.22.82-.22h2.08c1.34,0,2,1.86,2,5.58,0,2.98-.6,5.73-1.79,8.24.03.35.05.82.05,1.4s-.13,1.26-.39,2.03c-.26.77-.6,1.49-1.03,2.16-.43.67-.92,1.28-1.47,1.85-.55.56-1.14,1.09-1.76,1.57s-1.24.93-1.87,1.33c-3.53,2.24-5.64,3.64-6.33,4.19-.69.56-1.17,1-1.45,1.34Zm-2.27,4.47c-.59.68-.89,1.42-.89,2.25s.2,1.52.61,2.1c.4.58.93,1.06,1.59,1.45,1.27.73,2.87,1.09,4.78,1.09,3.03,0,5.14-.75,6.33-2.25.39-.5.58-1.13.58-1.88s-.24-1.4-.71-1.93c-.47-.53-1.07-.94-1.78-1.23-1.17-.48-2.7-.73-4.59-.73-2.9,0-4.87.38-5.92,1.14Zm1.16-15.69c.55.48,1.19.84,1.92,1.09.73.25,1.51.37,2.34.37s1.59-.13,2.28-.37c.69-.25,1.3-.62,1.84-1.1,1.13-1.02,1.69-2.32,1.69-3.91s-.63-2.91-1.88-3.84c-1.11-.82-2.48-1.23-4.11-1.23-2.58,0-4.36.96-5.34,2.88-.32.63-.48,1.36-.48,2.19s.15,1.57.46,2.23c.31.66.73,1.23,1.28,1.7Z"/><path class="cls-2" d="m302.81,78.36c0-1.16.51-1.74,1.52-1.74h1.31c.89,0,1.51.39,1.88,1.16.53,1.13.92,2.68,1.16,4.66,0,.03.01.05.04.05s.08-.27.16-.82c.08-.55.31-1.22.7-2.02.39-.8.86-1.47,1.42-2.02,1.14-1.08,2.55-1.62,4.2-1.62,1.85,0,3.14.31,3.87.92.34.27.47.65.41,1.14l-.39,3.04c-.1.82-.52,1.23-1.26,1.23-.36,0-.79-.07-1.31-.22-1-.26-1.79-.39-2.37-.39s-1.19.25-1.84.76-1.2,1.14-1.67,1.9c-.95,1.58-1.42,3.26-1.42,5.05v12.83c0,.45-.13.83-.39,1.14-.26.31-.63.46-1.11.46h-2.8c-.52,0-.91-.15-1.17-.46s-.4-.68-.4-1.14v-16.65c0-2.83-.09-4.71-.28-5.62-.19-.91-.28-1.46-.28-1.65Z"/><path class="cls-2" d="m345.94,102.59c0,.85-.42,1.28-1.26,1.28h-2.34c-.63,0-1.01-.12-1.14-.37-.13-.25-.2-.47-.22-.68-.02-.2-.05-.45-.1-.74-.1-.79-.23-1.64-.41-2.56-1.26,2.3-3.23,3.83-5.92,4.57-.95.26-2,.39-3.14.39s-2.29-.19-3.43-.57c-1.14-.38-2.16-.94-3.04-1.68-2-1.68-3-3.87-3-6.6,0-2.98,1.1-5.26,3.29-6.84,1.8-1.27,4.12-1.91,6.96-1.91s5.24.83,7.2,2.49c.05-.55.07-1.23.07-2.05s-.16-1.64-.48-2.46c-.32-.82-.78-1.51-1.38-2.05-1.23-1.08-2.93-1.62-5.12-1.62-1.97,0-3.96.54-5.99,1.62-.39.21-.73.31-1.01.31-.44,0-.85-.43-1.26-1.28-.43-.87-.65-1.5-.65-1.88,0-.71.53-1.39,1.59-2.05,2.03-1.26,4.74-1.88,8.14-1.88,3.09,0,5.65.85,7.68,2.54,2.4,2.03,3.6,4.9,3.6,8.6,0,1.64-.27,3.71-.8,6.21,1.37,3.9,2.09,6.97,2.15,9.23Zm-16.19-10.26c-.66.49-1.13.98-1.41,1.46s-.42,1.05-.42,1.7.12,1.23.35,1.74c.23.51.56.93.98,1.27.89.69,1.88,1.04,2.98,1.04s2.01-.13,2.72-.39c.71-.26,1.32-.59,1.84-.99,1.11-.87,1.67-1.79,1.67-2.75-.1-1.21-.77-2.16-2-2.85-1.11-.64-2.43-.97-3.94-.97-1.18,0-2.09.24-2.75.74Z"/><path class="cls-2" d="m367.66,80.29c0,.9-.51,1.35-1.52,1.35h-6.81v15.17c0,1.64.81,2.46,2.44,2.46,1.03,0,2.37-.52,4.03-1.55.32-.21.67-.31,1.05-.31s.68.27.91.8l.56,1.26c.21.48.31.89.31,1.23s-.25.73-.76,1.17-1.16.84-1.94,1.2c-1.79.8-3.41,1.21-4.86,1.21s-2.6-.15-3.44-.45c-.85-.3-1.57-.74-2.16-1.34-1.29-1.26-1.93-3.07-1.93-5.44v-15.41h-2.03c-1.01,0-1.52-.46-1.52-1.38v-1.38c0-.37.1-.66.29-.87.19-.21.57-.37,1.14-.48l2.42-.7.92-5.68c.18-1.06.61-1.59,1.31-1.59h2c.37,0,.68.15.92.45.24.3.36.68.36,1.15v5.46h6.81c1.01,0,1.52.44,1.52,1.33v2.34Z"/><path class="cls-2" d="m376.41,71.95c-1.1,0-2.03-.38-2.8-1.13-.77-.74-1.16-1.68-1.16-2.8s.39-2.03,1.16-2.8c.74-.74,1.68-1.11,2.8-1.11,1.72,0,2.93.79,3.62,2.37.21.47.31.98.31,1.55,0,1.13-.39,2.06-1.16,2.8-.77.76-1.7,1.13-2.78,1.13Zm2.83,25.27c0,1.14.38,1.72,1.14,1.72.26,0,.55-.07.87-.22.63-.27,1.05-.41,1.28-.41.34,0,.61.23.82.7l.75,1.69c.13.27.19.53.19.77,0,.69-.59,1.34-1.79,1.93-1.13.58-2.24.87-3.35.87s-1.99-.12-2.65-.36-1.22-.64-1.69-1.21c-.93-1.16-1.4-3.04-1.4-5.65v-18.85c0-.45.13-.83.39-1.13.26-.31.56-.46.92-.46h3.24c.37,0,.68.15.92.46s.36.68.36,1.13v19.01Z"/><path class="cls-2" d="m388.41,90.15c0-2.09.35-4.01,1.05-5.76.7-1.75,1.66-3.24,2.89-4.48,2.56-2.59,5.79-3.89,9.69-3.89,4.36,0,7.75,1.3,10.15,3.89,2.32,2.5,3.48,5.93,3.48,10.29s-1.31,7.67-3.94,10.34c-2.56,2.63-5.79,3.94-9.69,3.94-4.11,0-7.41-1.34-9.91-4.04-2.48-2.63-3.72-6.06-3.72-10.29Zm7.77-6.15c-.6.89-1.04,1.91-1.32,3.04-.28,1.14-.41,2.29-.41,3.46s.16,2.29.47,3.36c.31,1.07.79,2.03,1.41,2.86,1.39,1.84,3.32,2.75,5.8,2.75s4.45-.9,5.75-2.71c1.16-1.58,1.74-3.73,1.74-6.45,0-4.07-1.34-6.88-4.01-8.43-.98-.56-2.17-.85-3.56-.85s-2.57.27-3.53.81c-.96.54-1.74,1.26-2.34,2.15Z"/><path class="cls-2" d="m422.97,78.36c0-1.16.56-1.74,1.67-1.74h1.33c.9,0,1.51.34,1.84,1.02.45.97.84,2.24,1.16,3.82,1.45-2.64,3.61-4.33,6.47-5.07.9-.24,2.03-.36,3.37-.36s2.59.29,3.73.86c1.14.57,2.05,1.36,2.71,2.36,1.22,1.82,1.84,4.5,1.84,8.05v15c0,.45-.14.83-.43,1.14-.29.31-.72.46-1.28.46h-2.37c-.61,0-1.06-.15-1.35-.46-.29-.31-.43-.68-.43-1.14v-15.03c0-4.12-1.51-6.19-4.54-6.19-1.77,0-3.39.74-4.86,2.22-1.56,1.59-2.34,3.45-2.34,5.56v13.43c0,.45-.14.83-.41,1.14s-.69.46-1.26.46h-2.49c-.56,0-.99-.15-1.28-.46s-.43-.68-.43-1.14v-14.83c0-3.24-.1-5.5-.31-6.78s-.31-2.05-.31-2.31Z"/><path class="cls-2" d="m184.47,69.83c1.46,0,2.65-1.19,2.65-2.65v-2.95c0-1.46-1.19-2.65-2.65-2.65h-15.19c-1.46,0-2.65,1.19-2.65,2.65v2.95c0,1.46,1.19,2.65,2.65,2.65h3.04v27.71h-3.04c-1.46,0-2.65,1.19-2.65,2.65v2.95c0,1.46,1.19,2.65,2.65,2.65h15.19c1.46,0,2.65-1.19,2.65-2.65v-2.95c0-1.46-1.19-2.65-2.65-2.65h-2.86v-27.71h2.86Z"/><path class="cls-1" d="m72.38,106.76l.66.86-.52-4.77c-.08-.76-.86-1.24-1.58-.98l-3.97,1.47c-.42.16-.72.54-.76.98l-.32,3.07c-.04.34.27.62.6.55l5.89-1.18Z"/><path class="cls-1" d="m90.71,133.12c-2.1.11-4.14.75-6.14,1.35-1.91.57-3.76,1.35-5.54,2.26-1.58.81-3.81,2.11-4-.71-.29-4.27-.5-8.54-.68-12.82-.06-1.32-.11-2.63-.17-3.95-.11-2.18-1.87-3.85-4.04-3.98-.01,0-.02,0-.04,0-1.98-.13-3.68-.51-4.77.56-1.38,1.35,1.19,7.47-2.88,6.25-2.19-.66-3.76-1.22-5.83-2.17-1.8-.82-3.69-1.4-5.55-2.07s-3.98-1.3-5.66-1.95c-1.1-.44-2.02.87-1.11,1.58,2.92,2.85,6.2,4.99,9.29,7.64,2.43,2.08,5.03,4.43,6.86,7.1,2.03,2.96,2.53,6.79,2.12,10.29-.41,3.51-.74,7.05-1.29,10.53-.28,1.79-.73,3.86,1.36,4.68,1.15.45,2.4.28,3.6.26,2.15-.04,4.29-.08,6.43.04,1.14.06,2.92.37,3.6-.85.68-1.09.16-2.67.27-3.88.33-3.61,1.42-6.86,3.84-9.61,1.97-2.23,4.47-3.87,6.85-5.62,1.44-1.06,2.85-2.18,4.09-3.48.74-.78.32-1.55-.59-1.47Z"/><path class="cls-4" d="m100.85,77.27c.61,16.87-13.68,30.56-30.56,30.56s-30.56-13.68-30.56-30.56,16.46-31.14,28.98-31.35c9.19-.16,24.04,6.94,29.22,17.59,2.18,4.48,2.75,9.2,2.92,13.76Z"/><path class="cls-2" d="m98.79,65.39c-.26-.68-.56-1.35-.88-2.01-.2-.41-.72-1.63-1.02-.6-1.34,4.54-3.08,9.17-7.05,12.06-2.64,1.92-6,2.79-9.23,2.28-2.48-.39-4.77-1.58-6.56-3.33-2.04-1.98-3.66-4.67-4.73-7.33-1.32-3.29-1.1-7.23-.09-10.57.53-1.75,1.34-3.44,2.5-4.87.83-1.01,1.91-1.78,3.03-2.43.57-.33,1.14-.63,1.73-.93,1.11-.57-.73-.88-1.16-.99-3.41-.88-6.93-1.06-10.4-.47-6.92,1.17-13.66,4.89-18.05,10.41-7.92,9.99-11.34,26.87-1.44,40.29,7.17,9.72,16.51,16.03,29.5,13.57,9.25-1.75,18.61-6.06,23-14.93,3.89-7.86,4.29-17.51,2.2-25.93-.36-1.43-.8-2.85-1.33-4.22Z"/></svg>