<?xml version="1.0" encoding="UTF-8"?><svg id="Layer_1" xmlns="http://www.w3.org/2000/svg" viewBox="0 0 450.53 170.36"><defs><style>.cls-1{fill:#fff;}.cls-2{fill:#c3e5dc;}.cls-3{fill:#0c715c;}.cls-4{fill:#5b4425;}</style></defs><path class="cls-2" d="m110.08,139.63c-11.18,6.83-24.8,10.21-37.61,11.72-2.81.33-5.63.55-8.46.57-23.85.15-41.46-19.75-50.01-36.75-1.44-2.85-2.68-5.76-3.67-8.78C1.06,77.87,18.9,40.63,49.33,23.89c17.53-9.65,37.53-8,54.28-.97,16.63,6.97,35.87,18.98,38.93,36.13,2.51,14.05,1.85,29.18-2.67,42.76-4.63,13.94-14.16,26.72-26.05,35.32-1.21.88-2.47,1.71-3.75,2.49Z"/><path class="cls-3" d="m33.35,98.27c-.07-.1-.15-.2-.26-.29-2.5-2.19-5.48-3.73-8.74-4.41-2.64-.56-5.7-.7-8.13.65-4.4,2.44-6.98,7.17-10.29,10.8-.19.14-.36.31-.48.56-.03.07-.05.14-.07.22,0,0,0,.01,0,.02,0,.02,0,.03,0,.05-.07.25-.05.5.04.73.12.43.39.81.81.93,4.95,1.46,10.09,4.54,15.42,4.01,2.6-.26,5.06-2,6.91-3.74,2.35-2.21,4.09-4.96,5.11-8.01.2-.6.03-1.13-.31-1.51Z"/><path class="cls-3" d="m12.9,70.06c3.04,1.95,7.06,2.16,10.57,1.83,4.3-.4,8.38-2.01,11.95-4.41.92-.62.98-1.56.59-2.31-.82-3.92-2.41-7.64-4.91-10.78-2.2-2.77-5.23-5.61-8.76-6.48-3.35-.82-7.03-.16-10.34.54-3.3.7-6.54,1.69-9.86,2.26-1.42-.06-2.85,1.61-1.76,3.12.03.05.06.09.1.14.02.03.04.06.06.09,3.83,5.36,6.64,12.35,12.36,16.02Z"/><path class="cls-3" d="m43.29,35.23c3.7,3.23,8.2,5.32,12.97,6.4,1.23.28,2.04-.42,2.33-1.34,2.95-4.2,4.92-9.07,5.33-14.21.33-4.09.03-8.5-2.45-11.92-4.31-5.94-11.46-9.01-17.22-13.3-.4-.54-1.08-.84-1.77-.86-.02,0-.04,0-.06,0-1.01,0-2.03.56-2.27,1.82-.72,3.79-1.91,7.47-2.77,11.23-.87,3.79-1.7,7.97-.97,11.85.78,4.1,3.81,7.64,6.87,10.32Z"/><path class="cls-3" d="m199.25,7.07c-.58-.55-1.38-.83-2.38-.83h-2.92c-1.79,0-3.03,1.08-3.29,2.85-1.26,7.26-3.52,15.48-6.71,24.41l-1.85,4.94-9.14-30.04c-.15-.56-.45-1.04-.89-1.45-.5-.47-1.13-.71-1.82-.71h-4.49c-.85,0-1.57.37-2.02,1.04-.35.52-.53,1.07-.53,1.64,0,.45.06.83.19,1.16l11.99,35.3c.5,1.42,1.3,2.49,2.36,3.16.71.45,1.79.65,3.42.65h1.39c1.66,0,2.9-.32,3.75-.96.48-.34.92-.88,1.35-1.64.34-.61.94-1.88,1.84-3.89l1.81-4.31c.71-1.68,1.93-4.88,3.62-9.51.63-1.71,1.24-3.47,1.8-5.22,2.31-7.13,3.43-11.76,3.43-14.14v-.58c0-.66-.3-1.29-.91-1.86Z"/><path class="cls-3" d="m208.77,15.92c-1.1,0-2.03-.38-2.8-1.13-.77-.74-1.16-1.68-1.16-2.8s.39-2.03,1.16-2.8c.74-.74,1.68-1.11,2.8-1.11,1.72,0,2.93.79,3.62,2.37.21.47.31.98.31,1.55,0,1.13-.39,2.06-1.16,2.8-.77.76-1.7,1.13-2.78,1.13Zm2.83,25.27c0,1.14.38,1.72,1.13,1.72.26,0,.55-.07.87-.22.63-.27,1.05-.41,1.28-.41.34,0,.61.23.82.7l.75,1.69c.13.27.19.53.19.77,0,.69-.6,1.34-1.79,1.93-1.13.58-2.24.87-3.35.87s-1.99-.12-2.65-.36c-.66-.24-1.22-.64-1.69-1.21-.93-1.16-1.4-3.04-1.4-5.65v-18.85c0-.45.13-.83.39-1.13s.56-.46.92-.46h3.24c.37,0,.68.15.92.46s.36.68.36,1.13v19.01Z"/><path class="cls-3" d="m229.88,43.49c3.09,0,4.64-1.04,4.64-3.12,0-1.14-.88-2.11-2.63-2.9-.74-.34-1.55-.65-2.43-.94-.88-.29-1.72-.64-2.52-1.04-.81-.4-1.56-.84-2.26-1.32s-1.31-1.02-1.82-1.63c-1.06-1.29-1.59-2.92-1.59-4.9,0-2.42,1.01-4.33,3.02-5.75,1.79-1.27,3.99-1.91,6.6-1.91,2.8,0,5.15.55,7.03,1.64.64.39.97.83.97,1.33,0,.71-.19,1.49-.57,2.33-.38.85-.82,1.27-1.33,1.27s-.97-.1-1.38-.31c-.41-.21-.78-.39-1.11-.54-.33-.15-.68-.28-1.05-.37-.81-.24-1.55-.36-2.23-.36s-1.24.05-1.65.15c-.42.1-.8.25-1.14.46-.82.5-1.23,1.11-1.23,1.84s.17,1.28.5,1.67c.33.39.79.74,1.37,1.06.58.32,1.27.64,2.08.97l2.61,1.09c2.11.92,3.54,1.75,4.28,2.49,1.45,1.48,2.17,3.2,2.17,5.15,0,2.45-.84,4.46-2.51,6.04-1.85,1.72-4.49,2.59-7.9,2.59s-6.06-.67-7.8-2.01c-.85-.64-1.28-1.22-1.28-1.74s.09-.98.28-1.39c.19-.41.43-.89.72-1.45.3-.56.7-.83,1.21-.83s1.05.23,1.62.69c.57.46,1.36.87,2.36,1.23,1,.36,2,.54,3.02.54Z"/><path class="cls-3" d="m250.01,15.92c-1.1,0-2.03-.38-2.8-1.13-.77-.74-1.16-1.68-1.16-2.8s.39-2.03,1.16-2.8c.74-.74,1.68-1.11,2.8-1.11,1.72,0,2.93.79,3.62,2.37.21.47.31.98.31,1.55,0,1.13-.39,2.06-1.16,2.8-.77.76-1.7,1.13-2.78,1.13Zm2.83,25.27c0,1.14.38,1.72,1.13,1.72.26,0,.55-.07.87-.22.63-.27,1.05-.41,1.28-.41.34,0,.61.23.82.7l.75,1.69c.13.27.19.53.19.77,0,.69-.6,1.34-1.79,1.93-1.13.58-2.24.87-3.35.87s-1.99-.12-2.64-.36c-.66-.24-1.23-.64-1.69-1.21-.93-1.16-1.4-3.04-1.4-5.65v-18.85c0-.45.13-.83.39-1.13.26-.31.56-.46.92-.46h3.24c.37,0,.68.15.92.46s.36.68.36,1.13v19.01Z"/><path class="cls-3" d="m294.64,22.32c0-1.16.55-1.74,1.67-1.74h1.33c.9,0,1.51.34,1.84,1.02.45.97.84,2.24,1.16,3.82,1.45-2.64,3.61-4.33,6.48-5.07.9-.24,2.02-.36,3.37-.36s2.59.29,3.73.86,2.05,1.36,2.71,2.36c1.22,1.82,1.84,4.5,1.84,8.05v15c0,.45-.15.83-.43,1.14-.29.31-.72.46-1.28.46h-2.37c-.61,0-1.06-.15-1.35-.46-.29-.31-.43-.68-.43-1.14v-15.03c0-4.12-1.51-6.19-4.54-6.19-1.77,0-3.39.74-4.86,2.22-1.56,1.59-2.34,3.45-2.34,5.56v13.43c0,.45-.14.83-.41,1.14s-.69.46-1.26.46h-2.49c-.56,0-.99-.15-1.28-.46-.29-.31-.44-.68-.44-1.14v-14.83c0-3.24-.1-5.5-.31-6.78s-.31-2.05-.31-2.31Z"/><path class="cls-3" d="m275.18,19.59c.75.15.96,1.17.31,1.59,0,0,0,0-.01,0-2.34,1.49-2.88,5.45-2.09,7.43.48,1.21,1.22,2.43,2.15,3.33,3.17,3.08,8.36,1.41,9.45-2.94.06-.24.12-.48.18-.72.2-.85,1.4-.91,1.67-.08,0,0,0,.01,0,.02,1.09,3.43,1.79,6.86.58,10.46-1.88,5.61-5.75,8.84-11.48,9.92-5.9,1.12-10.15-1.75-13.4-6.17-4.5-6.1-2.95-13.77.65-18.31,2.4-3.02,7.64-5.43,11.99-4.55Z"/><path class="cls-3" d="m195.37,122.97c-.35-.42-.99-.93-2.08-.93h-25.94c-.78,0-1.5.27-2.06.77-.61.55-.94,1.25-.94,2.04v2.76c0,.81.32,1.52.93,2.07.57.51,1.28.77,2.06.77h8.13v31.5c0,.77.25,1.48.74,2.05.54.64,1.25.98,2.05.98h3.7c.8,0,1.51-.33,2.05-.96.5-.57.76-1.29.76-2.06v-31.5h8.48c1.08,0,1.72-.49,2.07-.91.45-.53.69-1.19.69-1.91v-2.76c0-.73-.23-1.39-.66-1.91Z"/><path class="cls-3" d="m198.48,151.34l-.02.46c0,2.21.7,3.98,2.1,5.32,1.47,1.42,3.46,2.13,5.97,2.13,2.29,0,4.41-.68,6.38-2.05.37-.26.7-.39.99-.39.6,0,1.05.3,1.35.89l.65,1.35c.15.32.22.67.22,1.04s-.17.75-.5,1.15c-.33.39-.76.75-1.29,1.08s-1.15.6-1.85.85-1.42.44-2.16.6c-1.48.32-3.03.48-4.64.48s-3.23-.31-4.87-.92c-1.64-.61-3.05-1.51-4.24-2.68-2.56-2.5-3.84-5.87-3.84-10.12,0-7.46,2.63-12.1,7.88-13.92,1.64-.56,3.33-.85,5.06-.85s3.2.19,4.42.56,2.27.92,3.15,1.64c1.87,1.53,2.8,3.66,2.8,6.4s-1.1,4.74-3.29,6.16c-1.92,1.24-4.45,1.86-7.59,1.86-1.93,0-4.16-.35-6.69-1.04Zm11.89-7.05c0-2.3-1.55-3.46-4.64-3.46s-5.01,1.08-6.19,3.24c-.42.76-.69,1.69-.82,2.8,1.39.69,3.15,1.04,5.29,1.04,4.24,0,6.35-1.21,6.35-3.62Z"/><path class="cls-3" d="m245.21,162.36c0,.85-.42,1.28-1.26,1.28h-2.34c-.63,0-1.01-.12-1.14-.37-.13-.25-.2-.47-.22-.68-.02-.2-.05-.45-.1-.74-.1-.79-.23-1.64-.41-2.56-1.26,2.3-3.23,3.83-5.92,4.57-.95.26-2,.39-3.14.39s-2.29-.19-3.43-.57c-1.14-.38-2.16-.94-3.04-1.68-2-1.68-3-3.87-3-6.6,0-2.98,1.1-5.26,3.29-6.84,1.8-1.27,4.12-1.91,6.96-1.91s5.23.83,7.2,2.49c.05-.55.07-1.23.07-2.05s-.16-1.64-.48-2.46-.78-1.51-1.38-2.05c-1.22-1.08-2.93-1.62-5.12-1.62-1.97,0-3.96.54-5.99,1.62-.39.21-.72.31-1.01.31-.44,0-.85-.43-1.26-1.28-.43-.87-.65-1.5-.65-1.88,0-.71.53-1.39,1.59-2.05,2.03-1.26,4.74-1.88,8.14-1.88,3.09,0,5.65.85,7.68,2.54,2.4,2.03,3.6,4.9,3.6,8.6,0,1.64-.27,3.71-.8,6.21,1.37,3.9,2.09,6.97,2.15,9.23Zm-16.19-10.26c-.66.49-1.13.98-1.41,1.46-.28.48-.42,1.05-.42,1.7s.12,1.23.35,1.74c.23.51.56.93.98,1.27.89.69,1.88,1.04,2.98,1.04s2.01-.13,2.72-.39c.71-.26,1.32-.59,1.84-.99,1.11-.87,1.67-1.79,1.67-2.75-.1-1.21-.76-2.16-2-2.85-1.11-.64-2.43-.97-3.94-.97-1.18,0-2.09.24-2.75.74Z"/><path class="cls-3" d="m267.05,135.78c4.06,0,6.63,1.81,7.71,5.44,1.61-2.59,3.74-4.28,6.4-5.07.9-.26,2.04-.39,3.41-.39s2.69.34,3.97,1.02c1.28.68,2.23,1.56,2.85,2.65s1.01,2.28,1.18,3.59.25,2.71.25,4.2v14.83c0,.45-.15.83-.43,1.14-.29.31-.72.46-1.28.46h-2.37c-.61,0-1.06-.15-1.35-.46s-.43-.68-.43-1.14v-15.05c0-2.08-.36-3.62-1.08-4.64-.72-1.01-1.85-1.52-3.39-1.52-1.76,0-3.29.77-4.61,2.32-1.42,1.61-2.13,3.61-2.13,5.99v12.9c0,.45-.15.83-.43,1.14-.29.31-.72.46-1.28.46h-2.37c-.61,0-1.06-.15-1.35-.46s-.43-.68-.43-1.14v-15.05c0-2.08-.36-3.62-1.08-4.64-.72-1.01-1.85-1.52-3.39-1.52-1.76,0-3.3.77-4.64,2.32-1.4,1.61-2.1,3.61-2.1,5.99v12.9c0,.45-.14.83-.41,1.14s-.69.46-1.26.46h-2.49c-.56,0-.99-.15-1.28-.46s-.43-.68-.43-1.14v-14.83c0-3.24-.1-5.5-.31-6.78s-.31-2.05-.31-2.31c0-1.16.56-1.74,1.67-1.74h1.33c.9,0,1.51.34,1.84,1.02.39.82.76,2.09,1.11,3.82,1.4-2.53,3.43-4.2,6.09-5.03.9-.27,1.85-.41,2.85-.41Z"/><path class="cls-3" d="m195.66,79.87c0-1.16.56-1.74,1.67-1.74h1.33c.9,0,1.51.34,1.84,1.02.45.97.84,2.24,1.16,3.82,1.45-2.64,3.61-4.33,6.48-5.07.9-.24,2.03-.36,3.37-.36s2.59.29,3.73.86c1.14.57,2.05,1.36,2.71,2.36,1.22,1.82,1.84,4.5,1.84,8.05v15c0,.45-.14.83-.43,1.14s-.72.46-1.28.46h-2.37c-.61,0-1.06-.15-1.35-.46s-.43-.68-.43-1.14v-15.03c0-4.12-1.51-6.19-4.54-6.19-1.77,0-3.39.74-4.86,2.22-1.56,1.59-2.34,3.45-2.34,5.56v13.43c0,.45-.14.83-.41,1.14s-.69.46-1.26.46h-2.49c-.56,0-.99-.15-1.28-.46-.29-.31-.44-.68-.44-1.14v-14.83c0-3.24-.1-5.5-.31-6.78s-.31-2.05-.31-2.31Z"/><path class="cls-3" d="m243.37,81.8c0,.9-.51,1.35-1.52,1.35h-6.81v15.17c0,1.64.81,2.46,2.44,2.46,1.03,0,2.37-.52,4.03-1.55.32-.21.67-.31,1.05-.31s.68.27.91.8l.56,1.26c.21.48.31.89.31,1.23s-.25.73-.76,1.17-1.16.84-1.95,1.2c-1.79.8-3.41,1.21-4.86,1.21s-2.6-.15-3.44-.45c-.85-.3-1.57-.74-2.16-1.34-1.29-1.26-1.93-3.07-1.93-5.44v-15.41h-2.03c-1.02,0-1.52-.46-1.52-1.38v-1.38c0-.37.1-.66.29-.87.19-.21.57-.37,1.13-.48l2.42-.7.92-5.68c.18-1.06.61-1.59,1.31-1.59h2c.37,0,.68.15.92.45.24.3.36.68.36,1.15v5.46h6.81c1.01,0,1.52.44,1.52,1.33v2.34Z"/><path class="cls-3" d="m253.23,93.08l-.02.46c0,2.21.7,3.98,2.1,5.32,1.47,1.42,3.46,2.13,5.97,2.13,2.29,0,4.41-.68,6.38-2.05.37-.26.7-.39.99-.39.6,0,1.05.3,1.35.89l.65,1.35c.15.32.22.67.22,1.04s-.16.75-.49,1.15c-.33.39-.76.75-1.29,1.08-.53.32-1.15.6-1.85.85-.7.24-1.42.44-2.16.6-1.48.32-3.03.48-4.64.48s-3.23-.31-4.87-.92-3.05-1.51-4.24-2.68c-2.56-2.5-3.84-5.87-3.84-10.12,0-7.46,2.63-12.1,7.88-13.92,1.64-.56,3.33-.85,5.06-.85s3.2.19,4.42.56c1.22.37,2.27.92,3.15,1.64,1.87,1.53,2.8,3.66,2.8,6.4s-1.1,4.74-3.29,6.16c-1.92,1.24-4.45,1.86-7.59,1.86-1.93,0-4.16-.35-6.69-1.04Zm11.89-7.05c0-2.3-1.54-3.46-4.64-3.46s-5.01,1.08-6.19,3.24c-.42.76-.69,1.69-.82,2.8,1.39.69,3.15,1.04,5.29,1.04,4.24,0,6.35-1.21,6.35-3.62Z"/><path class="cls-3" d="m284.69,102.79c1.51-.74,3.12-1.11,4.82-1.11s3.21.16,4.54.47c1.33.31,2.52.81,3.59,1.49,2.38,1.51,3.58,3.63,3.58,6.35s-1.35,5.11-4.06,6.84c-2.4,1.51-5.28,2.27-8.65,2.27s-6.29-.74-8.58-2.22c-2.46-1.61-3.7-3.8-3.7-6.57,0-3.37,1.78-6.62,5.34-9.76,1.38-1.21,2.91-2.3,4.59-3.26-2.63-.24-4.86-1.17-6.72-2.78-2.08-1.82-3.12-4.08-3.12-6.79,0-3.11,1.17-5.63,3.5-7.56,2.14-1.76,4.69-2.63,7.66-2.63,3.19,0,5.69.86,7.51,2.58.56.53,1.01,1.14,1.35,1.81,0-1.48-.19-3.02-.57-4.6-.38-1.59-.57-2.53-.57-2.84s.06-.55.18-.74.26-.33.42-.42c.24-.15.51-.22.82-.22h2.08c1.34,0,2,1.86,2,5.58,0,2.98-.6,5.73-1.79,8.24.03.35.05.82.05,1.4s-.13,1.26-.39,2.03c-.26.77-.6,1.49-1.03,2.16-.43.67-.92,1.28-1.47,1.85-.55.56-1.14,1.09-1.76,1.57s-1.24.93-1.87,1.33c-3.53,2.24-5.64,3.64-6.33,4.19-.69.56-1.17,1-1.45,1.34Zm-2.27,4.47c-.59.68-.89,1.42-.89,2.25s.2,1.52.61,2.1c.4.58.93,1.06,1.59,1.45,1.27.73,2.87,1.09,4.78,1.09,3.03,0,5.14-.75,6.33-2.25.39-.5.58-1.13.58-1.88s-.24-1.4-.71-1.93c-.47-.53-1.07-.94-1.78-1.23-1.17-.48-2.7-.73-4.59-.73-2.9,0-4.87.38-5.92,1.14Zm1.16-15.69c.55.48,1.19.84,1.92,1.09.73.25,1.51.37,2.34.37s1.59-.13,2.28-.37c.69-.25,1.3-.62,1.84-1.1,1.13-1.02,1.69-2.32,1.69-3.91s-.63-2.91-1.88-3.84c-1.11-.82-2.48-1.23-4.11-1.23-2.58,0-4.36.96-5.34,2.88-.32.63-.48,1.36-.48,2.19s.15,1.57.46,2.23c.31.66.73,1.23,1.28,1.7Z"/><path class="cls-3" d="m306.26,79.87c0-1.16.51-1.74,1.52-1.74h1.31c.89,0,1.51.39,1.88,1.16.53,1.13.92,2.68,1.16,4.66,0,.03.01.05.04.05s.08-.27.16-.82c.08-.55.31-1.22.7-2.02.39-.8.86-1.47,1.42-2.02,1.14-1.08,2.55-1.62,4.2-1.62,1.85,0,3.14.31,3.87.92.34.27.47.65.41,1.14l-.39,3.04c-.1.82-.52,1.23-1.26,1.23-.36,0-.79-.07-1.31-.22-1-.26-1.79-.39-2.37-.39s-1.19.25-1.84.76-1.2,1.14-1.67,1.9c-.95,1.58-1.42,3.26-1.42,5.05v12.83c0,.45-.13.83-.39,1.14-.26.31-.63.46-1.11.46h-2.8c-.52,0-.91-.15-1.17-.46s-.4-.68-.4-1.14v-16.65c0-2.83-.09-4.71-.28-5.62-.19-.91-.28-1.46-.28-1.65Z"/><path class="cls-3" d="m349.39,104.1c0,.85-.42,1.28-1.26,1.28h-2.34c-.63,0-1.01-.12-1.14-.37-.13-.25-.2-.47-.22-.68-.02-.2-.05-.45-.1-.74-.1-.79-.23-1.64-.41-2.56-1.26,2.3-3.23,3.83-5.92,4.57-.95.26-2,.39-3.14.39s-2.29-.19-3.43-.57c-1.14-.38-2.16-.94-3.04-1.68-2-1.68-3-3.87-3-6.6,0-2.98,1.1-5.26,3.29-6.84,1.8-1.27,4.12-1.91,6.96-1.91s5.24.83,7.2,2.49c.05-.55.07-1.23.07-2.05s-.16-1.64-.48-2.46c-.32-.82-.78-1.51-1.38-2.05-1.23-1.08-2.93-1.62-5.12-1.62-1.97,0-3.96.54-5.99,1.62-.39.21-.73.31-1.01.31-.44,0-.85-.43-1.26-1.28-.43-.87-.65-1.5-.65-1.88,0-.71.53-1.39,1.59-2.05,2.03-1.26,4.74-1.88,8.14-1.88,3.09,0,5.65.85,7.68,2.54,2.4,2.03,3.6,4.9,3.6,8.6,0,1.64-.27,3.71-.8,6.21,1.37,3.9,2.09,6.97,2.15,9.23Zm-16.19-10.26c-.66.49-1.13.98-1.41,1.46s-.42,1.05-.42,1.7.12,1.23.35,1.74c.23.51.56.93.98,1.27.89.69,1.88,1.04,2.98,1.04s2.01-.13,2.72-.39c.71-.26,1.32-.59,1.84-.99,1.11-.87,1.67-1.79,1.67-2.75-.1-1.21-.77-2.16-2-2.85-1.11-.64-2.43-.97-3.94-.97-1.18,0-2.09.24-2.75.74Z"/><path class="cls-3" d="m371.11,81.8c0,.9-.51,1.35-1.52,1.35h-6.81v15.17c0,1.64.81,2.46,2.44,2.46,1.03,0,2.37-.52,4.03-1.55.32-.21.67-.31,1.05-.31s.68.27.91.8l.56,1.26c.21.48.31.89.31,1.23s-.25.73-.76,1.17-1.16.84-1.94,1.2c-1.79.8-3.41,1.21-4.86,1.21s-2.6-.15-3.44-.45c-.85-.3-1.57-.74-2.16-1.34-1.29-1.26-1.93-3.07-1.93-5.44v-15.41h-2.03c-1.01,0-1.52-.46-1.52-1.38v-1.38c0-.37.1-.66.29-.87.19-.21.57-.37,1.14-.48l2.42-.7.92-5.68c.18-1.06.61-1.59,1.31-1.59h2c.37,0,.68.15.92.45.24.3.36.68.36,1.15v5.46h6.81c1.01,0,1.52.44,1.52,1.33v2.34Z"/><path class="cls-3" d="m379.86,73.46c-1.1,0-2.03-.38-2.8-1.13-.77-.74-1.16-1.68-1.16-2.8s.39-2.03,1.16-2.8c.74-.74,1.68-1.11,2.8-1.11,1.72,0,2.93.79,3.62,2.37.21.47.31.98.31,1.55,0,1.13-.39,2.06-1.16,2.8-.77.76-1.7,1.13-2.78,1.13Zm2.83,25.27c0,1.14.38,1.72,1.14,1.72.26,0,.55-.07.87-.22.63-.27,1.05-.41,1.28-.41.34,0,.61.23.82.7l.75,1.69c.13.27.19.53.19.77,0,.69-.59,1.34-1.79,1.93-1.13.58-2.24.87-3.35.87s-1.99-.12-2.65-.36-1.22-.64-1.69-1.21c-.93-1.16-1.4-3.04-1.4-5.65v-18.85c0-.45.13-.83.39-1.13.26-.31.56-.46.92-.46h3.24c.37,0,.68.15.92.46s.36.68.36,1.13v19.01Z"/><path class="cls-3" d="m391.86,91.65c0-2.09.35-4.01,1.05-5.76.7-1.75,1.66-3.24,2.89-4.48,2.56-2.59,5.79-3.89,9.69-3.89,4.36,0,7.75,1.3,10.15,3.89,2.32,2.5,3.48,5.93,3.48,10.29s-1.31,7.67-3.94,10.34c-2.56,2.63-5.79,3.94-9.69,3.94-4.11,0-7.41-1.34-9.91-4.04-2.48-2.63-3.72-6.06-3.72-10.29Zm7.77-6.15c-.6.89-1.04,1.91-1.32,3.04-.28,1.14-.41,2.29-.41,3.46s.16,2.29.47,3.36c.31,1.07.79,2.03,1.41,2.86,1.39,1.84,3.32,2.75,5.8,2.75s4.45-.9,5.75-2.71c1.16-1.58,1.74-3.73,1.74-6.45,0-4.07-1.34-6.88-4.01-8.43-.98-.56-2.17-.85-3.56-.85s-2.57.27-3.53.81c-.96.54-1.74,1.26-2.34,2.15Z"/><path class="cls-3" d="m426.41,79.87c0-1.16.56-1.74,1.67-1.74h1.33c.9,0,1.51.34,1.84,1.02.45.97.84,2.24,1.16,3.82,1.45-2.64,3.61-4.33,6.47-5.07.9-.24,2.03-.36,3.37-.36s2.59.29,3.73.86c1.14.57,2.05,1.36,2.71,2.36,1.22,1.82,1.84,4.5,1.84,8.05v15c0,.45-.14.83-.43,1.14-.29.31-.72.46-1.28.46h-2.37c-.61,0-1.06-.15-1.35-.46-.29-.31-.43-.68-.43-1.14v-15.03c0-4.12-1.51-6.19-4.54-6.19-1.77,0-3.39.74-4.86,2.22-1.56,1.59-2.34,3.45-2.34,5.56v13.43c0,.45-.14.83-.41,1.14s-.69.46-1.26.46h-2.49c-.56,0-.99-.15-1.28-.46s-.43-.68-.43-1.14v-14.83c0-3.24-.1-5.5-.31-6.78s-.31-2.05-.31-2.31Z"/><path class="cls-3" d="m187.92,71.33c1.46,0,2.65-1.19,2.65-2.65v-2.95c0-1.46-1.19-2.65-2.65-2.65h-15.19c-1.46,0-2.65,1.19-2.65,2.65v2.95c0,1.46,1.19,2.65,2.65,2.65h3.04v27.71h-3.04c-1.46,0-2.65,1.19-2.65,2.65v2.95c0,1.46,1.19,2.65,2.65,2.65h15.19c1.46,0,2.65-1.19,2.65-2.65v-2.95c0-1.46-1.19-2.65-2.65-2.65h-2.86v-27.71h2.86Z"/><path class="cls-4" d="m77.99,115.03l.71.92-.56-5.14c-.09-.82-.93-1.34-1.7-1.05l-4.28,1.58c-.45.17-.77.58-.82,1.06l-.35,3.31c-.04.37.29.66.65.59l6.35-1.27Z"/><path class="cls-4" d="m97.74,143.44c-2.26.12-4.46.81-6.61,1.46-2.06.62-4.05,1.45-5.97,2.43-1.7.87-4.1,2.27-4.31-.76-.32-4.6-.54-9.2-.74-13.81-.06-1.42-.11-2.84-.19-4.25-.12-2.34-2.02-4.15-4.36-4.29-.01,0-.03,0-.04,0-2.13-.14-3.96-.55-5.14.61-1.49,1.45,1.28,8.05-3.1,6.74-2.36-.71-4.05-1.32-6.28-2.33-1.94-.88-3.98-1.51-5.98-2.23-1.96-.7-4.29-1.4-6.1-2.1-1.18-.47-2.17.94-1.19,1.7,3.14,3.07,6.68,5.38,10.01,8.24,2.62,2.24,5.42,4.77,7.39,7.65,2.19,3.19,2.72,7.32,2.28,11.09-.44,3.78-.8,7.59-1.39,11.35-.31,1.93-.78,4.16,1.47,5.04,1.23.48,2.59.3,3.88.28,2.32-.04,4.62-.09,6.93.04,1.23.07,3.14.4,3.88-.92.73-1.18.17-2.87.29-4.19.36-3.89,1.53-7.39,4.14-10.35,2.12-2.41,4.82-4.17,7.38-6.05,1.55-1.14,3.07-2.35,4.4-3.75.8-.85.35-1.67-.64-1.58Z"/><path class="cls-1" d="m108.66,83.26c.66,18.17-14.74,32.93-32.93,32.93s-32.93-14.74-32.93-32.93,17.74-33.55,31.23-33.78c9.9-.17,25.9,7.48,31.48,18.95,2.35,4.82,2.97,9.92,3.15,14.83Z"/><path class="cls-3" d="m106.45,70.46c-.29-.73-.6-1.45-.94-2.17-.21-.44-.77-1.76-1.1-.65-1.45,4.89-3.31,9.88-7.6,12.99-2.84,2.07-6.46,3-9.95,2.46-2.67-.42-5.14-1.7-7.07-3.58-2.2-2.14-3.95-5.03-5.1-7.9-1.42-3.55-1.19-7.79-.09-11.39.57-1.88,1.44-3.71,2.69-5.24.89-1.09,2.05-1.92,3.27-2.62.61-.35,1.23-.68,1.86-1,1.19-.62-.79-.95-1.25-1.07-3.68-.95-7.46-1.14-11.21-.51-7.45,1.26-14.72,5.27-19.45,11.22-8.54,10.76-12.22,28.96-1.55,43.41,7.72,10.47,17.79,17.27,31.78,14.62,9.96-1.88,20.05-6.53,24.78-16.09,4.19-8.46,4.62-18.87,2.37-27.94-.38-1.54-.86-3.07-1.44-4.55Z"/></svg>