<?xml version="1.0" encoding="UTF-8"?><svg id="Layer_1" xmlns="http://www.w3.org/2000/svg" viewBox="0 0 133.63 158.11"><defs><style>.cls-1{fill:#5b4425;}.cls-1,.cls-2,.cls-3,.cls-4{stroke-width:0px;}.cls-2{fill:#0c715c;}.cls-3{fill:#c3e5dc;}.cls-4{fill:#fff;}</style></defs><path class="cls-3" d="m102.16,129.58c-10.38,6.34-23.02,9.47-34.9,10.88-2.61.31-5.23.51-7.85.53-22.14.14-38.48-18.33-46.41-34.11-1.33-2.64-2.49-5.35-3.4-8.15C.99,72.27,17.54,37.71,45.78,22.17c16.27-8.96,34.83-7.43,50.38-.9,15.43,6.47,33.29,17.61,36.13,33.53,2.33,13.04,1.72,27.08-2.47,39.69-4.3,12.94-13.14,24.8-24.17,32.78-1.13.82-2.29,1.59-3.48,2.31Z"/><path class="cls-2" d="m30.95,91.2c-.07-.09-.14-.19-.24-.27-2.32-2.03-5.09-3.46-8.11-4.1-2.45-.52-5.29-.65-7.54.6-4.09,2.26-6.48,6.66-9.55,10.02-.18.13-.34.29-.44.52-.03.06-.05.13-.06.2,0,0,0,.01,0,.02,0,.02,0,.03,0,.05-.06.23-.05.46.04.68.11.4.36.75.75.87,4.6,1.35,9.37,4.21,14.31,3.72,2.41-.24,4.7-1.86,6.42-3.47,2.18-2.05,3.79-4.6,4.74-7.44.19-.56.02-1.05-.29-1.4Z"/><path class="cls-2" d="m11.97,65.02c2.82,1.81,6.55,2,9.81,1.7,3.99-.38,7.77-1.87,11.09-4.1.85-.57.91-1.45.55-2.15-.76-3.63-2.23-7.09-4.55-10.01-2.05-2.57-4.85-5.21-8.13-6.02-3.11-.77-6.53-.15-9.6.5-3.06.65-6.07,1.57-9.15,2.1-1.32-.06-2.65,1.5-1.63,2.9.03.04.06.09.09.13.02.03.04.05.06.08,3.55,4.97,6.17,11.47,11.47,14.87Z"/><path class="cls-2" d="m40.17,32.69c3.43,3,7.61,4.94,12.04,5.94,1.14.26,1.9-.39,2.16-1.24,2.73-3.9,4.56-8.42,4.95-13.19.3-3.8.02-7.89-2.28-11.06-4-5.51-10.64-8.36-15.98-12.34-.37-.5-1-.78-1.65-.8-.02,0-.04,0-.05,0-.93,0-1.88.52-2.1,1.69-.67,3.51-1.77,6.94-2.57,10.42-.8,3.51-1.58,7.4-.9,11,.72,3.81,3.54,7.09,6.38,9.58Z"/><path class="cls-1" d="m72.38,106.76l.66.86-.52-4.77c-.08-.76-.86-1.24-1.58-.98l-3.97,1.47c-.42.16-.72.54-.76.98l-.32,3.07c-.04.34.27.62.6.55l5.89-1.18Z"/><path class="cls-1" d="m90.71,133.12c-2.1.11-4.14.75-6.14,1.35-1.91.57-3.76,1.35-5.54,2.26-1.58.81-3.81,2.11-4-.71-.29-4.27-.5-8.54-.68-12.82-.06-1.32-.11-2.63-.17-3.95-.11-2.18-1.87-3.85-4.04-3.98-.01,0-.02,0-.04,0-1.98-.13-3.68-.51-4.77.56-1.38,1.35,1.19,7.47-2.88,6.25-2.19-.66-3.76-1.22-5.83-2.17-1.8-.82-3.69-1.4-5.55-2.07s-3.98-1.3-5.66-1.95c-1.1-.44-2.02.87-1.11,1.58,2.92,2.85,6.2,4.99,9.29,7.64,2.43,2.08,5.03,4.43,6.86,7.1,2.03,2.96,2.53,6.79,2.12,10.29-.41,3.51-.74,7.05-1.29,10.53-.28,1.79-.73,3.86,1.36,4.68,1.15.45,2.4.28,3.6.26,2.15-.04,4.29-.08,6.43.04,1.14.06,2.92.37,3.6-.85.68-1.09.16-2.67.27-3.88.33-3.61,1.42-6.86,3.84-9.61,1.97-2.23,4.47-3.87,6.85-5.62,1.44-1.06,2.85-2.18,4.09-3.48.74-.78.32-1.55-.59-1.47Z"/><path class="cls-4" d="m100.85,77.27c.61,16.87-13.68,30.56-30.56,30.56s-30.56-13.68-30.56-30.56,16.46-31.14,28.98-31.35c9.19-.16,24.04,6.94,29.22,17.59,2.18,4.48,2.75,9.2,2.92,13.76Z"/><path class="cls-2" d="m98.79,65.39c-.26-.68-.56-1.35-.88-2.01-.2-.41-.72-1.63-1.02-.6-1.34,4.54-3.08,9.17-7.05,12.06-2.64,1.92-6,2.79-9.23,2.28-2.48-.39-4.77-1.58-6.56-3.33-2.04-1.98-3.66-4.67-4.73-7.33-1.32-3.29-1.1-7.23-.09-10.57.53-1.75,1.34-3.44,2.5-4.87.83-1.01,1.91-1.78,3.03-2.43.57-.33,1.14-.63,1.73-.93,1.11-.57-.73-.88-1.16-.99-3.41-.88-6.93-1.06-10.4-.47-6.92,1.17-13.66,4.89-18.05,10.41-7.92,9.99-11.34,26.87-1.44,40.29,7.17,9.72,16.51,16.03,29.5,13.57,9.25-1.75,18.61-6.06,23-14.93,3.89-7.86,4.29-17.51,2.2-25.93-.36-1.43-.8-2.85-1.33-4.22Z"/></svg>