<?xml version="1.0" encoding="UTF-8"?><svg id="Capa_1" xmlns="http://www.w3.org/2000/svg" viewBox="0 0 100 100"><defs><style>.cls-1{fill:#f9c16d;}.cls-2{fill:#0f715c;}</style></defs><path class="cls-1" d="m70.24,5.18c-3.93,5.79-7.55,11.87-9.91,18.47-.34.92-.64,1.86-.92,2.79-.31-1.9-.76-3.78-1.37-5.61-1.9-5.59-5.42-11.59-11.18-13.92-1.47-.6-3.55.55-3.17,2.33.92,4.32,1.83,8.63,2.75,12.95-2.2-3.23-4.9-6.13-7.67-8.9-2.6-2.61-5.26-5.12-7.65-7.91-1.7-1.98-4.7-.31-3.94,2.17,1.69,5.49,1.75,11.27,3.32,16.78.44,1.54.98,3.04,1.61,4.52-4.92-4.12-10.41-7.57-16.25-10.25-.91-.41-2.06-.13-2.69.64-.68.82-.58,1.88-.06,2.76,1.72,2.93,3.39,5.89,5.18,8.78,1.08,1.74,2.33,3.28,3.74,4.71-5.49-1.95-11.32-2.98-17.2-2.98-1.96,0-2.65,2.91-1.16,3.99,8.27,6,17.18,12.19,27.26,14.04-.64.09-1.28.18-1.92.27-3.41.44-6.83.74-10.24,1.1-5.88.63-12.12,1.67-16.75,5.62-1.49,1.26-1.01,3.68,1,4.04,3.55.65,7.09,1.31,10.64,1.93,1.58.27,3.17.43,4.75.47-4.61,2.86-9,6.04-13.4,9.23-2.09,1.51-.22,4.84,2.18,3.92,6.73-2.61,14.43-3.36,21.48-5.4-2.12,2.22-3.86,4.78-5.49,7.49-1.73,2.87-3.26,5.88-4.6,8.95-1.04,2.39,2.14,4.25,3.84,2.34,1.78-2.01,4.57-2.82,6.93-3.93,2.69-1.27,5.29-2.74,7.75-4.42,3.37-2.29,6.5-4.99,9.29-7.98-.23,2.97-.11,5.93.74,8.86,1.47,5.05,5.62,8.52,9.25,12.07,1.22,1.19,3.5.19,3.67-1.42.41-3.94.26-7.91-.43-11.77.45.56.92,1.1,1.42,1.64,2.22,2.36,4.66,4.33,7.52,5.87,2.97,1.61,6.15,2.86,9.24,4.21,1.8.79,3.76-1.06,3.03-2.9-1.95-4.91-4.7-9.51-8.08-13.59,5.86,2.54,12.31,3.14,18.62,4.02.98.15,2.01-.4,2.41-1.31.44-.98.06-1.94-.65-2.68-4.68-4.82-10.15-9.61-16.22-13.09,1.05.21,2.1.42,3.16.6,5.85,1.01,14.03,1.54,18.29-3.48,1.09-1.28.28-3.45-1.43-3.65-3.07-.36-5.84-2.19-8.76-3.17-2.74-.91-5.56-1.57-8.44-1.91,4.37-.97,8.99-2.23,12.46-5.1,1.83-1.51,3.55-3.6,3.97-6,.3-1.7-.78-3.2-2.5-3.39-1.38-.15-2.92.21-4.27.45-3.86.69-7.59,1.88-11.28,3.2.71-.42,1.41-.85,2.08-1.31,2.5-1.72,4.77-3.83,6.56-6.28,1.99-2.7,3.52-5.71,4.94-8.73.38-.81.17-1.85-.44-2.47-.7-.7-1.55-.8-2.47-.55-2.88.78-5.76,1.28-8.47,2.59-2.14,1.03-4.13,2.31-5.99,3.77.41-.97.78-1.98,1.07-3.03,1.83-6.52,1.19-13.63-1.29-19.88-.59-1.48-2.89-2.03-3.87-.6h.02Z"/><path class="cls-2" d="m44.53,64.74c4.36.9,9.09-.01,12.59-3.02,1.36-1.18,2.42-2.63,3.24-4.24,4.01-2.2,5.34-7.4,5.02-11.66-.27-3.88-2.16-7.82-4.98-10.45-6.37-5.95-16.21-6.19-23.36-1.03-3.58,2.58-6.02,6.67-6.46,11.04-.44,4.39,1.1,8.64,3.53,12.16,2.41,3.49,6.21,6.31,10.41,7.18Zm1.87-6.56l.22.02-.21-.03h0Zm-2.17-20.11l.06-.02-.16.06.1-.03Zm11.53,11.76l-.03-.02h0s.02.02.02.02Zm-16.39-14.57v-.02s.07-.12.07-.12l-.06.12h0Zm6.48,14.46l-.44-.19-.29-.15-.39-.22-.64-.42.08-.02,1.01-.55.89,1.36.37.42h-.02s-.58-.22-.58-.22v-.02Zm7.8-.72l-.18.14-.24.15-.63.34-.83.36-.76.21-1.13.2h-.05c1.23-.48,2.02-1.6,2.2-2.92l.06-.78c.44.42.91.85,1.41,1.23l.88.43-.3.28-.44.37h0Z"/></svg>