<?xml version="1.0" encoding="UTF-8"?><svg id="Capa_1" xmlns="http://www.w3.org/2000/svg" viewBox="0 0 100 100"><defs><style>.cls-1{fill:#bcacd5;}.cls-2{fill:#0f715c;}</style></defs><path class="cls-1" d="m57.67,48.67c-.41-.73-.88-1.42-1.46-2.03-2.18-2.26-6.07-3.28-8.6-.93-2.31,2.15-1.95,5.45-.51,7.99-.75,1.81-.94,3.84-.71,5.81l.06.36-.04.09c-2.96,9.74.37,21.07,8.05,27.8,4.46,3.91,10.02,6.02,15.87,6.7.69.08,1.39.14,2.08.18.84,1.35,1.9,2.53,3.36,3.28,1.55.79,3.35,1.17,5.05.69,1.88-.53,3.4-1.99,3.91-3.9.57-2.14.08-4.11-1.01-5.77.3-.75.55-1.52.74-2.31,1.3-5.55.3-11.33-1.02-16.79-.68-2.83-1.51-5.69-2.83-8.3-1.42-2.82-3.44-5.26-6-7.13-4.85-3.53-11.11-4.82-16.96-5.73h0Zm20.4,41.05l-.1.05-.25.11.24-.33.18.11-.07.06h0Zm-8.78-24.11c.98,1.64,1.9,3.31,2.77,5.02.39.77.75,1.54,1.12,2.31-2.73-3.87-5.45-7.75-8.18-11.62-.23-.33-.47-.67-.7-.99.58.41,1.15.85,1.71,1.3l.03.02.25.22c.21.2.42.39.63.6.41.39.8.81,1.18,1.22.4.64.81,1.28,1.2,1.92h0Zm-13.75-10.7c-.84-.53-1.68-1.04-2.51-1.58l.08-.04.32-.16.32-.1.64-.13h.04s.09,0,.09,0h.15c.3.67.6,1.34.88,2.02Zm-4.05-5.99l.05.02.11.03c-.42.18-.8.39-1.17.63l.02-.19v-.05s.08-.16.08-.16l.05-.07.09-.08.23-.1.08-.02.04-.02h.04s.34.03.34.03h.04,0Zm-.64,9.67v-.09s-.01-.03-.01-.03c0-.37,0-.73.02-1.09.39.24.79.48,1.18.72l.13.07c.44.77.89,1.53,1.35,2.28-.3.77-.42,1.63-.33,2.48.23,2.26,1.77,4.4,2.92,6.3.64,1.06,1.3,2.12,1.98,3.16-.7-.88-1.37-1.76-2.02-2.68l-.32-.46-.14-.21-.21-.32-.24-.37c-.4-.62-.78-1.26-1.15-1.89-.64-1.11-1.26-2.24-1.8-3.41-.26-.56-.49-1.12-.71-1.7l-.03-.09-.13-.42c-.1-.32-.18-.65-.25-.98l-.17-.89-.06-.4h0Zm-.96,9.79c.25.43.5.86.76,1.29l-.55.27-.06.05c-.05-.36-.09-.72-.13-1.09l-.03-.44v-.08s0,0,0,0Zm8.44,16.73l-.56-.46-.04-.04-.31-.28c-.84-.78-1.63-1.61-2.36-2.5-.34-.42-.67-.85-.99-1.3l-.28-.4h0c1.32,1.66,2.77,3.2,4.37,4.6.72.62,1.45,1.23,2.22,1.8-.24-.15-.48-.3-.72-.46-.45-.3-.89-.62-1.32-.96h0Zm21.62,8.98l-.03.04-.23.09h0s-.38.07-.38.07h-.03s-.36-.03-.36-.03l.53-.17c.29-.11.57-.25.83-.4v.02s-.03.04-.03.04l-.21.29c.3-.46,0-.06-.1.06Zm.35-9.67l-.06.33-.03.15-.19-.95.37-.21-.09.68Zm-8.08-26.16c.27.2.54.41.8.63.36.3.13.11.05.05l.42.39c.5.48.96,1,1.39,1.54.19.24.37.5.56.75l.03.05.05.06.22.35c.34.56.65,1.14.95,1.73.28.56.53,1.14.76,1.72.12.29.23.59.33.88l.05.14.16.51c.78,2.45,1.36,4.99,1.84,7.52.22,1.19.41,2.38.54,3.58-1.94-6.22-4.47-12.44-8.72-17.3-.62-.96-1.26-1.92-1.92-2.86-.51-.71-1.07-1.44-1.7-2.09.3.12.6.24.9.38l.29.13.29.15c.3.15.6.32.9.49.62.36,1.22.75,1.8,1.17Z"/><path class="cls-1" d="m27.1,89.45c5.55-1.81,10.18-5.37,13.69-9.99,1.71-2.26,3.06-4.75,4.15-7.36,1.09-2.6,1.73-5.31,2.34-8.06.31-1.38.63-2.77,1.07-4.11.11-.33.22-.65.34-.97l.21-.52.12-.27.13-.27.26-.5c.18-.33.37-.65.57-.97.83-1.3,1.74-2.49,2.34-3.92.55-1.32.7-2.9.26-4.28-.62-1.93-2.07-3.33-4.13-3.54-1.73-.17-3.61.55-5.16,1.23-2.78,1.21-5.21,3.24-6.99,5.7-7.1-.09-13.96,2.73-19.98,6.32-5.87,3.49-12.32,8.07-13.51,15.29-.5,3.07-.02,6.39,1.76,8.97-1.9,2.45-2.18,6.22.67,8.17,2.09,1.43,5.09.89,6.66-.89,4.87,1.69,10.36,1.58,15.22-.01h0Zm-.05-4.33h-.01s-.05.03-.05.03l-.59.21c-.31.11-.63.21-.95.3-.69.2-1.39.37-2.1.51-.36.07-.71.13-1.06.19l-.53.08-.29.03c-.67.06-1.35.09-2.02.1-.72,0-1.43-.03-2.14-.1-.35-.03-.71-.08-1.06-.13h-.06s-.64-.13-.64-.13c-.53-.11-1.06-.26-1.58-.41.36-.22.73-.44,1.09-.66.34.05.68.1,1.01.15,1.69.26,3.39.6,5.11.65,1.82.05,3.76-.26,5.29-1.3l.38-.28c.8-.14,1.59-.35,2.35-.62,1.2-.44,2.32-1.01,3.36-1.69l-.35.27-.05.03c-.53.38-1.07.74-1.62,1.08-1.11.66-2.27,1.21-3.47,1.71h0Zm-18.8,1.9h-.04s-.15,0-.15,0h.19Zm12.63-24.09c.32-.22.65-.42.99-.6l.33-.16.08-.05.07-.02.37-.1c-1.2.84-2.39,1.67-3.59,2.52.37-.4.75-.78,1.16-1.13l.29-.24.29-.22h0Zm4.95-5.15l.13-.05.13-.05c.23-.08.46-.16.69-.25,1.33-.47,2.69-.85,4.07-1.15-1.24.88-2.49,1.76-3.73,2.64-.49-.46-1.1-.76-1.76-.94l.47-.19h0Zm-10.74,22.54l-.11.06.08-.11.03.05h0Zm23.53-12.82l-.11.25-.21.45c-.53,1.11-1.12,2.2-1.79,3.23-.17.26-.35.51-.53.77-.36.09-.73.17-1.1.27,1.63-2.66,3.26-5.32,4.9-7.98l-.17.5c-.2.56-.41,1.13-.63,1.69-.11.28-.23.56-.35.83h0Zm-6.56,13.45h0s-.09-.09-.09-.09l.08.09Z"/><path class="cls-1" d="m94.85,17.26c-1.11-.55-2.43-.71-3.67-.79-1.27-.08-2.49-.2-3.73-.46l-.19-.04-.32-.08c-.29-.07-.58-.15-.87-.22-.77-.19-1.54-.39-2.32-.55-1.15-.25-2.33-.4-3.51-.45-4.83-.18-9.69,1.1-13.95,3.65-4.55,2.72-8.13,6.81-10.44,11.59-1.16,2.41-1.97,5.01-2.39,7.62-.21,1.26-.26,2.51-.33,3.78-.02.33-.05.65-.11.98l-.02.06-.13.29-.38.48-.04.05-.51.45c-1.06.89-2.2,1.65-3.11,2.72-.81.96-1.39,2.14-1.64,3.36-.26,1.25,0,2.61.73,3.59.98,1.31,2.54,1.78,4.15,1.65.35-.03.7-.09,1.05-.18,1.29.33,2.74.25,3.98-.14,1.2-.38,2.28-1.08,3.42-1.61.29-.14.59-.25.89-.37l.16-.05.29-.07c.59-.13,1.2-.2,1.8-.22h.14s.43,0,.43,0l.85.02c.67.03,1.33.06,2,.08,1.33.03,2.67,0,4.01-.08,2.55-.15,5.06-.63,7.52-1.41,4.78-1.53,9.05-4.7,11.61-9.14,1.22-2.12,2.07-4.5,2.18-6.91.06-1.29-.06-2.53-.23-3.79-.07-.5-.14-1-.18-1.5l-.04-.74v-.36s.03-.12.03-.12l.05-.35.05-.23.03-.09.13-.3.22-.28.04-.07.32-.23c.85-.66,1.82-1.14,2.63-1.86,1.24-1.09,2.01-2.45,1.95-4.1-.06-1.66-1.13-2.9-2.53-3.59h0Zm-34.3,26.54h-.02s0-.02,0-.02l.02.02Zm.56.32l-.19-.09-.32-.2.11-.16.28-.33h0c.28-.24.55-.46.85-.67.47.25.96.42,1.47.56l.49.2-.31.19c-.32.18-.65.35-.99.51l-.68.31c-.24-.09-.49-.19-.72-.3h0Zm17.55-5.63l.14.27.02.05c-.58.24-1.16.45-1.76.63l-.05.02-.57.14-.81.17-.05-.62v-.32s.08-.56.08-.56l.11-.6c.72-.03,1.44-.09,2.15-.18l.31.38.32.45.11.17h0Zm-8.26-1.26l.74.13-.11.79c-.12-.22-.25-.44-.43-.64l-.27-.29.08.02h0Zm-4.28-1.26l.37.16-.91.12.4-.22.13-.06Zm-2.31,7.43l-.21.13.21-.13h0Zm6.23,2.31l-.52.03h-.14c-.35,0-.69,0-1.04-.02.34-.32.66-.65.97-1.02,1.22.13,2.45.17,3.68.11l.46.4-.11.03c-.75.17-1.51.29-2.26.38-.35.04-.7.07-1.04.1Zm-17.63,4.44l-.18.04.18-.05h0Zm-.62.28l-.03-.08.02.04v.04s0,0,0,0Zm.73-1.4l.06-.06-.15.16.09-.1Zm20.84-28.86h0s.26-.08.26-.08l.95-.24c1.02-.23,2.04-.38,3.08-.47l.68-.04h.02s.35,0,.35,0c.54,0,1.09.02,1.64.06l.6.06-.5.07c-2.27.36-4.47,1-6.6,1.84-.79-.2-1.59-.36-2.4-.49l.54-.23c.46-.17.93-.33,1.39-.48h0Zm-9.25,5.64l.29-.3c.76-.72,1.54-1.41,2.38-2.04l.46-.32c0,.39.09.79.29,1.16l-.5.36c-.24.16-.47.34-.71.51-.25.15-.49.3-.74.46-.58.09-1.16.23-1.72.45l.03-.03.22-.24h0Zm-5.7,10.53c-.07.87.13,1.72.54,2.46l.04.25c-.42.3-.8.62-1.16.97.09-1.11.25-2.22.49-3.32l.09-.37Zm-5.37,5.95l-.6.91,3.77,2.58.33.62c-.47.17-.95.34-1.42.52.39-.35.76-.73,1.09-1.14l-3.17-3.49Zm31.6-11.71v.23s0,.12,0,.12v.05s0-.03,0-.03v.11c-.03.47-.08.95-.17,1.42l-.16.75-.02.09-.11.33-.18.53c-.27-.35-.56-.67-.88-.98-.05-.85-.35-1.63-.79-2.35l.33-.37c.43-.53.73-1.13.92-1.75l.85.08c.05.35.1.7.14,1.05l.06.75v-.02Zm-.19-7.33c-.61-.43-1.25-.83-1.91-1.19l-.15-.48v-.05c.84.16,1.69.32,2.55.48-.21.41-.37.82-.49,1.24Z"/><path class="cls-1" d="m53.5,43.83c-.02-.33-.01-.65,0-.97l.04-.51v-.06c.08-.44.16-.86.25-1.29.58-2.78,1.38-5.46,1.33-8.34-.1-5.57-2.47-10.96-5.87-15.31-3.41-4.36-7.94-8.48-13.33-10.16-1.37-.43-2.82-.64-4.26-.65-.31,0-.62.01-.93,0h-.56s-.32-.05-.32-.05l-.25-.06-.16-.04-.53-.3-.12-.07-.15-.13-.54-.5c-.39-.38-.75-.79-1.12-1.19-.74-.81-1.51-1.58-2.45-2.17-1.19-.75-2.63-1.02-4-.73-1.5.31-2.7,1.33-3.55,2.56-1.86,2.7-1.33,6.08.3,8.75.67,1.11,1.52,2.12,2.38,3.09-.42,1.25-.89,2.48-1.24,3.75-.37,1.33-.6,2.68-.76,4.05-.63,5.38.48,10.86,2.89,15.7,2.36,4.74,6.31,9.24,11.27,11.33,2.66,1.12,5.68,1.69,8.49.78.7-.23,1.39-.53,2.01-.91.27-.17.53-.35.81-.51l.03-.02h.01s.03,0,.03,0l.31.16.11.07.26.2c.51.43.95.93,1.43,1.39,1.98,1.9,4.76,3.72,7.61,2.65,1.25-.47,2.41-1.3,3.03-2.52.75-1.48.54-3.19-.47-4.5-.26-.34-.54-.65-.83-.96l-.39-.41-.06-.06-.02-.03-.24-.37-.15-.28c-.1-.27-.17-.54-.25-.81l-.03-.08v-.07s-.03-.43-.03-.43v.02Zm-11.19-.35v.13s-.09.42-.09.42l-.07.26h0s-.05.1-.05.1l-.25-.19c-.42-.41-.83-.83-1.23-1.25,0-.26-.03-.53-.06-.78-.06-.46-.13-.91-.21-1.37.44.48.9.96,1.36,1.43.2.21.41.42.62.63v.32s0,.29,0,.29h-.01Zm-.36,1.11l.12-.15h0s.03-.02.03-.02h0s-.05.06-.05.06h0s0,0,0,0h-.01s0,.01,0,.01h0s-.02.02-.02.02h.01s-.03.01-.03.01l-.04.05h0Zm.2-.16h-.01s0-.01,0-.01h.02Zm-17.85-17.95h0s.02-.04.02-.04h0s-.01.03-.01.03h-.02s0,0,0,0Zm8.2,15.13c.18.38.36.75.55,1.12l-.06-.05-.57-.45.09-.63h0Zm-10.25-20.85l.06.46c.08.53.16,1.07.24,1.6l-.47.28-.37.3c.04-.28.08-.56.14-.85.11-.6.25-1.2.41-1.79h0Zm31.29,21.65l-11.57-27.01c.98.86,1.9,1.78,2.76,2.75.2.23.4.45.6.69l.23.28.06.08.07.08c.41.53.81,1.06,1.19,1.61.72,1.04,1.38,2.13,1.95,3.26.13.27.27.54.4.81l.19.41.02.04-.25-.45c-1.41-2.49-3.08-4.82-4.94-7.01-.85-1-1.76-1.96-2.7-2.88l.41.34,11.58,27Zm-10.63-4.85c.3,0,.61,0,.91,0l.43.03.24.02h0c.57.09,1.13.2,1.68.36l.52.17-.55.42c-.24.28-.4.6-.48.94-.58-.3-1.17-.59-1.76-.84-.69-.3-1.43-.31-2.02.05l-.11.02c-.37-.44-.75-.88-1.14-1.31l.11.02c.73.1,1.45.13,2.19.12h0Zm-10.87-4.67l-.66,1.9.04-.42.16-.63v-.04s.19-.36.19-.36l.2-.34.09-.11.18-.2c.09-.09.52-.42.1-.12l.45-.31.16-.03.07-.02.12-.03h.14s0,0,0,0l.06.02h.04s.07.03.07.03l.19.05v-.02s0,.02,0,.02c.29.08.17.08.07.04l.46.23h0s0-.01,0-.01l.09.07.08.06.04.03c.38.31.72.66,1.05,1.01l.43.47-.14.05-.07-.12c-.53-.86-1.62-1.17-2.53-.78-.87.38-1.47,1.43-1.14,2.37.11.33.21.65.28.99l.05.3.02.17.02.42-.17-.3-.25-.43-.16-.36c-.1-.27-.19-.53-.26-.81l-.09-.39-.02-.08v-.1s0-.31,0-.31l.67-1.89Zm19.25,39.72c-.29.09-.59.15-.89.2h-.03s-.13.01-.13.01c.36-.16.71-.37,1.02-.64l.36.3-.34.11Zm13.03,2.81l-.16.1-.22.12h-.02s-.25.08-.25.08h-.01s.03.02.03.02h-.1s-.09.01-.09.01h-.14s-.07.01-.07.01h-.03s-.65-.19-.65-.19l-.19-.09-.36-.19-.35-.22-.14-.1c-.22-.17-.44-.35-.65-.54l.36-.46c.73-1.37.63-2.71.11-3.94l.04-.2.19-.71.1-.28c.02.76.12,1.52.35,2.26.21.69.52,1.38.94,1.96.24.34.51.67.8.98l.32.34.3.33.19.27.03-.04v.08s0,0,0,0h0s0,.01,0,.01v.02s.02,0,.02,0l-.02.02v.04s-.03.03-.03.03h0s-.03.04-.03.04l-.09.1h.03s-.13.1-.13.1l-.04.02h-.02Zm.28-.24h0s.01-.03.01-.03v.03Z"/><path class="cls-2" d="m55.94,43.62c-2.24-1.46-5.05-1.99-7.62-1.09-1,.35-1.89.93-2.67,1.64-2.68.34-4.49,2.94-5.19,5.37-.64,2.22-.41,4.82.62,6.9,2.32,4.71,7.73,7,12.77,5.7,2.52-.66,4.72-2.38,5.86-4.72,1.15-2.34,1.17-5.05.53-7.54-.62-2.47-2.16-4.87-4.31-6.28h0Zm-2.38,3.24l-.12-.06.11.06h0Zm-2.92,11.66h-.04s.1,0,.1,0h-.06Zm-3.99-9.07v.02s0,0,0,0v-.02Zm6.11,11.7h-.01s-.05.05-.05.05l.06-.05Zm-.63-9.46l.21.2.13.14.17.21.27.38h-.06s-.68.08-.68.08l-.21-.95-.12-.32h0s.28.25.28.25h.01Zm-4.48-1.31l.13-.04.16-.03.42-.05.53-.02.47.05.67.14h.03c-.78,0-1.45.46-1.82,1.15l-.2.42c-.16-.34-.33-.67-.53-.99l-.4-.43.23-.09.32-.11h0Z"/></svg>