<?xml version="1.0" encoding="UTF-8"?><svg id="Capa_1" xmlns="http://www.w3.org/2000/svg" xmlns:xlink="http://www.w3.org/1999/xlink" viewBox="0 0 100 100"><defs><style>.cls-1,.cls-2{fill:none;}.cls-3{clip-path:url(#clippath);}.cls-4{fill:#a3cdef;}.cls-2{stroke:#12715d;stroke-linecap:round;stroke-linejoin:round;stroke-width:2.03px;}</style><clipPath id="clippath"><rect class="cls-1" x=".36" y="2.52" width="99.27" height="94.96"/></clipPath></defs><g class="cls-3"><path class="cls-4" d="m49.13,52.78c-.31-.25-.68-.36-1.07-.24-.35.11-.68.43-.75.81-.54,3.25-.71,6.56-.48,9.85.22,3.27.82,6.53,1.75,9.68.94,3.17,2.23,6.23,3.82,9.13,1.58,2.89,3.48,5.57,5.64,8.04,2.13,2.43,4.53,4.63,7.17,6.49.38.27.77.54,1.16.8.48.33,1.26.03,1.49-.47.18-.38.15-.74-.03-1.05.04-.12.07-.25.08-.38.47-6.28-.35-12.66-2.28-18.65-1.92-5.97-4.93-11.61-8.88-16.48-2.26-2.78-4.78-5.32-7.6-7.54h-.01Zm15.59,37.63c.3-.28.39-.69.31-1.13-.02-.13-.05-.26-.08-.39.22.17.5.26.77.26.06.96.08,1.93.08,2.89-.36-.54-.72-1.08-1.08-1.62Zm-13.16-32.52c-.22.03-.45.12-.61.25-.19.16-.31.39-.36.62l-.22-.25c-.1-.35-.21-.7-.3-1.06-.12-.42-.53-.73-.96-.77v-.07l.02-.16.02-.25c.02-.17.04-.33.06-.5.81.7,1.59,1.43,2.36,2.18h0Zm7.99,30.57c-.12-.14-.24-.28-.36-.42h-.01s-.08-.1-.08-.1l-.21-.25c-.51-.61-.99-1.24-1.46-1.88-.93-1.26-1.8-2.58-2.59-3.93-.4-.68-.78-1.38-1.15-2.09-.19-.36-.36-.72-.54-1.09l-.12-.25-.06-.13c-.07-.16-.15-.33-.22-.49-.65-1.45-1.22-2.94-1.71-4.44-.49-1.51-.9-3.04-1.23-4.6-.08-.38-.16-.76-.22-1.15l-.06-.32v-.07s-.01-.01-.01-.01c-.03-.2-.07-.4-.1-.6-.12-.79-.22-1.57-.29-2.36-.03-.27-.04-.53-.07-.8.8,3.58,1.75,7.11,3.15,10.5,1.47,3.56,3.47,6.83,5.59,10.03.36.75.74,1.5,1.12,2.25.72,1.43,1.62,3.13,3.05,3.98.43.65.86,1.29,1.29,1.94-1.02-.9-2-1.86-2.92-2.86-.26-.29-.52-.57-.78-.86Z"/><path class="cls-4" d="m80.91,11.44c-.47-.35-1.07-.37-1.58-.1-5.96,3.18-11.31,7.51-15.74,12.61-4.49,5.17-8.03,11.08-10.47,17.47-.79,2.08-1.45,4.2-1.99,6.35-.99,1.56-1.98,3.12-2.95,4.69-.32.52-.21,1.31.24,1.72.49.44,1.15.51,1.73.21.29-.15.57-.31.86-.47l.24.08c.7.15,1.61-.25,1.73-1.03l.04-.21c4.91-3.01,9.27-6.9,12.99-11.29,4.47-5.29,8.1-11.27,11.03-17.54,1.67-3.58,3.13-7.27,4.41-11.01.18-.53-.11-1.16-.53-1.48h-.02Zm-18.88,19.13c.24-.34.48-.68.72-1.02l.29-.4.17-.22.13-.18c.51-.66,1.02-1.31,1.55-1.95.9-1.08,1.85-2.13,2.83-3.14-1.36,1.83-2.71,3.67-4.03,5.52-1.92,2.68-3.81,5.38-5.66,8.11.44-.86.89-1.72,1.38-2.57.81-1.43,1.69-2.81,2.62-4.16h0Zm-6.02,16.67l-.2.16c-.65.5-1.31.98-1.99,1.45.99-1.56,2-3.12,3.02-4.66-.14.3-.28.62-.42.93-.25.57-.23,1.2.19,1.64l-.42.34-.19.15h0Zm11.56-12.46c-.47.68-.95,1.35-1.45,2.01l-.03.04-.04.06-.15.2c-.12.16-.25.33-.38.49-.24.31-.49.62-.74.93,2.43-3.47,4.75-7.01,6.97-10.62.26-.43.53-.87.79-1.3-.7,1.32-1.43,2.63-2.2,3.91-.88,1.46-1.8,2.89-2.77,4.29h0Zm9.24-17.47l-.06.13c-.07.17-.13.33-.2.49-.16.4-.33.81-.51,1.21-.29.7-.59,1.39-.9,2.07-.06-.19-.15-.37-.28-.52.79-1.52,1.49-3.07,2.12-4.66l.41-.26c-.16.42-.31.83-.47,1.24l-.11.29Z"/><path class="cls-4" d="m59.56,48.54c-3.87.23-7.71.85-11.45,1.85-.52.14-.93.43-1.06.99-.12.53.08,1,.48,1.35,3.05,2.59,6.12,5.19,9.53,7.29,2.98,1.84,6.19,3.26,9.57,4.17,6.47,1.75,13.25,1.86,19.89,1.11,3.7-.42,7.38-1.1,11.01-1.94.52-.12.97-.51,1.08-1.02.99-.25,1.45-1.6.5-2.3-5.63-4.14-12.01-7.25-18.72-9.18-6.76-1.95-13.8-2.74-20.83-2.32h0Zm-6.42,4.06c1.15.6,2.32,1.15,3.51,1.67h-.04c-.54-.08-1.18.3-1.36.83-.04.15-.07.31-.07.48-1.39-1.03-2.74-2.13-4.08-3.24.47-.1.94-.2,1.4-.29.15.22.36.42.63.56h0Zm24.66,6.05c-.96-.28-1.93-.55-2.88-.83-1.11-.32-2.22-.65-3.33-.98,2.66.57,5.31,1.12,7.98,1.63.7.13,1.39.26,2.08.39h-.2c-1.21-.08-2.43-.15-3.64-.21Zm-9.68,3.25c-.19-.04-.37-.1-.55-.15-.4-.11-.8-.22-1.21-.35-.76-.24-1.52-.49-2.27-.78-.75-.29-1.49-.6-2.22-.94-.35-.16-.7-.33-1.04-.51-.2-.1-.39-.2-.58-.3l-.22-.12-.1-.05-.25-.14-.3-.18c1.26.52,2.55.95,3.88,1.29,2.26.58,4.55.91,6.87,1.11,2.44.85,4.88,1.67,7.37,2.33-3.03-.09-6.05-.44-9.01-1.13l-.16-.04-.22-.06Zm21.5.35c-.13-.17-.31-.3-.52-.36h-.03c.47.02.94.04,1.4.07l.22.11c-.36.06-.71.12-1.07.18h0Zm1.52-4.2l.2.11h.02s.17.11.17.11c.4.22.79.45,1.18.68.33.19.65.39.97.59-.76-.04-1.53-.08-2.29-.13-3.45-2.56-7.38-4.43-11.46-5.73-2.96-.95-6.01-1.63-9.08-2.15.9.12,1.81.26,2.71.42.84.15,1.68.31,2.52.5.2.04.41.09.61.14l.28.07h.06c.44.12.89.24,1.32.35,3.27.88,6.46,2.02,9.53,3.44.86.4,1.71.81,2.55,1.25.24.12.47.25.7.37h0Z"/><path class="cls-4" d="m48.14,50.55c-5.68,3.36-11.41,6.79-16.37,11.18-2.43,2.15-4.68,4.54-6.55,7.19-2.08,2.95-3.58,6.21-4.82,9.59-1.43,3.9-2.61,7.9-4.48,11.61-.31.63.13,1.52.77,1.73.24.08.47.1.68.06.04.19.1.38.16.56.28.84,1.47.97,2.07.47,5.33-4.4,10.55-8.93,15.27-13.99,4.57-4.91,8.58-10.36,11.5-16.42,1.64-3.39,2.87-6.95,3.67-10.64.21-.95-1.07-1.84-1.9-1.34h0Zm-28.18,38.61v-.02s.07-.24.07-.24c.11-.37.25-.73.4-1.09.07-.16.15-.32.22-.48l.12-.24.07-.13.12-.21.13-.23.13-.21c.07.18.17.35.33.49.23.21.5.33.77.35-.79.67-1.57,1.34-2.36,2h0Zm25.32-30.8l-.29-.1c.21-.26.41-.51.62-.76-.11.29-.22.57-.33.86Zm-8.9,3.03c-.43.51-.85,1.03-1.27,1.55-.21-.06-.43-.06-.63-.02.62-.52,1.25-1.03,1.9-1.53h0Zm-11.45,13.21c.09-.18.18-.37.27-.54l.16-.3.11-.21c.37-.68.77-1.35,1.19-2,.86-1.33,1.82-2.59,2.85-3.8.24-.28.49-.56.74-.83l.24-.26.03-.03c.15-.16.31-.32.46-.48.52-.53,1.06-1.06,1.61-1.56-3.06,3.28-5.54,7.07-7.29,11.21l-.03.08c-.71.97-1.41,1.94-2.12,2.91.38-1,.77-2,1.21-2.97.19-.41.37-.82.57-1.22h0Zm8.58,1.88c-.28.3-.55.6-.83.9-.21.22-.42.45-.75.79l-.13.13c.12-.16.25-.31.38-.47,2.9-3.67,5.74-7.37,8.61-11.06.27-.34.53-.69.8-1.03-.63,1.04-1.29,2.07-1.98,3.08-1.85,2.69-3.91,5.25-6.11,7.67h0Z"/><path class="cls-4" d="m1.38,41.55c-.49.13-.87.45-.99.97-.11.49.08,1,.49,1.3,5.7,4.1,11.74,7.97,18.41,10.28,3.25,1.13,6.67,1.89,10.12,2.04,3.52.15,6.94-.45,10.37-1.18,1.9-.4,3.79-.82,5.71-1.07.47-.06.94-.11,1.41-.15l.31-.02.28-.02c.2-.01.41-.02.62-.02.97-.02,1.94.04,2.89.17.65.1,1.34-.49,1.36-1.15.03-.71-.45-1.26-1.15-1.36-.43-.06-.86-.11-1.29-.13-.02-.36-.17-.72-.51-.97-5.33-3.79-11.33-6.62-17.63-8.38-6.39-1.79-13.03-2.48-19.65-2.07-3.64.22-7.24.81-10.76,1.75h0Zm21.49,7.95h-.06s-.24-.07-.24-.07c-.18-.04-.36-.08-.54-.13-.36-.08-.72-.17-1.08-.26-.7-.18-1.4-.36-2.09-.57-1.39-.4-2.76-.85-4.12-1.34-.51-.19-1.01-.38-1.52-.57,2.31.33,4.63.68,6.94,1.06,4.98.81,9.94,1.74,14.88,2.78.7.15,1.4.3,2.09.45.18.04.36.08.54.12l.17.04.1.02.09.02c-2.21.03-4.42-.06-6.63-.25-2.87-.25-5.72-.68-8.53-1.3h.01Zm-16.46-6.48l.02.12-.42-.05.4-.07h0s0,0,0,0Zm35.84,5.73l.38.21-.37-.19v-.02h0Zm-10.1,4.87h-.1l-.25.02c-.23,0-.45.01-.68.02-1.69.02-3.38-.12-5.05-.39-.4-.07-.81-.14-1.21-.22-.19-.04-.38-.08-.57-.12l-.07-.02-.36-.08c-.84-.2-1.68-.44-2.51-.7-1.35-.43-2.68-.93-3.99-1.48,1.25.38,2.52.72,3.79,1.02,4.14.98,8.36,1.59,12.61,1.8l-.37.04c-.42.04-.83.07-1.25.1Zm13.14-3.09c-.16.02-.33.04-.5.06-.08-.22-.23-.43-.44-.57-.31-.22-.63-.43-.97-.63l.03.02c.63.36,1.26.74,1.87,1.13h0Zm-17.27-7.02h.03c.19.05.38.1.57.14.4.1.79.19,1.18.29,2.63.68,5.21,1.54,7.72,2.58-2.95-1.03-5.92-2.02-8.94-2.85-.24-.07-.49-.13-.73-.2l.12.03h.04Z"/><path class="cls-4" d="m47.25,11.58c-1.66-3.27-3.86-6.3-6.65-8.7-.35-.3-.76-.45-1.22-.33-.4.11-.8.46-.88.88-1.58,7.92-3.19,15.98-2.78,24.1.33,6.52,2.05,13.1,5.73,18.55,2.02,3,4.59,5.59,7.67,7.49.22.13.48.19.74.16.17.1.34.2.52.3.78.42,1.53,0,1.85-.75,2.96-7.18,2-15.21.65-22.64-1.18-6.51-2.6-13.12-5.61-19.07h0Zm-1.9,32.95c-.14-.3-.28-.6-.42-.9l-.11-.25-.06-.12c-.08-.18-.15-.36-.22-.54-.59-1.47-1.09-2.97-1.52-4.49-.42-1.48-.75-2.98-1.03-4.49-.14-.78-.27-1.56-.38-2.34l-.03-.21-.03-.2c-.02-.16-.04-.33-.06-.49-.05-.42-.1-.83-.13-1.25-.12-1.19-.21-2.39-.28-3.58.68,5.14,1.74,10.23,3.2,15.21.42,1.43.88,2.86,1.36,4.27-.1-.2-.21-.4-.31-.61h0Zm-1.76-19.04l-.02-.15-.03-.2c-.02-.17-.04-.35-.07-.52-.04-.35-.08-.7-.12-1.04-.08-.67-.15-1.35-.21-2.02l-.02-.3c.21,1.15.42,2.29.63,3.44.48,2.55.97,5.09,1.49,7.63.03.2.06.39.1.59.25,1.66.47,3.18.68,4.73-.38-1.43-.72-2.86-1.04-4.31-.28-1.3-.54-2.61-.77-3.92-.12-.67-.23-1.34-.34-2-.05-.33-.1-.65-.15-.97-.02-.15-.04-.3-.06-.45l-.03-.26-.03-.23h0Zm7.94,19.82c-.02.29-.05.57-.08.86l-.03.25-.03.24v.04c-.22,1.49-.56,2.96-1.03,4.38h-.01l-.17-.13-.06-.04-.03-.03c-.28-.22-.54-.45-.8-.7.29-.23.49-.58.47-.96-.01-.16-.03-.32-.04-.48.57.04,1.18-.25,1.32-.89.35-1.55.53-3.1.57-4.67l.04-.04c0,.24-.01.47-.02.7-.02.49-.04.99-.09,1.48h0Zm-5.94-31.41c.16.35.33.71.48,1.08.02.03.15.36.04.1l.08.2c.08.2.16.4.24.6.13.35.27.7.4,1.04-.35-.81-.72-1.61-1.11-2.4-.51-1-1.06-1.98-1.64-2.92-.06-.29-.11-.57-.16-.85.21.35.42.71.62,1.08.38.68.73,1.38,1.06,2.09h-.01Zm-3.47-5.8l.06.08.02.02-.15.03-.24.1c-.16-.2-.32-.41-.48-.61-.25-.31-.67-.4-1.06-.34.07-.38.15-.76.22-1.14.57.59,1.11,1.21,1.62,1.86h0Zm-3.2,25.16c-.15-.73-.27-1.47-.38-2.21v-.06s-.01-.03-.01-.03l-.03-.21c-.02-.2-.04-.39-.07-.58-.06-.52-.1-1.03-.14-1.55-.23-3.12-.13-6.25.15-9.36-.02,3.08.07,6.15.35,9.22.33,3.62.91,7.28,1.91,10.81-.21-.53-.41-1.06-.59-1.59-.49-1.45-.89-2.94-1.2-4.44h0Z"/><path class="cls-2" d="m48.85,46.84c.57-.76,1.19-1.56,2.07-1.9.89-.34,2.11,0,2.36.91.18.67-.25,1.41-.88,1.7-.63.28-1.4.15-1.98-.23-.18-.12-.36-.27-.42-.48-.1-.31.06-.64.26-.9.78-1.04,2.2-1.56,3.47-1.26.35.08.73.26.86.59.11.3,0,.63-.11.92-.47,1.17-1.08,2.29-1.82,3.31-.08.1-.16.21-.28.26-.45.17-.64-.58-.5-1.04.24-.79.63-1.54,1.13-2.2.1-.13.21-.26.38-.29.21-.04.4.13.54.29,1.34,1.5,1.66,3.83.79,5.63-.09.18-.2.37-.4.44-.17.06-.36,0-.52-.07-.69-.33-1.11-1.09-1.18-1.84-.07-.76.18-1.52.54-2.19.33-.6.86-1.2,1.55-1.2.66,0,1.21.61,1.35,1.26.14.65-.03,1.32-.24,1.95-.4,1.2-.96,2.35-1.66,3.4-.22-1.45.24-2.98,1.23-4.06-.03,1.95-.68,3.89-1.85,5.46-.09.13-.2.26-.34.32-.3.13-.66-.11-.77-.41-.11-.3-.05-.65.05-.96.25-.78.69-1.49,1.27-2.07.47-.46,1.15-.85,1.76-.62.95.36.88,1.72.54,2.67-.33.92-.74,1.82-1.23,2.67-.19.32-.41.66-.77.77-.3.09-.61,0-.9-.12-.84-.33-1.63-.91-1.98-1.75-.35-.83-.14-1.94.63-2.41-.07.64-.14,1.29-.2,1.93-.02.21-.06.45-.25.54-.14.08-.32.03-.47-.02-.67-.22-1.31-.53-1.9-.93-.36-.25-.73-.57-.79-1.01-.09-.71.79-1.26,1.46-1.03.67.23,1.05.98,1.07,1.7.02.71-.26,1.39-.52,2.05-.05.13-.12.28-.26.32-.19.07-.38-.1-.51-.26-.44-.51-.88-1.05-1.1-1.69-.22-.64-.19-1.41.26-1.92.25.5.11,1.16-.31,1.52-1.04-.28-1.84-1.27-1.91-2.34-.07-1.07.61-2.15,1.6-2.57.71,1.71.88,3.65.48,5.46-.03.13-.07.27-.17.35-.17.14-.43.06-.64-.03-1.58-.68-3.38-1.65-3.59-3.36-.15-1.22.59-2.36,1.3-3.36.08-.12.18-.25.32-.29.29-.09.55.2.69.47.68,1.32.67,2.97-.02,4.28-1.28-.7-2.12-2.23-1.81-3.65.32-1.42,1.95-2.48,3.32-1.98,1.02.37,1.66,1.44,1.78,2.51.12,1.08-.19,2.15-.6,3.15-.07.17-.15.35-.32.45-.33.19-.73-.14-.91-.47-.59-1.09-.27-2.43.21-3.57.6-1.43,1.44-2.76,2.46-3.92.62,1.46.61,3.18-.04,4.64-.77-.17-1.28-.98-1.32-1.76-.05-.79.26-1.55.62-2.25.17-.33.39-.68.75-.76.5-.11.93.38,1.14.84.82,1.82.24,3.95-.45,5.84-.58-.13-1.08-.69-1-1.28.08-.59.87-.99,1.33-.63.16.13.26.32.32.52.18.7-.3,1.5-1,1.67-.7.17-1.5-.31-1.66-1.02-.14-.61.15-1.24.55-1.73.26-.31.59-.59.99-.65.6-.09,1.18.39,1.39.96.21.57.12,1.21-.04,1.8-.2.76-.51,1.49-.92,2.17-.14.23-.3.46-.54.57-.3.13-.64.05-.95-.05-1.13-.38-2.18-1.03-3.01-1.89-.26-.27-.51-.57-.62-.94-.11-.38-.05-.78.07-1.16.4-1.29,1.6-2.36,2.95-2.4,1.35-.04,2.69,1.11,2.67,2.46,0,.42-.16.86-.5,1.09-.3.2-.68.21-1.03.18-.97-.07-1.93-.35-2.79-.81-.75-.4-1.47-1.02-1.59-1.85-.08-.54.1-1.08.33-1.57.45-.94,1.18-1.85,2.2-2.06,1.15-.25,2.28.44,3.23,1.15,1.01.75,1.99,1.57,2.69,2.61.69,1.05,1.07,2.36.76,3.58-.29,1.13-1.12,2.05-2.02,2.79-.89.73-1.91,1.37-3.05,1.55-1.14.19-2.41-.13-3.14-1.03-.67-.83-.78-1.97-.78-3.04,0-1.68.18-3.41,1-4.88.82-1.47,2.38-2.61,4.06-2.52.86.04,1.68.4,2.44.81,1.85.99,3.7,2.63,3.65,4.73-.04,1.63-1.29,3.06-2.79,3.68-1.51.62-3.22.55-4.81.21-1.98-.42-4.11-1.48-4.61-3.44-.49-1.92.81-3.82,2.16-5.27.59-.63,1.3-1.28,2.16-1.32.79-.03,1.5.45,2.14.92,2.12,1.55,4.45,3.45,4.57,6.07.07,1.48-.61,2.89-1.38,4.16-.86,1.42-1.95,2.83-3.53,3.33-2,.64-4.41-.6-5.05-2.61-.72-2.29.7-4.7,2.39-6.4.64-.65,1.42-1.29,2.34-1.3.97,0,1.81.72,2.29,1.56.81,1.43.8,3.3-.04,4.72-1.57-.45-2.46-2.48-1.71-3.94.18-.36.66-.69.94-.41.11.11.13.28.14.44.03.63-.07,1.27-.3,1.86-.03-.72.09-1.45.37-2.11-1.03,1.28-2.07,2.56-3.1,3.84.32-.95.83-1.83,1.48-2.58.46.03.67.59.67,1.06-.02,1.44-1.24,2.8-2.68,2.82-1.43.02-2.74-1.47-2.39-2.86.56.2,1.12.45,1.51.9s.58,1.12.3,1.65c-.21.41-.65.65-1.08.77-1.4.39-3.06-.36-3.61-1.71-.55-1.35.17-3.1,1.54-3.6.41-.15.89-.19,1.29-.01.55.25.86.87.91,1.47.05.6-.12,1.2-.29,1.78-.76.03-1.52-.32-2-.91,2.53.45,4.95,1.57,6.93,3.2.16.13.33.28.38.48.1.37-.24.72-.57.91-1.2.68-2.84.43-3.78-.58.1-.67.45-1.3.97-1.73.17-.14.37-.27.59-.26.26,0,.48.19.61.41.25.41.27.95.05,1.38.06-2.27,2.01-4.33,4.27-4.5.1.8-.12,1.64-.62,2.28-.26-1.08.09-2.28.87-3.05-.19.25-.38.49-.57.74.73-1.74,1.59-3.42,2.57-5.04-.48.48-.79,1.1-1.22,1.63-.43.53-1.05.98-1.73.91-.63-.07-1.14-.59-1.34-1.18-.2-.6-.13-1.25.03-1.86.49,1.02.64,2.2.41,3.31-1.67-.36-3.2-1.35-4.21-2.74,1.08-.33,2.31-.06,3.16.68.42.37.76.87.8,1.43.04.56-.29,1.16-.83,1.32-.3.09-.63.04-.93-.04-1.19-.28-2.31-.82-3.27-1.58-.33-.26-.66-.58-.72-1-.06-.39.13-.77.34-1.1.37-.6.84-1.17,1.47-1.49.63-.32,1.44-.36,2.02.05.58.41.81,1.15.94,1.85.35,1.79.22,3.89-1.15,5.08-.52.45-1.17.72-1.83.88-.74.18-1.56.21-2.23-.14-.68-.35-1.15-1.17-.91-1.89.08-.26.24-.48.43-.68.93-.99,2.56-1.22,3.73-.54,1.17.68,1.77,2.21,1.38,3.51-.09.28-.22.56-.44.76-.78.72-2.04.08-2.78-.68-.21-.22-.42-.46-.48-.75-.18-.8.83-1.45,1.63-1.26.8.19,1.37.87,1.87,1.51.65-1.13.38-2.72-.61-3.57-.91.77-.99,2.33-.17,3.2.9-.22,1.75-.66,2.45-1.27.25-.22.49-.48.6-.8.17-.53-.07-1.12-.47-1.51-.39-.39-.92-.62-1.42-.84-.82,1.17-1.18,2.67-.96,4.09,1.17-.44,2.17-1.29,2.81-2.36.21-.35.37-.81.14-1.15-.14-.2-.38-.29-.61-.36-.73-.22-1.5-.33-2.26-.32-.26,0-.53.02-.73.18-.31.24-.34.73-.16,1.08.18.35.5.61.81.85"/></g></svg>