<?xml version="1.0" encoding="UTF-8"?><svg id="Capa_1" xmlns="http://www.w3.org/2000/svg" viewBox="0 0 100 100"><defs><style>.cls-1{fill:#f9c16d;}.cls-2{fill:#0f715c;}</style></defs><path class="cls-1" d="m49.14,52.75c-.31-.24-.68-.36-1.06-.23-.35.11-.68.43-.74.8-.54,3.21-.7,6.49-.48,9.74.22,3.24.81,6.46,1.73,9.57.93,3.13,2.2,6.16,3.77,9.02,1.56,2.85,3.44,5.51,5.58,7.95,2.1,2.4,4.48,4.57,7.09,6.42.38.27.76.53,1.14.79.48.32,1.24.03,1.48-.46.18-.37.14-.73-.03-1.04.04-.12.07-.24.08-.38.47-6.21-.35-12.52-2.26-18.44-1.9-5.9-4.88-11.48-8.78-16.29-2.23-2.75-4.73-5.26-7.51-7.45h-.01Zm15.41,37.2c.29-.27.39-.68.31-1.12-.02-.13-.05-.26-.08-.39.22.17.49.26.76.26.06.95.08,1.9.08,2.86-.36-.53-.72-1.07-1.07-1.6Zm-13.01-32.15c-.22.03-.44.12-.6.25-.19.16-.31.38-.36.62l-.22-.24c-.1-.35-.21-.69-.3-1.04-.12-.42-.52-.72-.95-.77v-.07l.02-.16.02-.24c.02-.17.04-.33.06-.49.8.69,1.58,1.41,2.33,2.15h0Zm7.9,30.23c-.12-.14-.24-.28-.36-.42h-.01s-.08-.1-.08-.1l-.21-.25c-.5-.6-.98-1.22-1.44-1.85-.92-1.25-1.78-2.55-2.56-3.89-.39-.68-.77-1.37-1.13-2.06-.18-.36-.36-.72-.53-1.08l-.12-.25-.06-.13c-.07-.16-.15-.32-.22-.48-.64-1.43-1.2-2.9-1.69-4.39-.48-1.49-.89-3.01-1.22-4.55-.08-.38-.16-.75-.22-1.13l-.06-.32v-.07s-.01-.01-.01-.01c-.03-.19-.07-.39-.09-.59-.12-.78-.22-1.55-.29-2.33-.03-.27-.04-.53-.07-.79.79,3.54,1.73,7.03,3.11,10.38,1.45,3.52,3.44,6.75,5.53,9.91.36.74.73,1.49,1.1,2.23.72,1.42,1.6,3.09,3.01,3.93.42.64.85,1.28,1.27,1.91-1.01-.89-1.98-1.84-2.89-2.82-.26-.28-.52-.57-.77-.85Z"/><path class="cls-1" d="m80.56,11.88c-.47-.35-1.05-.37-1.56-.09-5.89,3.15-11.18,7.43-15.56,12.47-4.44,5.11-7.94,10.96-10.36,17.28-.78,2.05-1.44,4.15-1.96,6.28-.98,1.54-1.95,3.09-2.91,4.64-.32.51-.21,1.3.24,1.7.49.44,1.13.51,1.71.21.28-.15.57-.31.85-.46l.24.08c.69.14,1.59-.24,1.71-1.02l.04-.21c4.85-2.98,9.17-6.82,12.84-11.17,4.42-5.23,8.01-11.14,10.91-17.34,1.65-3.54,3.1-7.19,4.36-10.89.18-.52-.11-1.15-.52-1.46h-.02Zm-18.67,18.91c.23-.34.47-.67.71-1l.29-.39.17-.22.13-.18c.5-.65,1.01-1.29,1.54-1.93.89-1.07,1.83-2.1,2.8-3.11-1.34,1.81-2.68,3.62-3.98,5.46-1.9,2.65-3.76,5.32-5.6,8.02.43-.85.88-1.7,1.36-2.54.8-1.41,1.67-2.78,2.59-4.11h0Zm-5.95,16.48l-.2.16c-.64.49-1.3.97-1.96,1.43.98-1.54,1.98-3.08,2.99-4.61-.14.3-.28.61-.41.92-.25.57-.23,1.18.18,1.63l-.42.34-.18.14h0Zm11.43-12.32c-.47.67-.94,1.33-1.43,1.99l-.03.04-.04.06-.15.19c-.12.16-.25.32-.37.48-.24.31-.49.62-.73.92,2.4-3.43,4.7-6.93,6.89-10.5.26-.43.52-.86.78-1.29-.69,1.31-1.41,2.6-2.18,3.87-.87,1.44-1.78,2.86-2.74,4.24h0Zm9.14-17.28l-.06.13c-.07.17-.13.33-.2.49-.16.4-.33.8-.5,1.2-.29.69-.59,1.37-.89,2.05-.06-.19-.15-.37-.28-.51.78-1.5,1.48-3.04,2.1-4.61l.41-.26c-.16.41-.31.82-.47,1.23l-.11.29Z"/><path class="cls-1" d="m59.45,48.56c-3.82.23-7.62.84-11.32,1.83-.52.14-.92.43-1.05.98-.12.52.08.99.48,1.34,3.01,2.56,6.05,5.13,9.42,7.21,2.95,1.82,6.12,3.22,9.46,4.12,6.4,1.73,13.1,1.84,19.66,1.1,3.66-.41,7.29-1.09,10.88-1.91.51-.12.96-.5,1.07-1,.98-.25,1.43-1.58.49-2.28-5.56-4.09-11.88-7.17-18.51-9.08-6.69-1.93-13.65-2.71-20.6-2.3h0Zm-6.35,4.02c1.14.59,2.3,1.13,3.47,1.65h-.04c-.54-.08-1.17.29-1.34.82-.04.14-.07.31-.07.47-1.38-1.02-2.71-2.1-4.03-3.2.46-.1.93-.19,1.39-.28.14.22.36.41.62.55h0Zm24.38,5.98c-.95-.27-1.9-.54-2.85-.82-1.1-.32-2.2-.64-3.3-.97,2.63.57,5.25,1.11,7.89,1.61.69.13,1.38.26,2.06.38h-.19c-1.2-.08-2.4-.14-3.6-.21Zm-9.57,3.21c-.18-.04-.37-.09-.54-.14-.4-.11-.79-.22-1.19-.34-.75-.23-1.5-.49-2.24-.77-.74-.28-1.48-.59-2.19-.93-.34-.16-.69-.33-1.03-.5-.19-.1-.38-.2-.57-.3l-.22-.12-.09-.05-.24-.14-.3-.18c1.25.51,2.53.94,3.83,1.28,2.23.58,4.5.9,6.79,1.1,2.41.84,4.83,1.65,7.29,2.3-3-.09-5.98-.44-8.91-1.12l-.16-.04-.22-.06Zm21.26.35c-.13-.17-.31-.3-.52-.36h-.03c.47.02.93.04,1.39.07l.22.11c-.35.06-.7.12-1.06.18h0Zm1.5-4.15l.2.11h.02s.17.11.17.11c.39.22.78.44,1.17.67.32.19.64.38.96.58-.75-.04-1.51-.08-2.26-.13-3.41-2.53-7.29-4.38-11.33-5.67-2.93-.94-5.94-1.61-8.97-2.13.89.12,1.79.26,2.68.41.83.15,1.66.31,2.49.49.2.04.41.09.6.14l.27.07h.06c.44.12.88.23,1.31.34,3.23.87,6.38,2,9.42,3.4.85.39,1.69.8,2.53,1.24.23.12.47.24.69.37h0Z"/><path class="cls-1" d="m48.16,50.54c-5.62,3.32-11.28,6.71-16.18,11.06-2.4,2.13-4.62,4.48-6.47,7.1-2.05,2.91-3.54,6.14-4.76,9.48-1.42,3.85-2.58,7.81-4.43,11.48-.31.62.13,1.5.77,1.71.24.08.46.09.67.06.04.18.09.37.16.55.27.83,1.45.96,2.04.47,5.27-4.35,10.43-8.82,15.1-13.84,4.52-4.86,8.48-10.25,11.37-16.23,1.62-3.35,2.84-6.87,3.62-10.52.21-.94-1.05-1.81-1.88-1.33h0Zm-27.86,38.17v-.02s.07-.24.07-.24c.11-.37.24-.72.4-1.08.07-.16.14-.32.22-.47l.12-.23.07-.13.12-.21.13-.23.13-.21c.07.18.17.34.32.48.23.21.49.32.77.34-.78.67-1.55,1.33-2.34,1.98h0Zm25.04-30.45l-.28-.09c.21-.26.41-.5.61-.75-.11.28-.22.57-.33.85Zm-8.8,3c-.43.5-.84,1.02-1.25,1.53-.21-.06-.42-.06-.62-.02.62-.52,1.24-1.02,1.88-1.51h0Zm-11.32,13.06c.09-.18.18-.36.27-.54l.16-.3.11-.21c.37-.67.76-1.33,1.18-1.98.85-1.32,1.8-2.56,2.82-3.75.24-.28.48-.56.73-.82l.23-.26.03-.03c.15-.16.31-.32.46-.48.52-.53,1.04-1.04,1.59-1.54-3.02,3.24-5.48,6.99-7.2,11.08l-.03.08c-.7.95-1.4,1.91-2.09,2.88.37-.99.77-1.98,1.2-2.94.18-.41.37-.81.57-1.21h0Zm8.49,1.86c-.27.3-.54.59-.82.89-.21.22-.42.44-.74.78l-.13.13c.12-.16.25-.31.37-.47,2.86-3.62,5.68-7.29,8.51-10.94.27-.34.53-.68.79-1.02-.62,1.03-1.28,2.05-1.96,3.04-1.83,2.66-3.87,5.19-6.04,7.58h0Z"/><path class="cls-1" d="m1.93,41.65c-.49.13-.86.45-.98.96-.11.49.08.99.49,1.29,5.63,4.05,11.61,7.88,18.2,10.17,3.21,1.12,6.6,1.87,10.01,2.01,3.48.14,6.87-.44,10.25-1.17,1.88-.4,3.75-.81,5.64-1.06.47-.06.93-.11,1.4-.15l.31-.02.27-.02c.2-.01.41-.02.61-.02.95-.02,1.91.04,2.86.17.64.09,1.32-.49,1.34-1.14.03-.7-.44-1.25-1.14-1.34-.42-.06-.85-.11-1.27-.13-.02-.36-.17-.72-.51-.95-5.27-3.75-11.21-6.55-17.43-8.28-6.32-1.76-12.88-2.45-19.43-2.05-3.6.22-7.16.8-10.64,1.73h0Zm21.25,7.86h-.06s-.24-.07-.24-.07c-.18-.04-.36-.08-.54-.13-.36-.08-.72-.17-1.07-.26-.69-.18-1.38-.36-2.07-.56-1.37-.39-2.73-.84-4.07-1.32-.5-.18-1-.37-1.5-.57,2.29.32,4.57.67,6.86,1.04,4.92.8,9.83,1.72,14.71,2.75.69.14,1.38.29,2.07.44.18.04.36.08.53.12l.17.04.1.02.09.02c-2.19.03-4.37-.06-6.55-.24-2.84-.25-5.66-.68-8.44-1.28h.01Zm-16.27-6.4l.02.12-.42-.05.4-.07h0s0,0,0,0Zm35.43,5.67l.37.21-.37-.18v-.02h0Zm-9.98,4.81h-.09l-.25.02c-.23,0-.45.01-.68.02-1.67.02-3.34-.12-4.99-.38-.4-.07-.8-.14-1.2-.22-.19-.04-.38-.08-.57-.12l-.07-.02-.36-.08c-.83-.2-1.67-.43-2.48-.69-1.34-.42-2.65-.92-3.94-1.47,1.24.37,2.49.71,3.75,1.01,4.1.97,8.27,1.58,12.47,1.78l-.37.04c-.41.04-.82.07-1.23.1Zm12.99-3.06c-.16.02-.33.04-.49.06-.08-.22-.23-.42-.43-.57-.31-.22-.63-.43-.95-.62l.03.02c.63.36,1.24.73,1.85,1.12h0Zm-17.08-6.94h.03c.19.05.37.09.56.14.39.09.78.19,1.17.29,2.6.67,5.16,1.53,7.64,2.55-2.92-1.02-5.85-2-8.84-2.82-.24-.07-.48-.13-.72-.19l.12.03h.04Z"/><path class="cls-1" d="m47.28,12.01c-1.64-3.24-3.82-6.23-6.58-8.6-.34-.29-.75-.44-1.21-.32-.39.11-.79.46-.87.87-1.57,7.83-3.16,15.8-2.75,23.83.33,6.44,2.03,12.95,5.67,18.34,2,2.96,4.53,5.53,7.58,7.41.22.13.48.18.73.16.17.1.34.2.52.29.77.42,1.52,0,1.83-.74,2.93-7.1,1.98-15.04.64-22.38-1.17-6.44-2.57-12.98-5.55-18.85h0Zm-1.88,32.58c-.14-.29-.28-.59-.41-.89l-.11-.25-.06-.12c-.08-.18-.15-.36-.22-.53-.58-1.45-1.08-2.94-1.5-4.44-.41-1.47-.74-2.95-1.02-4.44-.14-.77-.27-1.54-.37-2.31l-.03-.21-.03-.2c-.02-.16-.04-.33-.06-.49-.05-.41-.09-.82-.13-1.23-.12-1.18-.21-2.36-.27-3.54.68,5.08,1.72,10.12,3.16,15.04.42,1.42.87,2.83,1.34,4.22-.1-.2-.21-.4-.31-.6h0Zm-1.74-18.82l-.02-.15-.03-.19c-.02-.17-.04-.34-.07-.52-.04-.34-.08-.69-.12-1.03-.08-.67-.14-1.33-.21-2l-.02-.3c.21,1.13.41,2.26.62,3.4.47,2.52.96,5.03,1.47,7.54.03.19.06.39.09.58.25,1.64.47,3.15.67,4.68-.37-1.42-.72-2.83-1.03-4.26-.28-1.29-.53-2.58-.77-3.88-.12-.66-.23-1.32-.33-1.98-.05-.32-.1-.64-.14-.96-.02-.15-.04-.3-.06-.45l-.03-.26-.03-.23h0Zm7.85,19.59c-.02.28-.05.57-.08.85l-.03.24-.03.23v.04c-.22,1.48-.55,2.92-1.02,4.33h-.01l-.17-.13-.06-.04-.03-.03c-.27-.22-.54-.45-.79-.69.29-.23.49-.57.46-.95-.01-.16-.03-.32-.04-.47.57.04,1.17-.24,1.31-.88.35-1.53.52-3.07.56-4.62l.04-.04c0,.23-.01.46-.02.69-.02.49-.04.98-.09,1.47h0Zm-5.87-31.05c.16.35.32.7.48,1.07.02.03.15.36.04.09l.08.19c.08.19.16.39.24.59.13.34.27.69.39,1.03-.34-.8-.71-1.59-1.1-2.37-.5-.99-1.04-1.95-1.63-2.89-.06-.28-.11-.56-.16-.84.21.35.42.7.62,1.07.37.68.72,1.37,1.05,2.06h-.01Zm-3.43-5.73l.06.08.02.02-.14.03-.23.1c-.16-.2-.32-.41-.48-.6-.25-.31-.67-.4-1.05-.34.07-.38.15-.75.22-1.13.57.58,1.1,1.2,1.6,1.84h0Zm-3.16,24.88c-.15-.72-.27-1.45-.38-2.18v-.06s-.01-.03-.01-.03l-.03-.21c-.02-.19-.04-.38-.07-.57-.06-.51-.1-1.02-.14-1.53-.23-3.09-.13-6.18.15-9.26-.02,3.04.07,6.08.34,9.11.32,3.58.9,7.2,1.89,10.69-.21-.52-.41-1.04-.58-1.57-.49-1.44-.88-2.9-1.18-4.39h0Z"/><path class="cls-2" d="m49.93,60.67c-.77,0-1.56-.19-2.28-.56-.96-.5-1.72-1.27-2.16-2.18-1.18-.27-2.22-1.08-2.67-2.2-.35-.86-.32-1.87.08-2.78.11-.24.24-.47.39-.68,0-.02,0-.03,0-.05-.1-.8.09-1.53.41-2.22.01-.2.04-.4.08-.59.21-.94.87-1.8,1.77-2.3,0,0,.02,0,.03-.01.54-1,1.27-1.69,2.1-2.02.45-.3.96-.51,1.54-.54.25,0,.49.01.71.07.22-.14.45-.27.7-.37.31-.12.66-.18,1-.18.72-.24,1.5-.29,2.25-.11.71.17,1.22.56,1.43,1.09.24.62,0,1.22-.12,1.5,0,.01,0,.02-.01.03.58.16,1.04.58,1.33,1.08.2-.02.4.04.57.17.33.26.41.72.2,1.07-.03.04-.05.08-.08.12.46.77.69,1.59.67,2.42-.02.95-.38,1.88-1,2.67-.03.12-.07.24-.11.35-.33.95-.77,1.88-1.28,2.77-.17.3-.54.92-1.23,1.13-.04.01-.07.02-.11.03-.72.88-1.64,1.68-2.84,2.07-.43.14-.89.21-1.35.21Zm1.09-2.84c-.03.11-.06.21-.1.31.12-.04.23-.09.34-.15.02-.01.04-.03.06-.04-.07-.05-.13-.11-.2-.16-.03.01-.06.02-.09.04Zm2.13-1.23c.07.03.14.06.2.09.04-.06.08-.11.11-.17-.05-.01-.09-.03-.14-.06-.06.05-.12.09-.17.14Zm-8.95-2.2c0,.25.03.5.12.72.14.34.39.63.7.85,0-.21,0-.43.03-.65-.27-.18-.5-.39-.71-.64-.07-.09-.12-.18-.15-.28Z"/></svg>