<?xml version="1.0" encoding="UTF-8"?><svg id="Capa_1" xmlns="http://www.w3.org/2000/svg" viewBox="0 0 200 200"><defs><style>.cls-1{fill:#fff;}</style></defs><path class="cls-1" d="m110.1,239.98h3.5c-3.94-66.83-27.98-131.2-51.74-193.5-.82-2.14-4.14-.89-3.32,1.25,23.58,61.85,47.63,125.85,51.55,192.25Z"/><path class="cls-1" d="m96.85,142.33c-.4-3.31-2.96-5.48-5.23-7.67-2.48-2.4-4.92-4.88-7.49-7.19-2.53-2.28-5.37-4.22-8.6-5.39-3.16-1.14-6.46-1.7-9.81-1.86-3.95-.19-7.87.04-11.8.34-1.84.13-2.53,2.18-1.66,3.6,2.98,4.86,7.11,9.06,11.92,12.15,2.46,1.58,5.05,2.93,7.81,3.92,3.21,1.16,6.55,1.87,9.87,2.63,3.87.89,7.73,1.77,11.6,2.66.92.21,1.86-.3,2.34-1.07.72-.38,1.22-1.09,1.09-2.14h-.03Z"/><path class="cls-1" d="m106.09,126.94c.83-6.47-.48-12.93-1.89-19.24-.22-1-.83-1.84-1.93-2.03-1.01-.17-2.09.38-2.51,1.27-1.44,3.06-2.48,6.26-3.48,9.48-.86,2.78-1.73,5.57-2.41,8.41-1.4,5.75-1.96,11.71-.25,17.46-.13.74.08,1.49.76,2.04.88.72,2.61.76,3.3-.28,1.77-2.66,3.75-5.18,5.34-7.95,1.63-2.84,2.67-5.96,3.09-9.19v.02Z"/><path class="cls-1" d="m72.63,42.26c-2.09-4.07-5.82-7.25-10.4-8.08-1.79-.33-3.6-.21-5.38.18-4.28-1.76-9.18.57-12.31,3.6-2.85,2.76-4.73,6.83-4.97,10.8-.57,8.98,5.52,16.98,14.13,19.31,4.3,1.16,9.05.45,12.74-2.06,3.71-2.52,6.05-6.53,7.23-10.76,1.18-4.2.95-9.08-1.04-13h0Zm-6.31,2.8l-.12-.19.11.19h.01Zm-14.29,14.88l-.06-.03.15.09-.09-.06Zm1.81-16.89v.03h-.02l.02-.03Zm-.91,22.59h-.02l-.11.02.13-.02Zm7.14-14.62l.13.47.07.31.08.46.08.79-.08-.06-1.08-.45.49-1.6.09-.57v.02l.2.6v.02Zm-5.55-5.75l.22.06.27.09.66.28.81.43.65.47.88.78.03.03c-1.17-.66-2.54-.56-3.68.16l-.65.46c.04-.64.08-1.28.06-1.93l-.22-.98.43.06.56.11h-.01Z"/><path class="cls-1" d="m112.24,265.93c5.71-85.27,16.43-170.15,32.23-254.13.36-1.89-2.59-2.4-2.95-.5-15.83,84.15-26.56,169.2-32.26,254.64h2.98Z"/><path class="cls-1" d="m128.79,95.82c-1.75-9.54-3.95-19.52-11.04-26.64-1.8-1.8-3.9-3.32-6.19-4.43-1.09-.52-2.15.4-2.12,1.5.14,4.73,1.66,9.3,3.6,13.58.97,2.15,2.06,4.25,3.14,6.34,1.16,2.24,2.35,4.48,4.02,6.38,1.79,2.03,3.92,3.7,6.35,4.92.73.37,1.38.09,1.76-.42.35-.31.57-.76.48-1.23h0Z"/><path class="cls-1" d="m149.1,73.97c-.52-.44-1.28-.46-1.82-.08-3.31,2.28-6.73,4.44-9.92,6.88-2.99,2.28-5.19,5.23-6.96,8.52-.97,1.81-1.81,3.68-2.64,5.56v.06c-.7.05-1.31.49-1.43,1.22-.13.75.41,1.65,1.22,1.72,4.05.4,7.89-1.29,10.86-3.97,3.34-3.01,5.44-6.94,7.37-10.95,1.16-2.43,2.3-4.87,3.72-7.17.34-.55.07-1.39-.39-1.78h0Z"/><path class="cls-1" d="m136.02,56.25l-.09-.11.03-.29c.2-9.35-2.4-18.68-7.22-26.67-1.35-2.23-2.88-4.35-4.58-6.32-.4-.46-.93-.73-1.55-.58-.52.13-1.1.6-1.14,1.19-.6,9.98,2.03,20,7.44,28.42,1.52,2.38,3.28,4.58,5.21,6.65.54.59,1.63.38,2.11-.18.57-.68.37-1.51-.18-2.11h-.01Z"/><path class="cls-1" d="m158.07,30.47c-3.94,2.8-7.81,5.71-11.59,8.72-3.67,2.91-7.67,5.76-9.93,9.97-1.26,2.33-2.02,4.89-2.79,7.41-.24.77.49,1.6,1.22,1.72.58.09,1.04-.13,1.36-.52l.12-.03c9.05-3.08,16.68-9.84,21.08-18.3,1.24-2.39,2.19-4.91,2.88-7.5.34-1.29-1.34-2.18-2.34-1.47h0Z"/><path class="cls-1" d="m154.24,5.84c-1.34-2.64-3.76-4.69-6.72-5.22-1.15-.21-2.33-.14-3.47.12-2.77-1.14-5.93.37-7.96,2.32-1.84,1.79-3.06,4.42-3.22,6.98-.37,5.8,3.58,10.97,9.14,12.48,2.78.75,5.85.29,8.24-1.33,2.4-1.63,3.91-4.22,4.68-6.96.76-2.72.62-5.87-.68-8.4h0Zm-4.08,1.81l-.08-.12.07.12h0Zm-9.24,9.61l-.04-.02.09.06-.06-.04Zm1.17-10.91v.02h-.01v-.02Zm-.59,14.6h-.09s.09,0,.09,0Zm4.63-9.45l.09.31.04.2.05.3.05.51-.04-.04-.7-.29.33-1.03.06-.37h0s.14.4.14.4h-.01Zm-3.59-3.72l.15.04.17.06.43.18.52.28.42.3.57.5.02.02c-.76-.43-1.64-.36-2.38.1l-.42.3c.03-.41.04-.82.04-1.25l-.15-.63.28.03.37.07h0Z"/></svg>