<?xml version="1.0" encoding="UTF-8"?><svg id="Capa_1" xmlns="http://www.w3.org/2000/svg" viewBox="0 0 60 60"><defs><style>.cls-1{fill:#0f715c;fill-rule:evenodd;}</style></defs><path class="cls-1" d="m39.34,47.39c.87.84,1.29,2.96,3.38,1.61-.61-.39-1.05-.73-1.54-.96-.59-.27-1.22-.44-1.84-.66Zm5.13,5.44c-1.84-.96-3.67-1.16-5.24-2.01,1.26,1.61,2.76,2.64,5.24,2.01Zm2.69-3.87c-1.75.38-3.33.63-4.67,1.56,1.23,1.24,2.8.76,4.67-1.56Zm-11.74-21.04c1.24-2.25,2.15-4.7,3.35-7.02-2.53,1.66-2.69,4.43-3.35,7.02Zm15.1,11.28c-.89-3.94-3.91-5.76-7.08-4.17,3.06.44,5.39,1.79,7.08,4.17Zm-12.6-18.96c2.02.22,7.19-5.45,7.73-8.41-3.2,2.32-5.93,4.9-7.73,8.41Zm17.35-12.61c.46,1.25-2.44.56-.84,2.23-.09.04-.19.08-.28.14-6.55,4.24-10.16,10.47-12.22,17.75-.17.58-.28,1.21-.27,1.81.02,1.1-.9,2.48-.11,3.18.61.54,1.84-.49,2.81-.81.49-.16,1.12-.13,1.33.36.29.67-.82.57-.85,1.29,4.9.61,8.03,3.24,9.25,8.1.94,3.75-1.18,9.69-4.2,11.33-3.29,1.79-8.32,1.18-11.55-1.47-1.69-1.38-3.13-3.01-4.33-4.82-1.05-1.57-1.36-3.32-.82-5.12.33-1.11.22-2.12.01-3.23-1.44-7.55.32-14.4,4.33-20.95,3.42-5.58,8.37-8.68,14.45-10.47,1.42-.42,2.49.08,3.28.7"/><path class="cls-1" d="m8.76,40.93c.79-1.46.88-1.72,1.01-3.06-1.44.84-1.71,1.66-1.01,3.06Zm-.48,6.03c.58-1.56.74-3.04.61-4.57-.04-.5-.25-.8-.72-.94-.29-.09-.49.05-.5.33-.08,1.72-.62,3.49.61,5.17Zm5.63-4.12c.82-2,1.86-3.79,3.74-4.94.3-.18,1.03-.07.69-.78-.3-.63-.74-.45-1.23-.17-1.66.96-2.8,2.4-3.72,4.03-.37.66-.16,1.29.53,1.87m1.38-8.5c1.38.18,2.7.36,3.78,1.23,1.03.83,2.18,1.52,3.04,2.97-.02-4.2-4.18-6.69-6.82-4.2Zm-6.17,15.27c1.75,2.23,3.68,3.15,6.32,2.68,3.71-.67,5.72-3.25,7.34-6.21,1.23-2.26,2.16-4.65,1.1-7.54-.44,3.86-2.28,6.79-4.6,9.48-2.81,3.27-6.37,2.49-10.16,1.6Zm-4.42-11.24c.32-8.08,1.75-15.9,6.71-22.57,3.1-4.17,6.42-8.33,12.01-9.61.57-.13,1.09-.43,1.49.09.47.59-.24.88-.53,1.15-6.64,6.21-8.62,14.39-9.99,22.85-.19,1.2-.05,1.85,1.51,1.99,3.38.32,6.24,1.82,8.49,4.41,1.6,1.84,1.99,3.97,1.48,6.21-.65,2.87-2.07,5.4-4.18,7.49-4.57,4.52-12.41,3.13-15.11-2.71-1.36-2.94-1.99-6.06-1.89-9.32Z"/></svg>